<svg width="605" height="166" viewBox="0 0 605 166" fill="none" xmlns="http://www.w3.org/2000/svg">
<rect x="212.658" y="84.4502" width="290.031" height="81" rx="10" transform="rotate(-3 212.658 84.4502)" fill="#FCE8BD"/>
<path d="M125.775 109.68C125.775 107.84 125.295 106.24 124.495 104.8C126.255 104.32 128.335 104.08 130.015 104.08V95.2C126.175 95.2 122.415 97.6 120.335 100.48C117.375 98.56 113.295 97.52 108.975 97.52C99.215 97.52 92.255 102.16 92.255 109.68C92.255 113.52 94.095 116.64 97.295 118.72C93.615 120.08 91.375 122.72 91.375 126C91.375 129.04 93.215 131.76 96.415 132.8C92.335 133.2 89.535 135.76 89.535 139.04C89.535 145.68 98.095 147.92 108.095 147.92C119.455 147.92 130.015 144 130.015 135.12C130.015 129.28 125.935 125.04 118.015 125.04H103.455C101.135 125.04 100.175 124 100.175 122.64C100.175 121.76 100.575 121.12 101.135 120.64C103.455 121.36 106.095 121.76 108.975 121.76C118.735 121.76 125.775 117.12 125.775 109.68ZM99.375 137.68C99.375 135.84 100.815 134.96 102.655 134.96H115.215C117.855 134.96 119.295 135.6 119.295 137.52C119.295 140.16 114.575 141.52 108.175 141.52C102.975 141.52 99.375 140.48 99.375 137.68ZM113.855 109.68C113.855 113.28 111.855 115.36 109.055 115.36C106.335 115.36 104.335 113.28 104.335 109.68C104.335 106.16 106.335 104.16 109.055 104.16C111.855 104.16 113.855 106.16 113.855 109.68ZM142.815 116.24C142.815 110.32 145.135 106.24 150.255 106.24C155.295 106.24 157.775 110.32 157.775 116.24C157.775 122.16 155.295 126.24 150.255 126.24C145.135 126.24 142.815 122.16 142.815 116.24ZM169.455 116.24C169.455 105.28 161.615 97.52 150.255 97.52C138.895 97.52 131.135 105.28 131.135 116.24C131.135 127.28 138.895 134.96 150.255 134.96C161.615 134.96 169.455 127.28 169.455 116.24ZM176.29 124.48C176.29 132.48 181.49 134.96 187.25 134.96C191.89 134.96 194.93 133.84 197.57 131.84V124.24C195.41 125.2 193.57 125.68 191.81 125.68C189.09 125.68 187.65 124.4 187.65 121.36V106.56H197.09V98.48H187.65V88.64H180.53L179.33 93.36C178.45 96.64 177.41 98.48 173.89 99.12L171.33 99.52V106.56H176.29V124.48ZM500.607 134H513.087V121.52H500.607V134Z" fill="#FFD550"/>
<path d="M237.999 118.96C237.999 124 234.639 127.2 230.399 127.2C227.919 127.2 226.319 125.92 226.319 123.84C226.319 121.04 228.559 120.16 232.159 119.44L237.999 118.24V118.96ZM249.359 111.36C249.359 101.68 242.719 97.52 233.439 97.52C223.279 97.52 217.599 102.8 216.399 110.4L227.119 111.2C227.759 108.24 229.439 106.16 232.799 106.16C236.319 106.16 237.999 108.16 237.999 111.52V112.16L228.079 113.92C220.239 115.44 215.119 118.32 215.119 125.12C215.119 131.2 219.599 134.8 226.719 134.8C232.239 134.8 236.639 132.64 238.639 128.56C239.679 132.56 242.799 134.8 247.039 134.8C250.559 134.8 252.799 133.76 254.559 132.48V126.32C253.519 126.8 252.639 126.96 251.599 126.96C250.159 126.96 249.359 126.16 249.359 124.32V111.36ZM270.124 115.92C270.124 110.32 272.444 106.64 277.084 106.64C281.324 106.64 283.004 109.44 283.004 114.56V134H294.524V111.76C294.524 104.16 291.324 97.52 281.724 97.52C276.364 97.52 272.044 100.08 270.124 104V98.48H258.604V134H270.124V115.92ZM299.091 122.4C299.731 131.04 307.011 134.96 316.611 134.96C326.291 134.96 332.611 130.8 332.611 123.36C332.611 116.56 328.131 113.12 320.371 111.92L313.491 110.72C311.731 110.48 310.611 109.6 310.611 108.16C310.611 106.24 312.371 105.04 315.251 105.04C319.651 105.04 322.131 106.8 322.691 109.92L332.211 109.6C331.491 102 325.491 97.52 315.411 97.52C305.891 97.52 299.891 102.4 299.891 109.28C299.891 116.32 304.291 119.12 312.451 120.4L317.891 121.28C320.771 121.76 321.891 122.72 321.891 124.48C321.891 126.4 319.811 127.52 316.691 127.52C312.371 127.52 309.651 125.6 309.171 122.16L299.091 122.4ZM367.584 98.48H358.304L352.624 120.08H352.304L345.504 98.48H333.984L345.264 134H356.544L362.224 112.56H362.544L368.304 134H379.584L390.864 98.48H380.384L373.584 120.08H373.264L367.584 98.48ZM419.747 121.44C418.467 124.72 415.987 126.24 411.987 126.24C407.507 126.24 403.987 123.52 403.667 118.8H429.267V115.28C429.267 105.6 423.107 97.52 411.347 97.52C400.467 97.52 392.307 105.6 392.307 116.8C392.307 128.08 400.307 134.96 411.587 134.96C420.867 134.96 427.187 130.4 429.027 122.32L419.747 121.44ZM403.827 112.64C404.467 108.88 406.627 105.92 411.267 105.92C415.667 105.92 417.907 109.12 418.147 112.64H403.827ZM461.252 98.96C460.292 98.16 458.452 97.52 456.292 97.52C451.492 97.52 447.812 100.96 446.452 104.96V98.48H434.932V134H446.452V117.2C446.452 111.04 449.652 108.32 454.452 108.32C456.932 108.32 458.692 108.72 460.532 109.76L461.252 98.96ZM462.841 122.4C463.481 131.04 470.761 134.96 480.361 134.96C490.041 134.96 496.361 130.8 496.361 123.36C496.361 116.56 491.881 113.12 484.121 111.92L477.241 110.72C475.481 110.48 474.361 109.6 474.361 108.16C474.361 106.24 476.121 105.04 479.001 105.04C483.401 105.04 485.881 106.8 486.441 109.92L495.961 109.6C495.241 102 489.241 97.52 479.161 97.52C469.641 97.52 463.641 102.4 463.641 109.28C463.641 116.32 468.041 119.12 476.201 120.4L481.641 121.28C484.521 121.76 485.641 122.72 485.641 124.48C485.641 126.4 483.561 127.52 480.441 127.52C476.121 127.52 473.401 125.6 472.921 122.16L462.841 122.4Z" fill="#2F4E37"/>
<path d="M53.6781 32.8C53.6781 40 51.1181 46.16 47.0381 50.72L51.3581 55.68L44.7181 60.96L40.3181 55.92C36.6381 57.92 32.3181 58.96 27.7581 58.96C13.1181 58.96 1.91813 48.32 1.91813 32.8C1.91813 17.28 13.1181 6.64 27.7581 6.64C42.4781 6.64 53.6781 17.28 53.6781 32.8ZM41.3581 32.8C41.3581 23.44 35.9981 17.28 27.7581 17.28C19.5981 17.28 14.3981 23.44 14.3981 32.8C14.3981 42.16 19.5981 48.48 27.7581 48.48C29.8381 48.48 31.6781 48.16 33.2781 47.6L28.1581 41.6L34.6381 36.24L39.5181 41.92C40.7181 39.52 41.3581 36.48 41.3581 32.8ZM82.8269 40.56V22.48H94.4269V58H82.8269V52.48C80.9069 56.48 76.9069 58.96 71.5469 58.96C61.9469 58.96 58.9069 52.4 58.9069 44.8V22.48H70.4269V42C70.4269 47.04 72.1069 49.84 76.3469 49.84C80.6669 49.84 82.8269 46.24 82.8269 40.56ZM127.325 45.44L136.605 46.32C134.765 54.4 128.445 58.96 119.165 58.96C107.885 58.96 99.885 52.08 99.885 40.8C99.885 29.6 108.045 21.52 118.925 21.52C130.685 21.52 136.845 29.6 136.845 39.28V42.8H111.245C111.565 47.52 115.085 50.24 119.565 50.24C123.565 50.24 126.045 48.72 127.325 45.44ZM111.405 36.64H125.725C125.485 33.12 123.245 29.92 118.845 29.92C114.205 29.92 112.045 32.88 111.405 36.64ZM140.028 46.4L150.108 46.16C150.588 49.6 153.308 51.52 157.628 51.52C160.748 51.52 162.828 50.4 162.828 48.48C162.828 46.72 161.708 45.76 158.828 45.28L153.388 44.4C145.228 43.12 140.828 40.32 140.828 33.28C140.828 26.4 146.828 21.52 156.348 21.52C166.428 21.52 172.428 26 173.148 33.6L163.628 33.92C163.068 30.8 160.588 29.04 156.188 29.04C153.308 29.04 151.548 30.24 151.548 32.16C151.548 33.6 152.668 34.48 154.428 34.72L161.308 35.92C169.068 37.12 173.548 40.56 173.548 47.36C173.548 54.8 167.228 58.96 157.548 58.96C147.948 58.96 140.668 55.04 140.028 46.4ZM180.274 48.48V30.56H175.314V23.52L177.874 23.12C181.394 22.48 182.434 20.64 183.314 17.36L184.514 12.64H191.634V22.48H201.074V30.56H191.634V45.36C191.634 48.4 193.074 49.68 195.794 49.68C197.554 49.68 199.394 49.2 201.554 48.24V55.84C198.914 57.84 195.874 58.96 191.234 58.96C185.474 58.96 180.274 56.48 180.274 48.48ZM206.729 22.48H218.249V58H206.729V22.48ZM206.649 18.16V7.6H218.409V18.16H206.649ZM235.471 40.24C235.471 46.16 237.791 50.24 242.911 50.24C247.951 50.24 250.431 46.16 250.431 40.24C250.431 34.32 247.951 30.24 242.911 30.24C237.791 30.24 235.471 34.32 235.471 40.24ZM262.111 40.24C262.111 51.28 254.271 58.96 242.911 58.96C231.551 58.96 223.791 51.28 223.791 40.24C223.791 29.28 231.551 21.52 242.911 21.52C254.271 21.52 262.111 29.28 262.111 40.24ZM279.186 39.92V58H267.666V22.48H279.186V28C281.106 24.08 285.426 21.52 290.786 21.52C300.386 21.52 303.586 28.16 303.586 35.76V58H292.066V38.56C292.066 33.44 290.386 30.64 286.146 30.64C281.506 30.64 279.186 34.32 279.186 39.92ZM308.153 46.4L318.233 46.16C318.713 49.6 321.433 51.52 325.753 51.52C328.873 51.52 330.953 50.4 330.953 48.48C330.953 46.72 329.833 45.76 326.953 45.28L321.513 44.4C313.353 43.12 308.953 40.32 308.953 33.28C308.953 26.4 314.953 21.52 324.473 21.52C334.553 21.52 340.553 26 341.273 33.6L331.753 33.92C331.193 30.8 328.713 29.04 324.313 29.04C321.433 29.04 319.673 30.24 319.673 32.16C319.673 33.6 320.793 34.48 322.553 34.72L329.433 35.92C337.193 37.12 341.673 40.56 341.673 47.36C341.673 54.8 335.353 58.96 325.673 58.96C316.073 58.96 308.793 55.04 308.153 46.4ZM369.293 41.92H358.093C358.253 37.92 359.853 34.48 363.533 31.52C366.813 28.88 369.693 26.72 369.693 22.64C369.693 19.44 367.613 16.88 363.613 16.88C358.493 16.88 356.413 20.32 356.413 25.12C356.413 26.96 356.653 28.24 356.973 29.36L345.133 29.04C344.813 27.44 344.493 25.84 344.493 24.32C344.493 13.6 352.253 6.64 363.693 6.64C375.773 6.64 382.333 13.52 382.333 22C382.333 28.72 378.173 32.48 373.373 36.08C370.733 38.16 369.373 39.68 369.293 41.92ZM357.373 58V45.52H369.853V58H357.373ZM439.478 7.6L448.438 41.44H448.758L457.238 7.6H468.998L455.798 58H442.758L433.878 24.32H433.558L424.678 58H411.798L398.678 7.6H410.758L419.318 41.44H419.638L428.518 7.6H439.478ZM496.075 45.44L505.355 46.32C503.515 54.4 497.195 58.96 487.915 58.96C476.635 58.96 468.635 52.08 468.635 40.8C468.635 29.6 476.795 21.52 487.675 21.52C499.435 21.52 505.595 29.6 505.595 39.28V42.8H479.995C480.315 47.52 483.835 50.24 488.315 50.24C492.315 50.24 494.795 48.72 496.075 45.44ZM480.155 36.64H494.475C494.235 33.12 491.995 29.92 487.595 29.92C482.955 29.92 480.795 32.88 480.155 36.64ZM509.669 18.64V7.6H521.989V18C521.989 25.36 518.069 28.56 509.669 28.8V23.12C513.269 22.96 515.189 21.92 515.189 18.64H509.669ZM551.493 58H537.973L524.453 22.48H536.613L545.013 45.68H545.333L553.733 22.48H565.013L551.493 58ZM593.497 45.44L602.777 46.32C600.937 54.4 594.617 58.96 585.337 58.96C574.057 58.96 566.057 52.08 566.057 40.8C566.057 29.6 574.217 21.52 585.097 21.52C596.857 21.52 603.017 29.6 603.017 39.28V42.8H577.417C577.737 47.52 581.257 50.24 585.737 50.24C589.737 50.24 592.217 48.72 593.497 45.44ZM577.577 36.64H591.897C591.657 33.12 589.417 29.92 585.017 29.92C580.377 29.92 578.217 32.88 577.577 36.64Z" fill="#FFD550"/>
</svg>
