<svg width="123" height="18" viewBox="0 0 123 18" fill="none" xmlns="http://www.w3.org/2000/svg">
<path d="M0.775 1.25V17H4.575V1.25H0.775ZM15.6977 17V4.375H21.2477V1.25H6.44766V4.375H11.9227V17H15.6977ZM26.8311 11.4C26.8311 15.225 29.8311 17.3 34.0311 17.3C37.6311 17.3 40.4561 15.625 40.4561 12.375C40.4561 9.8 38.9811 8.2 35.7561 7.625L32.8061 7.1C31.6561 6.875 30.9561 6.55 30.9561 5.65C30.9561 4.575 31.8561 3.925 33.4561 3.925C35.2811 3.925 36.5561 4.825 36.6561 6.675L40.1561 6.575C40.0811 3.075 37.7561 0.95 33.4811 0.95C29.6561 0.95 27.2311 2.875 27.2311 5.975C27.2311 8.65 29.0061 10.05 31.5061 10.525L34.4561 11.05C35.8311 11.325 36.7561 11.575 36.7561 12.625C36.7561 13.675 35.7061 14.325 34.0311 14.325C32.0811 14.325 30.4561 13.45 30.3061 11.275L26.8311 11.4ZM57.1486 17L50.5236 8L56.7486 1.25H52.3736L46.2986 7.925V1.25H42.4986V17H46.2986V12.05L47.7736 10.475L52.5986 17H57.1486ZM63.3213 1.25L57.0213 17H60.8213L62.1463 13.6H68.4963L69.8463 17H73.8963L67.5463 1.25H63.3213ZM65.2713 5.575H65.3713L67.3963 10.75H63.2463L65.2713 5.575ZM78.8635 1.25H75.2135V17H78.7135V6.95L86.0135 17H89.0385V1.25H85.5635V10.7L78.8635 1.25ZM95.3953 14V4.25H97.4453C100.42 4.25 102.145 6.05 102.145 9.1C102.145 12.2 100.42 14 97.4453 14H95.3953ZM91.5953 17H97.6953C102.87 17 106.07 14.05 106.07 9.125C106.07 4.2 102.87 1.25 97.6953 1.25H91.5953V17ZM112.247 1.25L105.947 17H109.747L111.072 13.6H117.422L118.772 17H122.822L116.472 1.25H112.247ZM114.197 5.575H114.297L116.322 10.75H112.172L114.197 5.575Z" fill="black"/>
</svg>
