<svg width="29" height="30" viewBox="0 0 29 30" fill="none" xmlns="http://www.w3.org/2000/svg">
<path d="M2.14717 16.7978C1.0426 16.7978 0.138993 15.9024 0.128906 14.7979C0.118819 13.6933 1.00607 12.7979 2.11064 12.7979L2.14717 16.7978ZM28.3008 13.3837C29.089 14.1647 29.1006 15.431 28.3267 16.212L15.715 28.9394C14.9411 29.7204 13.6747 29.7204 12.8866 28.9394C12.0984 28.1584 12.0868 26.8921 12.8607 26.1111L24.0711 14.7979L12.6541 3.48462C11.8659 2.7036 11.8544 1.43732 12.6283 0.656306C13.4022 -0.12471 14.6685 -0.12471 15.4567 0.656306L28.3008 13.3837ZM2.11064 12.7979H26.8813L26.9178 16.7978H2.14717L2.11064 12.7979Z" fill="#2F4E37"/>
</svg>
