<svg width="68" height="37" viewBox="0 0 68 37" fill="none" xmlns="http://www.w3.org/2000/svg">
<mask id="mask0_819_2691" style="mask-type:alpha" maskUnits="userSpaceOnUse" x="0" y="0" width="68" height="37">
<path d="M67.9991 0.631836H0.205078V36.3688H67.9991V0.631836Z" fill="white"/>
</mask>
<g mask="url(#mask0_819_2691)">
<path d="M32.6728 14.905V11.6566C32.701 10.8657 33.3507 10.2443 34.1416 10.2443C34.9326 10.2443 35.5823 10.8657 35.6105 11.6566V14.905C35.5258 15.6677 34.9043 16.2326 34.1416 16.2326C33.379 16.2326 32.7575 15.6677 32.6728 14.905ZM0.205078 14.905V11.6566C0.233326 10.8657 0.883018 10.2443 1.67395 10.2443C2.46488 10.2443 3.11457 10.8657 3.14282 11.6566V14.905C3.08632 15.6677 2.43663 16.2609 1.67395 16.2609C0.911266 16.2609 0.261573 15.6677 0.205078 14.905ZM65.0642 14.905V11.6566C65.0924 10.8657 65.7421 10.2443 66.5331 10.2443C67.324 10.2443 67.9737 10.8657 68.0019 11.6566V14.905C67.9737 15.6959 67.324 16.3174 66.5331 16.3174C65.7421 16.3174 65.0924 15.6959 65.0642 14.905ZM57.0306 14.9176V7.60168C57.0871 6.81077 57.7368 6.21758 58.4995 6.21758C59.2904 6.21758 59.9118 6.81077 59.9683 7.60168V14.9176C59.9118 15.6803 59.2622 16.2735 58.4995 16.2735C57.7368 16.2735 57.0871 15.6803 57.0306 14.9176ZM8.32906 14.922V7.606C8.35731 6.81509 9.007 6.19366 9.79793 6.19366C10.5889 6.19366 11.2386 6.81509 11.2668 7.606V14.922C11.2103 15.6846 10.5606 16.2496 9.79793 16.2496C9.03525 16.2496 8.38556 15.6846 8.32906 14.922ZM40.8617 7.606C40.89 6.81509 41.5397 6.19366 42.3306 6.19366C43.1215 6.19366 43.7712 6.81509 43.7995 7.606V14.922C43.743 15.6846 43.1215 16.2778 42.3306 16.2778C41.5397 16.2778 40.9182 15.6846 40.8617 14.922V7.606ZM24.5657 14.922V7.606C24.594 6.81509 25.2437 6.19366 26.0346 6.19366C26.8255 6.19366 27.4752 6.81509 27.5035 7.606V14.922C27.4752 15.6846 26.8255 16.3061 26.0346 16.3061C25.2437 16.3061 24.594 15.6846 24.5657 14.922ZM19.371 36.1501V24.3711H22.337V36.1501H19.371ZM48.8784 17.8625V2.04418C48.9066 1.25327 49.5563 0.631836 50.3472 0.631836C51.1382 0.631836 51.7879 1.25327 51.8161 2.04418V17.8625C51.7596 18.6251 51.1099 19.2183 50.3472 19.2183C49.5846 19.2183 48.9349 18.6251 48.8784 17.8625ZM16.4107 17.8625V2.04418C16.4389 1.25327 17.0886 0.631836 17.8795 0.631836C18.6705 0.631836 19.3202 1.25327 19.3484 2.04418V17.8625C19.3202 18.6534 18.6705 19.2748 17.8795 19.2748C17.0886 19.2748 16.4389 18.6534 16.4107 17.8625ZM46.3259 32.81V35.9454L46.0999 36.0019C44.744 36.4256 43.3034 36.4821 41.891 36.1431C40.5917 35.8324 39.4053 35.0697 38.5861 34.0246C36.8912 31.7366 36.9477 28.6012 38.6991 26.3697C39.264 25.6918 39.9702 25.1268 40.7894 24.7596C41.5803 24.3924 42.456 24.1947 43.3317 24.1664C44.2921 24.1382 45.2807 24.2512 46.1847 24.5619L46.3259 24.5901V27.7538L46.2694 27.6973C45.3372 27.2171 44.2921 27.0194 43.2752 27.1606C42.682 27.2171 42.1453 27.4431 41.6933 27.8385C41.1849 28.234 40.8176 28.7989 40.6764 29.4486C40.5069 30.07 40.5352 30.7197 40.7329 31.3129C40.9306 31.8778 41.2696 32.358 41.7216 32.7252C42.3995 33.2337 43.1904 33.4597 44.0096 33.4032C44.8005 33.3749 45.5632 33.1772 46.2694 32.8382L46.3259 32.81ZM15.2657 27.7538L15.2092 27.6973C14.277 27.2171 13.2319 27.0194 12.215 27.1606C11.6218 27.2171 11.0851 27.4431 10.6331 27.8385C10.1246 28.234 9.75743 28.7989 9.61619 29.4486C9.47495 30.07 9.47495 30.7197 9.67269 31.3129C9.87042 31.8778 10.2094 32.358 10.6896 32.7252C11.3393 33.2337 12.1302 33.4597 12.9494 33.4032C13.7403 33.3749 14.503 33.1772 15.2092 32.8382L15.2657 32.81V35.9454L15.0397 36.0019C13.6838 36.4256 12.2432 36.4821 10.8308 36.1431C9.53145 35.8324 8.34505 35.0697 7.52587 34.0246C5.83102 31.7366 5.88752 28.6012 7.63886 26.3697C8.20381 25.6918 8.91 25.1268 9.72918 24.7596C10.5201 24.3924 11.3958 24.1947 12.2715 24.1664C13.2319 24.1382 14.2205 24.2512 15.1245 24.5619L15.2657 24.5901V27.7538ZM31.8525 24.2044C32.3892 24.2892 32.8977 24.3739 33.4061 24.4869L33.6039 24.5434V27.0291L33.4909 27.0009C32.9824 26.8879 32.5022 26.8031 31.9938 26.7466C31.5418 26.6619 31.1181 26.6619 30.6944 26.7184C30.4401 26.7466 30.1859 26.8314 29.9599 26.9161C29.7622 27.0291 29.621 27.1703 29.508 27.3398C29.4232 27.5093 29.395 27.7353 29.508 27.9613C29.621 28.1872 29.8187 28.385 30.0447 28.4697L32.1068 29.2324C32.5587 29.4018 32.9824 29.6278 33.3214 29.9668C33.6886 30.2775 33.9993 30.673 34.1688 31.1249C34.536 32.0006 34.536 32.961 34.1971 33.8366C33.9993 34.3733 33.6886 34.8253 33.2649 35.1925C32.7847 35.5879 32.2197 35.8704 31.6265 36.0399C31.1463 36.2094 30.6096 36.2941 30.0729 36.3506C29.5362 36.3788 28.9713 36.3506 28.4346 36.3223C27.7849 36.2659 27.1634 36.1811 26.542 36.0681L26.3443 36.0399L26.3725 33.3282L26.4572 33.3564C26.7115 33.4129 26.9939 33.4694 27.2764 33.5259C27.7849 33.6389 28.3216 33.6954 28.83 33.7519C29.2538 33.7801 29.6492 33.7519 30.0447 33.6954C30.3272 33.6389 30.5814 33.5824 30.8356 33.4412C31.0333 33.3282 31.2028 33.1304 31.2876 32.8762C31.3158 32.735 31.3158 32.5655 31.2876 32.4243C31.2311 32.283 31.1181 32.1136 31.0051 32.0006C30.8356 31.8311 30.6096 31.6898 30.3554 31.6051L30.2989 31.5769L30.0447 31.4921C29.9034 31.4356 29.734 31.3791 29.5645 31.3509C29.0843 31.2097 28.6041 31.0402 28.1803 30.7859C27.8414 30.6165 27.5307 30.3905 27.2482 30.1363C26.9375 29.8256 26.6832 29.4583 26.542 29.0346C26.2313 28.2155 26.2313 27.3398 26.542 26.5207C26.7397 25.9557 27.0787 25.5038 27.5307 25.1366C28.2086 24.5999 28.9995 24.2892 29.8469 24.2044C30.5249 24.1197 31.2028 24.1197 31.8525 24.2044ZM49.4179 30.2613C49.4744 28.0298 50.7173 25.996 52.6664 24.9226C54.6437 23.8493 57.0165 23.9058 58.9373 25.0921C61.0841 26.3915 62.214 28.8772 61.7621 31.3347C61.3384 33.7922 59.4175 35.7412 56.96 36.2214C55.1239 36.6169 53.2313 36.1649 51.7624 35.035C50.3218 33.8769 49.4462 32.1256 49.4179 30.2613ZM53.2852 32.1531C54.3304 33.4807 56.2512 33.7067 57.5788 32.6898L57.6353 32.6616C58.285 32.1249 58.6805 31.3905 58.7652 30.5713C58.85 29.7521 58.5957 28.933 58.0873 28.2833C57.5506 27.6619 56.8162 27.2664 55.997 27.1817C55.1778 27.0969 54.3586 27.3229 53.7372 27.8596C52.4378 28.933 52.2401 30.8538 53.2852 32.1531Z" fill="#2F4E37"/>
</g>
</svg>
