<svg width="63" height="57" viewBox="0 0 63 57" fill="none" xmlns="http://www.w3.org/2000/svg">
<path d="M42.0564 36.625L42.7517 40.1016C42.9433 41.0598 43.7845 41.7495 44.7617 41.7495H45.6851C47.1507 41.7495 48.4127 42.784 48.7 44.2212L48.7402 44.4222C48.9939 45.6906 48.0238 46.8739 46.7303 46.8739H29.1833C27.8898 46.8739 26.9196 45.6906 27.1733 44.4222L27.2135 44.2212C27.501 42.784 28.7628 41.7495 30.2285 41.7495H31.1519C32.129 41.7495 32.9703 41.0598 33.1619 40.1016L33.8572 36.625" fill="#2F4E37" fill-opacity="0.5"/>
<path d="M16.8909 31.5438C17.1317 34.1345 19.1863 36.0379 21.7832 36.1994C25.0891 36.4049 30.3801 36.6228 37.9583 36.6228C45.5363 36.6228 50.8274 36.4049 54.1334 36.1994C56.7302 36.0379 58.7849 34.1345 59.0256 31.5438C59.2615 29.0056 59.481 25.2841 59.481 20.2245C59.481 15.1648 59.2615 11.4433 59.0256 8.90507C58.7849 6.31437 56.7302 4.41101 54.1334 4.24954C50.8274 4.04399 45.5364 3.82617 37.9583 3.82617C30.3801 3.82617 25.0891 4.04399 21.7832 4.24954C19.1863 4.41101 17.1317 6.31437 16.8909 8.90507C16.6551 11.4433 16.4355 15.1648 16.4355 20.2245C16.4355 25.2841 16.6551 29.0056 16.8909 31.5438Z" fill="#2F4E37" fill-opacity="0.5"/>
<path d="M29.2029 43.6807L29.8981 47.1573C30.0898 48.1155 30.931 48.8051 31.9082 48.8051H32.8316C34.2972 48.8051 35.5591 49.8396 35.8465 51.2769L35.8867 51.4778C36.1404 52.7462 35.1703 53.9296 33.8768 53.9296H16.3298C15.0363 53.9296 14.0661 52.7462 14.3198 51.4778L14.36 51.2769C14.6475 49.8396 15.9093 48.8051 17.375 48.8051H18.2984C19.2755 48.8051 20.1168 48.1155 20.3083 47.1573L21.0037 43.6807" fill="#2F4E37"/>
<path d="M4.03937 38.5995C4.28011 41.1902 6.33474 43.0935 8.93159 43.255C12.2376 43.4605 17.5286 43.6784 25.1067 43.6784C32.6848 43.6784 37.9759 43.4605 41.2819 43.255C43.8786 43.0935 45.9333 41.1902 46.1741 38.5995C46.4099 36.0612 46.6294 32.3397 46.6294 27.2802C46.6294 22.2205 46.4099 18.499 46.1741 15.9607C45.9333 13.37 43.8786 11.4667 41.2819 11.3052C37.9759 11.0997 32.6849 10.8818 25.1067 10.8818C17.5286 10.8818 12.2376 11.0997 8.93159 11.3052C6.33475 11.4667 4.28011 13.37 4.03937 15.9607C3.80352 18.499 3.58398 22.2205 3.58398 27.2802C3.58398 32.3397 3.80352 36.0612 4.03937 38.5995Z" fill="#2F4E37"/>
</svg>
