<svg width="22" height="23" viewBox="0 0 22 23" fill="none" xmlns="http://www.w3.org/2000/svg">
<path d="M7.14376 2.58057H14.7164C17.6012 2.58057 19.9451 4.92448 19.9451 7.80929V15.3819C19.9451 16.7687 19.3942 18.0986 18.4137 19.0792C17.4331 20.0598 16.1031 20.6107 14.7164 20.6107H7.14376C4.25895 20.6107 1.91504 18.2667 1.91504 15.3819V7.80929C1.91504 6.42255 2.46592 5.0926 3.4465 4.11202C4.42707 3.13145 5.75702 2.58057 7.14376 2.58057M10.9301 7.08809C12.1256 7.08809 13.2721 7.56299 14.1174 8.40831C14.9627 9.25363 15.4376 10.4001 15.4376 11.5956C15.4376 12.7911 14.9627 13.9376 14.1174 14.7829C13.2721 15.6282 12.1256 16.1031 10.9301 16.1031C9.73461 16.1031 8.58811 15.6282 7.74278 14.7829C6.89746 13.9376 6.42256 12.7911 6.42256 11.5956C6.42256 10.4001 6.89746 9.25363 7.74278 8.40831C8.58811 7.56299 9.73461 7.08809 10.9301 7.08809M6.96346 4.38358C6.10273 4.38358 5.27724 4.7255 4.66861 5.33414C4.05997 5.94277 3.71805 6.76825 3.71805 7.62899V15.5622C3.71805 17.3562 5.16947 18.8076 6.96346 18.8076H14.8967C15.7574 18.8076 16.5829 18.4657 17.1916 17.8571C17.8002 17.2485 18.1421 16.423 18.1421 15.5622V7.62899C18.1421 5.835 16.6907 4.38358 14.8967 4.38358H6.96346ZM15.663 5.73583C15.9618 5.73583 16.2485 5.85456 16.4598 6.06589C16.6711 6.27722 16.7899 6.56384 16.7899 6.86271C16.7899 7.16158 16.6711 7.44821 16.4598 7.65954C16.2485 7.87087 15.9618 7.98959 15.663 7.98959C15.3641 7.98959 15.0775 7.87087 14.8662 7.65954C14.6548 7.44821 14.5361 7.16158 14.5361 6.86271C14.5361 6.56384 14.6548 6.27722 14.8662 6.06589C15.0775 5.85456 15.3641 5.73583 15.663 5.73583ZM10.9301 8.8911C10.2128 8.8911 9.5249 9.17604 9.0177 9.68323C8.51051 10.1904 8.22557 10.8783 8.22557 11.5956C8.22557 12.3129 8.51051 13.0008 9.0177 13.508C9.5249 14.0152 10.2128 14.3001 10.9301 14.3001C11.6474 14.3001 12.3353 14.0152 12.8425 13.508C13.3497 13.0008 13.6346 12.3129 13.6346 11.5956C13.6346 10.8783 13.3497 10.1904 12.8425 9.68323C12.3353 9.17604 11.6474 8.8911 10.9301 8.8911Z" stroke="white" stroke-width="0.888889"/>
</svg>
