<svg width="410" height="231" viewBox="0 0 410 231" fill="none" xmlns="http://www.w3.org/2000/svg">
<path d="M322.475 44.8708H112.99V36.595C112.991 34.1719 113.954 31.8483 115.667 30.1347C117.38 28.4213 119.704 27.4587 122.127 27.458H319.683C319.346 29.0994 319.176 30.7707 319.176 32.4463C319.176 32.5172 319.176 32.5794 319.176 32.6481H145.748V39.6098H320.061L320.228 39.5626C320.78 41.4091 321.534 43.1893 322.475 44.8708Z" fill="#2F4E37"/>
<path d="M226.958 180.559C228.295 180.559 229.605 180.954 230.72 181.699C231.832 182.442 232.7 183.498 233.213 184.735C233.726 185.972 233.859 187.333 233.597 188.648C233.337 189.96 232.693 191.166 231.746 192.113C230.799 193.06 229.592 193.705 228.28 193.964C226.966 194.226 225.605 194.093 224.368 193.58C223.131 193.067 222.075 192.199 221.332 191.087C220.587 189.973 220.191 188.663 220.191 187.325C220.191 185.53 220.906 183.81 222.173 182.541C223.442 181.274 225.163 180.559 226.958 180.559Z" fill="#FFE8BB"/>
<path d="M349.049 78.8241V156.773C347.443 157.464 345.881 158.252 344.372 159.135L340.844 157.941L340.934 157.668V64.0117L349.049 78.8241Z" fill="#FFE8BB"/>
<path d="M349.046 62.8032V78.8246L340.932 64.0079V60.3359C343.556 61.4038 346.272 62.2297 349.046 62.8032Z" fill="black"/>
<path d="M333.36 199.666H318.561L325.473 174.986H330.019C328.827 177.945 328.213 181.104 328.211 184.295C328.254 189.835 330.055 195.219 333.36 199.666Z" fill="black"/>
<path d="M325.48 174.986L318.568 199.666H117.201C113.932 199.666 110.797 198.366 108.485 196.056C106.174 193.743 104.875 190.608 104.875 187.34V128.475L112.99 118.109V165.849C112.99 168.271 113.953 170.597 115.667 172.308C117.38 174.022 119.704 174.986 122.127 174.986H325.48ZM233.739 187.325C233.739 185.985 233.344 184.677 232.599 183.563C231.856 182.45 230.8 181.581 229.563 181.067C228.326 180.556 226.965 180.421 225.65 180.681C224.338 180.943 223.131 181.587 222.185 182.532C221.235 183.479 220.591 184.686 220.329 185.998C220.067 187.312 220.2 188.673 220.711 189.91C221.225 191.147 222.09 192.206 223.204 192.951C224.317 193.694 225.625 194.093 226.965 194.093C228.76 194.093 230.48 193.38 231.751 192.111C233.02 190.84 233.733 189.12 233.733 187.325H233.739Z" fill="#FFE8BB"/>
<path d="M322.563 67.7852C323.04 67.7736 323.515 67.8574 323.959 68.0318C324.402 68.2061 324.807 68.4677 325.149 68.8007C325.49 69.1338 325.761 69.5317 325.946 69.9712C326.13 70.4106 326.227 70.8826 326.227 71.3595C326.227 71.8364 326.13 72.3086 325.946 72.748C325.761 73.1875 325.49 73.5854 325.149 73.9185C324.807 74.2515 324.402 74.5129 323.959 74.6872C323.515 74.8616 323.04 74.9456 322.563 74.9338H240.166C239.459 74.9353 238.765 74.7263 238.177 74.334C237.589 73.9415 237.131 73.3832 236.859 72.7295C236.588 72.0761 236.519 71.3569 236.657 70.6631C236.796 69.9695 237.138 69.3326 237.638 68.8331C237.969 68.4994 238.362 68.2349 238.796 68.055C239.229 67.875 239.695 67.7833 240.166 67.7852H322.563Z" fill="#2F4E37"/>
<path d="M322.562 83.0703C323.512 83.0703 324.42 83.4469 325.09 84.1173C325.762 84.788 326.138 85.6974 326.138 86.6456C326.138 87.5937 325.762 88.5031 325.09 89.1737C324.42 89.8441 323.512 90.221 322.562 90.221H198.476C197.527 90.2192 196.618 89.8413 195.947 89.1705C195.277 88.4994 194.9 87.5898 194.898 86.6413C194.903 85.6944 195.281 84.7873 195.951 84.1182C196.621 83.4493 197.529 83.0725 198.476 83.0703H322.562Z" fill="black"/>
<path d="M322.564 98.3566C323.041 98.3448 323.515 98.4287 323.96 98.6031C324.402 98.7774 324.808 99.0388 325.15 99.3718C325.491 99.7049 325.762 100.103 325.946 100.542C326.131 100.982 326.228 101.454 326.228 101.931C326.228 102.408 326.131 102.88 325.946 103.319C325.762 103.759 325.491 104.157 325.15 104.49C324.808 104.823 324.402 105.084 323.96 105.259C323.515 105.433 323.041 105.517 322.564 105.505H281.855C280.906 105.504 279.997 105.127 279.325 104.457C278.655 103.786 278.277 102.876 278.277 101.928C278.279 100.98 278.657 100.072 279.327 99.4021C279.997 98.7326 280.908 98.3566 281.855 98.3566H322.564Z" fill="#2F4E37"/>
<path d="M322.562 113.635C323.511 113.635 324.419 114.011 325.089 114.683C325.762 115.353 326.137 116.261 326.137 117.21C326.137 118.159 325.762 119.068 325.089 119.738C324.419 120.41 323.511 120.785 322.562 120.785H191.529C190.58 120.783 189.67 120.408 188.999 119.735C188.328 119.065 187.95 118.155 187.949 117.206C187.953 116.259 188.332 115.351 189.002 114.683C189.673 114.013 190.581 113.637 191.529 113.635H322.562Z" fill="black"/>
<path d="M322.562 128.929C323.494 128.952 324.381 129.339 325.034 130.007C325.685 130.675 326.05 131.57 326.05 132.504C326.05 133.436 325.685 134.331 325.034 134.999C324.381 135.667 323.494 136.054 322.562 136.077H254.062C253.113 136.077 252.202 135.699 251.532 135.029C250.86 134.357 250.485 133.449 250.482 132.5C250.485 131.553 250.865 130.644 251.535 129.974C252.205 129.304 253.115 128.929 254.062 128.929H322.562Z" fill="#2F4E37"/>
<path d="M322.564 144.214C323.04 144.203 323.515 144.287 323.959 144.461C324.402 144.635 324.808 144.897 325.149 145.23C325.491 145.562 325.761 145.96 325.946 146.4C326.13 146.84 326.227 147.31 326.227 147.789C326.227 148.266 326.13 148.736 325.946 149.176C325.761 149.617 325.491 150.014 325.149 150.347C324.808 150.679 324.402 150.941 323.959 151.115C323.515 151.289 323.04 151.373 322.564 151.362H302.699C301.749 151.362 300.841 150.984 300.169 150.314C299.499 149.642 299.121 148.734 299.121 147.785C299.123 146.838 299.501 145.93 300.173 145.26C300.843 144.592 301.752 144.216 302.699 144.214H322.564Z" fill="black"/>
<path d="M322.561 159.498C323.511 159.498 324.419 159.874 325.089 160.546C325.761 161.216 326.137 162.124 326.137 163.073C326.137 164.023 325.761 164.931 325.089 165.601C324.419 166.273 323.511 166.649 322.561 166.649H212.373C211.423 166.647 210.513 166.271 209.843 165.599C209.171 164.929 208.795 164.018 208.793 163.069C208.797 162.122 209.175 161.214 209.847 160.546C210.517 159.876 211.426 159.5 212.373 159.498H322.561Z" fill="#2F4E37"/>
<path d="M322.838 52.526L319.372 59.6487H212.372C211.423 59.6487 210.515 59.2721 209.845 58.6014C209.173 57.931 208.797 57.0216 208.797 56.0734C208.797 55.1251 209.173 54.2157 209.845 53.5453C210.515 52.8747 211.423 52.498 212.372 52.498H322.561C322.658 52.498 322.741 52.5195 322.838 52.526Z" fill="black"/>
<path d="M117.201 21.5371H321.675C320.773 23.4225 320.106 25.4105 319.683 27.4573H122.127C119.704 27.458 117.38 28.4209 115.667 30.1342C113.953 31.8476 112.99 34.1712 112.99 36.5943V65.7617C110.472 63.8965 107.75 62.3251 104.875 61.0783V33.8629C104.875 32.2442 105.194 30.6414 105.813 29.146C106.433 27.6506 107.341 26.2918 108.485 25.1472C109.63 24.0027 110.988 23.0948 112.484 22.4755C113.979 21.856 115.582 21.5371 117.201 21.5371Z" fill="#FFE8BB"/>
<path d="M320.231 39.5629L320.063 39.6101H145.748V32.6484H319.185C319.198 34.9916 319.55 37.3206 320.231 39.5629Z" fill="black"/>
<path d="M282.962 144.213C283.894 144.237 284.781 144.623 285.434 145.291C286.084 145.959 286.449 146.854 286.449 147.786C286.449 148.72 286.084 149.616 285.434 150.283C284.781 150.951 283.894 151.338 282.962 151.361H144.978C144.029 151.361 143.12 150.983 142.449 150.313C141.778 149.641 141.401 148.733 141.4 147.784C141.403 146.837 141.781 145.929 142.452 145.259C143.122 144.591 144.03 144.215 144.978 144.213H282.962Z" fill="#2F4E37"/>
<path d="M262.116 98.3564C263.048 98.3794 263.934 98.7659 264.587 99.4338C265.238 100.102 265.603 100.998 265.603 101.931C265.603 102.864 265.238 103.76 264.587 104.428C263.934 105.095 263.048 105.482 262.116 105.505H144.978C144.029 105.505 143.12 105.127 142.449 104.457C141.778 103.786 141.401 102.876 141.4 101.927C141.402 100.98 141.78 100.072 142.45 99.402C143.121 98.7324 144.03 98.3564 144.978 98.3564H262.116Z" fill="black"/>
<path d="M253.574 217.39L256.507 230.319H252.365H203.326H197.412L204.361 199.666L253.574 217.39Z" fill="#FFE8BB"/>
<path d="M249.561 199.666L253.576 217.39L204.363 199.666H249.561Z" fill="black"/>
<path d="M234.323 128.929C235.254 128.952 236.141 129.339 236.794 130.007C237.445 130.675 237.81 131.57 237.81 132.504C237.81 133.436 237.445 134.331 236.794 134.999C236.141 135.667 235.254 136.054 234.323 136.077H144.978C144.029 136.077 143.12 135.699 142.449 135.029C141.778 134.357 141.401 133.449 141.4 132.5C141.402 131.553 141.78 130.644 142.45 129.974C143.121 129.304 144.03 128.929 144.978 128.929H234.323Z" fill="black"/>
<path d="M220.427 67.7852C220.903 67.7736 221.378 67.8574 221.822 68.0318C222.265 68.2061 222.671 68.4677 223.012 68.8007C223.353 69.1338 223.624 69.5317 223.809 69.9712C223.993 70.4106 224.09 70.8826 224.09 71.3595C224.09 71.8364 223.993 72.3086 223.809 72.748C223.624 73.1875 223.353 73.5854 223.012 73.9185C222.671 74.2515 222.265 74.5129 221.822 74.6872C221.378 74.8616 220.903 74.9456 220.427 74.9338H144.977C144.501 74.9456 144.026 74.8616 143.582 74.6872C143.139 74.5129 142.734 74.2515 142.393 73.9185C142.052 73.5854 141.78 73.1875 141.595 72.748C141.41 72.3086 141.314 71.8364 141.314 71.3595C141.314 70.8826 141.41 70.4106 141.595 69.9712C141.78 69.5317 142.052 69.1338 142.393 68.8007C142.734 68.4677 143.139 68.2061 143.582 68.0318C144.026 67.8574 144.501 67.7736 144.977 67.7852H220.427Z" fill="black"/>
<path d="M192.634 52.498C193.582 52.498 194.492 52.8747 195.162 53.5453C195.833 54.2157 196.209 55.1251 196.209 56.0734C196.209 57.0216 195.833 57.931 195.162 58.6014C194.492 59.2721 193.582 59.6487 192.634 59.6487H144.978C144.029 59.6481 143.12 59.271 142.449 58.6004C141.778 57.9296 141.401 57.0199 141.4 56.0712C141.403 55.1236 141.78 54.2153 142.451 53.5455C143.121 52.876 144.03 52.4991 144.978 52.498H192.634Z" fill="#2F4E37"/>
<path d="M192.634 159.498C193.582 159.498 194.492 159.874 195.162 160.546C195.833 161.216 196.209 162.124 196.209 163.073C196.209 164.023 195.833 164.931 195.162 165.601C194.492 166.273 193.582 166.649 192.634 166.649H144.978C144.029 166.647 143.12 166.271 142.449 165.599C141.778 164.929 141.401 164.018 141.4 163.069C141.403 162.122 141.781 161.214 142.452 160.544C143.122 159.876 144.03 159.5 144.978 159.498H192.634Z" fill="black"/>
<path d="M178.738 83.0703C179.687 83.0703 180.596 83.4469 181.267 84.1173C181.937 84.788 182.314 85.6974 182.314 86.6456C182.314 87.5937 181.937 88.5031 181.267 89.1737C180.596 89.8441 179.687 90.221 178.738 90.221H144.978C144.029 90.2197 143.12 89.8422 142.449 89.1711C141.778 88.4999 141.401 87.59 141.4 86.6413C141.403 85.6939 141.781 84.7862 142.452 84.1169C143.122 83.4478 144.03 83.0714 144.978 83.0703H178.738Z" fill="#2F4E37"/>
<path d="M171.79 113.635C172.738 113.635 173.647 114.011 174.318 114.683C174.988 115.353 175.365 116.261 175.365 117.21C175.365 118.159 174.988 119.068 174.318 119.738C173.647 120.41 172.738 120.785 171.79 120.785H144.978C144.029 120.783 143.12 120.408 142.449 119.735C141.778 119.065 141.401 118.155 141.4 117.206C141.403 116.259 141.781 115.351 142.452 114.683C143.122 114.013 144.03 113.637 144.978 113.635H171.79Z" fill="#2F4E37"/>
<path d="M125.094 84.1689C125.565 84.3448 125.976 84.6515 126.279 85.053C126.581 85.4546 126.763 85.9343 126.802 86.4355C126.841 86.9369 126.737 87.4389 126.5 87.8828C126.264 88.3264 125.905 88.6934 125.467 88.9403C125.467 88.7943 125.467 88.6419 125.467 88.4894C125.467 88.1351 125.467 87.7808 125.439 87.4265V87.3427C125.394 86.2785 125.278 85.2181 125.094 84.1689Z" fill="black"/>
<path d="M124.148 53.4082C124.675 53.4065 125.191 53.5611 125.63 53.8527C126.069 54.1443 126.412 54.5594 126.614 55.046C126.817 55.5324 126.871 56.0679 126.77 56.585C126.668 57.1021 126.415 57.5773 126.043 57.9505C125.671 58.3239 125.196 58.5784 124.68 58.6817C124.163 58.7852 123.627 58.733 123.14 58.5316C122.653 58.3304 122.236 57.9891 121.944 57.5511C121.65 57.113 121.494 56.5979 121.494 56.0709C121.494 55.3662 121.774 54.6902 122.271 54.1911C122.768 53.6919 123.444 53.4104 124.148 53.4082Z" fill="black"/>
<path d="M124.148 68.6943C124.675 68.6931 125.19 68.8479 125.628 69.1395C126.066 69.4311 126.409 69.8462 126.611 70.3321C126.813 70.8183 126.867 71.3534 126.765 71.8698C126.663 72.3865 126.41 72.8611 126.038 73.2338C125.666 73.6066 125.192 73.8606 124.676 73.9637C124.16 74.067 123.625 74.0146 123.138 73.8134C122.652 73.6124 122.236 73.2714 121.943 72.8336C121.65 72.3959 121.494 71.8814 121.494 71.3549C121.494 70.6504 121.774 69.9746 122.271 69.4758C122.769 68.9771 123.444 68.6961 124.148 68.6943Z" fill="black"/>
<path d="M124.147 99.2661C124.853 99.2661 125.53 99.5463 126.029 100.045C126.527 100.544 126.808 101.221 126.808 101.927C126.808 102.632 126.527 103.309 126.029 103.808C125.53 104.307 124.853 104.587 124.147 104.587C123.58 104.574 123.032 104.382 122.58 104.039C122.128 103.696 121.796 103.219 121.631 102.676L121.266 102.446C121.893 101.472 122.457 100.459 122.953 99.4121L123.072 99.4658C123.293 99.2467 123.965 99.2661 124.147 99.2661Z" fill="black"/>
<path d="M124.148 129.837C124.675 129.835 125.191 129.989 125.63 130.281C126.069 130.573 126.412 130.988 126.614 131.475C126.817 131.961 126.871 132.497 126.77 133.013C126.668 133.53 126.415 134.007 126.043 134.379C125.671 134.752 125.196 135.008 124.68 135.111C124.163 135.214 123.627 135.162 123.14 134.96C122.653 134.759 122.236 134.417 121.944 133.979C121.65 133.541 121.494 133.026 121.494 132.5C121.494 131.795 121.774 131.119 122.271 130.621C122.768 130.12 123.444 129.839 124.148 129.837Z" fill="black"/>
<path d="M124.148 145.123C124.675 145.121 125.19 145.278 125.628 145.568C126.066 145.86 126.409 146.274 126.611 146.761C126.813 147.247 126.867 147.781 126.765 148.299C126.663 148.814 126.41 149.289 126.038 149.663C125.666 150.036 125.192 150.29 124.676 150.393C124.16 150.496 123.625 150.444 123.138 150.242C122.652 150.04 122.236 149.699 121.943 149.263C121.65 148.825 121.494 148.31 121.494 147.784C121.494 147.079 121.774 146.403 122.271 145.905C122.769 145.407 123.444 145.125 124.148 145.123Z" fill="black"/>
<path d="M124.148 160.408C124.675 160.406 125.191 160.561 125.63 160.853C126.069 161.145 126.412 161.559 126.614 162.047C126.817 162.532 126.871 163.069 126.769 163.586C126.667 164.104 126.414 164.578 126.042 164.952C125.67 165.326 125.195 165.579 124.678 165.682C124.161 165.785 123.625 165.734 123.138 165.532C122.651 165.33 122.235 164.989 121.943 164.55C121.65 164.11 121.494 163.595 121.494 163.069C121.494 162.364 121.774 161.688 122.271 161.19C122.769 160.692 123.444 160.41 124.148 160.408Z" fill="black"/>
<path d="M109.312 113.647L113.177 115.475L112.982 115.891V118.11L104.867 128.475V115.891C106.394 115.234 107.878 114.485 109.312 113.647Z" fill="black"/>
<path d="M96.0836 118.747L96.1588 119.088C92.5684 127.231 87.9989 135.312 82.6455 139.808C80.9075 141.266 79.2355 142.744 77.6293 144.24C77.0238 135.361 76.371 126.377 75.7461 119.088C78.8252 119.649 81.9487 119.93 85.0785 119.928C88.7788 119.935 92.4688 119.537 96.0836 118.747Z" fill="black"/>
<path d="M70.9111 159.451C72.2319 156.356 74.2685 153.621 76.8528 151.467C77.2479 151.162 77.643 150.855 78.0467 150.563C84.4226 146.079 91.3701 142.467 98.7042 139.826C98.5088 140.243 91.0467 156.049 83.8875 162.088C82.2276 163.483 80.5656 164.735 78.9958 165.953C77.4027 167.164 75.8959 168.485 74.4864 169.906C72.9302 171.437 71.6994 173.269 70.8675 175.287C70.0354 177.306 69.6192 179.473 69.6442 181.656V182.011H66.582V181.656C66.6209 177.911 66.9701 174.177 67.6256 170.49C68.2503 166.687 69.3543 162.977 70.9111 159.451Z" fill="#2F4E37"/>
<path d="M79.7569 181.656V182.01H76.0334C75.8524 177.939 75.3314 173.891 74.4766 169.905C75.8863 168.484 77.3931 167.163 78.986 165.952C79.4648 174.013 79.7569 180.043 79.7569 181.656Z" fill="black"/>
<path d="M78.0462 150.556C77.6425 150.855 77.2474 151.162 76.8523 151.467C74.268 153.62 72.2317 156.356 70.9106 159.45C70.0839 158.162 69.0617 156.734 67.8807 155.143C65.1364 151.432 61.5804 146.916 57.932 141.898C53.5388 136.014 49.6171 129.793 46.2032 123.291C46.2032 123.291 46.1818 123.257 46.1474 123.195C45.6342 122.173 45.1467 121.159 44.6829 120.13C29.4861 86.6125 39.3317 53.1934 39.3317 53.1934C44.5416 57.9454 49.4296 63.0387 53.9637 68.4395C51.1155 70.9594 48.8202 74.0422 47.223 77.4934C45.6256 80.9444 44.7606 84.6893 44.6829 88.4914C44.6829 103.353 57.932 115.812 75.7464 119.091C76.3713 126.379 77.0241 135.364 77.6296 144.243C77.7692 146.36 77.9152 148.471 78.0462 150.556Z" fill="#2F4E37"/>
<path d="M66.1314 157.782C66.1314 157.782 67.2717 164.57 67.6346 170.484C66.979 174.171 66.6298 177.905 66.591 181.65V182.004H63.5396V181.65C64.6133 174.465 63.5117 166.378 63.5396 162.556C64.3133 160.917 65.1787 159.324 66.1314 157.782Z" fill="black"/>
<path d="M67.8815 155.143C67.2716 156.002 66.6876 156.887 66.1314 157.783C65.1786 159.324 64.3135 160.918 63.5396 162.556C60.7233 168.644 59.2427 175.264 59.1976 181.97V182.005H57.9736C57.8996 174.549 57.1297 167.117 55.6738 159.803C56.376 156.127 56.7475 151.959 57.1963 147.705C57.3981 145.787 57.6129 143.851 57.877 141.939L57.9328 141.896C61.5812 146.919 65.1372 151.429 67.8815 155.143Z" fill="#2F4E37"/>
<path d="M57.9733 182.01H52.562C52.2077 163.597 39.7574 157.782 27.2921 147.277C14.408 136.431 1 107.798 1 107.798C14.4022 112.625 27.0672 119.295 38.63 127.614C38.9904 127.918 39.3659 128.206 39.7553 128.472C48.7741 135.546 53.3673 148.331 55.6735 159.802C57.1299 167.116 57.8997 174.552 57.9733 182.01Z" fill="#2F4E37"/>
<path d="M57.931 141.898L57.8752 141.941C57.6111 143.852 57.3964 145.789 57.1945 147.706C55.9576 139.501 49.3846 135.138 39.7559 128.475C39.3801 128.183 39.0108 127.891 38.6286 127.616C29.8953 120.293 27.166 102.43 27.166 102.43C37.1641 108.307 45.397 121.932 46.1464 123.197C46.1808 123.259 46.2022 123.293 46.2022 123.293C49.6161 129.793 53.5378 136.014 57.931 141.898Z" fill="black"/>
<path d="M104.875 115.891C106.399 115.234 107.882 114.484 109.314 113.647L113.179 115.474L132.075 124.369L119.836 104.519C120.349 103.844 120.836 103.157 121.281 102.446C121.908 101.472 122.472 100.458 122.969 99.4101C124.549 96.1416 125.402 92.5695 125.468 88.9396C125.468 88.7936 125.468 88.6412 125.468 88.4887C125.468 88.1344 125.468 87.7801 125.44 87.4258" stroke="black" stroke-width="0.694666" stroke-linecap="round" stroke-linejoin="round"/>
<path d="M125.445 87.343C125.397 86.2784 125.278 85.2182 125.091 84.1692C123.562 76.7098 119.23 70.1213 112.987 65.7622C110.469 63.8968 107.746 62.3254 104.872 61.0788C98.6228 58.3826 91.8831 57.0109 85.0775 57.0504C73.6455 56.8067 62.5394 60.869 53.9625 68.4313C51.1142 70.951 48.8189 74.0338 47.2215 77.485C45.6243 80.9362 44.7594 84.6809 44.6816 88.4833C44.6816 103.345 57.9308 115.804 75.7451 119.083C78.8242 119.643 81.9478 119.924 85.0775 119.922C88.7778 119.929 92.4678 119.532 96.0827 118.741C99.0984 118.082 102.042 117.129 104.872 115.894" stroke="black" stroke-width="0.694666" stroke-linecap="round" stroke-linejoin="round"/>
<path d="M322.846 52.5256L324.819 48.4692C323.945 47.3294 323.155 46.1265 322.457 44.8703C321.519 43.1885 320.769 41.4083 320.222 39.562C319.543 37.3198 319.191 34.9908 319.178 32.6476C319.178 32.5789 319.178 32.5166 319.178 32.4457C319.178 30.7704 319.346 29.0991 319.681 27.4575C320.101 25.4108 320.769 23.423 321.669 21.5372C327.366 9.54644 342.185 1 359.57 1C381.872 1 399.959 15.0759 399.959 32.4457C399.959 49.8156 381.872 63.8872 359.57 63.8872C356.033 63.8932 352.507 63.5275 349.048 62.7963C346.273 62.2279 343.557 61.4042 340.933 60.3355C339.007 59.5601 337.141 58.6451 335.35 57.5976L316.453 65.6587L319.386 59.6462L322.859 52.5234" stroke="black" stroke-width="0.694666" stroke-linecap="round" stroke-linejoin="round"/>
<path d="M340.844 157.943L328.761 153.85L333.854 168.268C332.274 170.32 330.983 172.582 330.019 174.987C328.827 177.946 328.213 181.107 328.211 184.295C328.254 189.836 330.06 195.219 333.365 199.666C340.277 209.254 353.472 215.737 368.611 215.737C390.916 215.737 409.001 201.659 409.001 184.295C409.001 166.932 390.916 152.856 368.611 152.856C361.892 152.822 355.237 154.157 349.053 156.781C347.447 157.473 345.886 158.261 344.376 159.144L340.844 157.943Z" stroke="black" stroke-width="0.694666" stroke-linecap="round" stroke-linejoin="round"/>
<path d="M104.875 61.0783V33.8629C104.875 30.594 106.174 27.4588 108.485 25.1472C110.797 22.8358 113.932 21.5371 117.201 21.5371H321.675" stroke="black" stroke-width="0.694666" stroke-linecap="round" stroke-linejoin="round"/>
<path d="M204.37 199.666H117.201C113.932 199.666 110.797 198.367 108.485 196.056C106.174 193.744 104.875 190.609 104.875 187.34V115.892" stroke="black" stroke-width="0.694666" stroke-linecap="round" stroke-linejoin="round"/>
<path d="M333.361 199.666H318.561H249.561" stroke="black" stroke-width="0.694666" stroke-linecap="round" stroke-linejoin="round"/>
<path d="M349.049 62.8027V78.8241V156.781" stroke="black" stroke-width="0.694666" stroke-linecap="round" stroke-linejoin="round"/>
<path d="M112.99 65.771V36.595C112.991 34.1719 113.954 31.8483 115.667 30.1347C117.38 28.4213 119.704 27.4587 122.127 27.458H319.683" stroke="black" stroke-width="0.694666" stroke-linecap="round" stroke-linejoin="round"/>
<path d="M330.02 174.987H122.127C119.704 174.987 117.38 174.022 115.667 172.309C113.954 170.597 112.991 168.272 112.99 165.85V115.892" stroke="black" stroke-width="0.694666" stroke-linecap="round" stroke-linejoin="round"/>
<path d="M340.932 60.3447V64.0124V157.671" stroke="black" stroke-width="0.694666" stroke-linecap="round" stroke-linejoin="round"/>
<path d="M112.99 44.8701H322.466" stroke="black" stroke-width="0.694666" stroke-linecap="round" stroke-linejoin="round"/>
<path d="M320.061 39.6101H145.748V32.6484H319.123" stroke="black" stroke-width="0.694666" stroke-linecap="round" stroke-linejoin="round"/>
<path d="M233.732 187.325C233.732 188.665 233.337 189.973 232.594 191.087C231.851 192.202 230.793 193.069 229.556 193.582C228.319 194.095 226.96 194.231 225.646 193.971C224.331 193.709 223.125 193.067 222.178 192.12C221.231 191.173 220.584 189.968 220.322 188.654C220.06 187.342 220.193 185.978 220.705 184.742C221.216 183.505 222.083 182.446 223.198 181.701C224.31 180.958 225.618 180.559 226.958 180.559C228.753 180.559 230.475 181.269 231.746 182.538C233.015 183.808 233.73 185.53 233.732 187.325Z" stroke="black" stroke-width="0.694666" stroke-linecap="round" stroke-linejoin="round"/>
<path d="M197.412 230.319L204.361 199.666H249.558L253.574 217.39L256.507 230.319" stroke="black" stroke-width="0.694666" stroke-linecap="round" stroke-linejoin="round"/>
<path d="M252.365 230.319H203.326" stroke="black" stroke-width="0.694666" stroke-linecap="round" stroke-linejoin="round"/>
<path d="M204.363 199.666L253.576 217.39" stroke="black" stroke-width="0.694666" stroke-linecap="round" stroke-linejoin="round"/>
<path d="M178.715 230.319H189.43" stroke="black" stroke-width="0.694666" stroke-linecap="round" stroke-linejoin="round"/>
<path d="M192.615 230.319H197.415H203.328" stroke="black" stroke-width="0.694666" stroke-linecap="round" stroke-linejoin="round"/>
<path d="M25.8594 230.319H36.5746" stroke="black" stroke-width="0.694666" stroke-linecap="round" stroke-linejoin="round"/>
<path d="M78.4277 230.319H106.053" stroke="black" stroke-width="0.694666" stroke-linecap="round" stroke-linejoin="round"/>
<path d="M39.7578 230.319H54.2503" stroke="black" stroke-width="0.694666" stroke-linecap="round" stroke-linejoin="round"/>
<path d="M252.365 230.319H256.507H263.078" stroke="black" stroke-width="0.694666" stroke-linecap="round" stroke-linejoin="round"/>
<path d="M266.262 230.319H276.977" stroke="black" stroke-width="0.694666" stroke-linecap="round" stroke-linejoin="round"/>
<path d="M132.332 40.4171L139.44 36.3178L132.332 32.21" stroke="black" stroke-width="0.694666" stroke-linecap="round" stroke-linejoin="round"/>
<path d="M127.739 32.21L120.625 36.3178L127.739 40.4171" stroke="black" stroke-width="0.694666" stroke-linecap="round" stroke-linejoin="round"/>
<path d="M340.932 64.0117L349.046 78.8241" stroke="black" stroke-width="0.694666" stroke-linecap="round" stroke-linejoin="round"/>
<path d="M325.473 174.986L318.561 199.666" stroke="black" stroke-width="0.694666" stroke-linecap="round" stroke-linejoin="round"/>
<path d="M112.99 118.109L104.875 128.475" stroke="black" stroke-width="0.694666" stroke-linecap="round" stroke-linejoin="round"/>
<path d="M78.4294 230.32H54.2503C50.4067 230.32 46.7204 228.793 44.0027 226.074C41.2848 223.358 39.7578 219.671 39.7578 215.827V182.011H92.9218V215.827C92.9214 219.671 91.3942 223.356 88.6765 226.074C85.9588 228.793 82.2729 230.32 78.4294 230.32Z" stroke="black" stroke-width="0.694666" stroke-linecap="round" stroke-linejoin="round"/>
<path d="M57.9733 182.01C57.8997 174.552 57.1299 167.116 55.6735 159.802C53.3673 148.331 48.7741 135.537 39.7574 128.472C39.3816 128.18 39.0123 127.888 38.63 127.614C27.0672 119.295 14.4022 112.625 1 107.798C1 107.798 14.4101 136.431 27.2921 147.277C39.7574 157.782 52.2013 163.597 52.562 182.01" stroke="black" stroke-width="0.694666" stroke-linecap="round" stroke-linejoin="round"/>
<path d="M63.5392 162.562C60.723 168.65 59.2424 175.27 59.1973 181.977" stroke="black" stroke-width="0.694666" stroke-linecap="round" stroke-linejoin="round"/>
<path d="M67.881 155.144C67.2711 156.002 66.6871 156.887 66.1309 157.783C65.1781 159.324 64.3128 160.918 63.5391 162.556" stroke="black" stroke-width="0.694666" stroke-linecap="round" stroke-linejoin="round"/>
<path d="M96.1584 119.09C92.568 127.233 87.9984 135.313 82.6451 139.81C80.9073 141.268 79.2351 142.745 77.6289 144.242" stroke="black" stroke-width="0.694666" stroke-linecap="round" stroke-linejoin="round"/>
<path d="M55.6738 159.803C56.376 156.127 56.7475 151.959 57.1963 147.705C57.3981 145.788 57.6129 143.851 57.877 141.939" stroke="black" stroke-width="0.694666" stroke-linecap="round" stroke-linejoin="round"/>
<path d="M98.7193 139.809C98.5174 140.238 91.0554 156.038 83.9026 162.077C82.2427 163.472 80.5806 164.724 79.0109 165.942C77.418 167.153 75.9112 168.474 74.5015 169.895C72.9455 171.426 71.7147 173.258 70.8826 175.276C70.0505 177.295 69.6345 179.461 69.6592 181.645" stroke="black" stroke-width="0.694666" stroke-linecap="round" stroke-linejoin="round"/>
<path d="M78.0469 150.556C84.4228 146.072 91.3703 142.461 98.7043 139.819" stroke="black" stroke-width="0.694666" stroke-linecap="round" stroke-linejoin="round"/>
<path d="M66.582 181.656C66.6209 177.911 66.9701 174.177 67.6256 170.49C68.2507 166.689 69.3547 162.981 70.9111 159.457C72.2319 156.363 74.2685 153.627 76.8528 151.473C77.2479 151.168 77.643 150.861 78.0467 150.569" stroke="black" stroke-width="0.694666" stroke-linecap="round" stroke-linejoin="round"/>
<path d="M74.4766 169.906C75.3314 173.892 75.8524 177.939 76.0334 182.011" stroke="black" stroke-width="0.694666" stroke-linecap="round" stroke-linejoin="round"/>
<path d="M46.2031 123.298C49.617 129.8 53.5387 136.021 57.9319 141.905C61.5824 146.923 65.1363 151.439 67.8806 155.149C69.0616 156.741 70.0838 158.177 70.9105 159.457" stroke="black" stroke-width="0.694666" stroke-linecap="round" stroke-linejoin="round"/>
<path d="M53.9637 68.4376C49.4296 63.0368 44.5416 57.9435 39.3317 53.1914C39.3317 53.1914 29.4861 86.6105 44.6829 120.128C45.1467 121.157 45.6342 122.171 46.1474 123.193" stroke="black" stroke-width="0.694666" stroke-linecap="round" stroke-linejoin="round"/>
<path d="M78.0459 150.569C77.9149 148.478 77.7689 146.367 77.6293 144.248C77.0238 135.368 76.371 126.384 75.7461 119.096" stroke="black" stroke-width="0.694666" stroke-linecap="round" stroke-linejoin="round"/>
<path d="M79.7566 181.656C79.7566 180.043 79.4646 174.013 78.9922 165.952" stroke="black" stroke-width="0.694666" stroke-linecap="round" stroke-linejoin="round"/>
<path d="M46.2022 123.298C46.2022 123.298 46.1808 123.264 46.1464 123.202C45.397 121.937 37.1641 108.312 27.166 102.435C27.166 102.435 29.8953 120.298 38.6286 127.621C38.9891 127.926 39.3655 128.213 39.7559 128.48C49.3846 135.136 55.9576 139.506 57.1945 147.711" stroke="black" stroke-width="0.694666" stroke-linecap="round" stroke-linejoin="round"/>
<path d="M63.5396 162.557C63.5117 166.379 64.6133 174.466 63.5396 181.651" stroke="black" stroke-width="0.694666" stroke-linecap="round" stroke-linejoin="round"/>
<path d="M66.1328 157.782C66.1328 157.782 67.2731 164.57 67.636 170.484" stroke="black" stroke-width="0.694666" stroke-linecap="round" stroke-linejoin="round"/>
<path d="M135.885 49.8369V167.342" stroke="black" stroke-width="0.694666" stroke-linecap="round" stroke-linejoin="round"/>
<path d="M192.634 59.6487H144.978C144.029 59.6481 143.12 59.271 142.449 58.6004C141.778 57.9296 141.401 57.0199 141.4 56.0712C141.403 55.1236 141.78 54.2153 142.451 53.5455C143.121 52.876 144.03 52.4991 144.978 52.498H192.634C193.582 52.498 194.492 52.8747 195.162 53.5453C195.833 54.2157 196.209 55.1251 196.209 56.0734C196.209 57.0216 195.833 57.931 195.162 58.6014C194.492 59.2721 193.582 59.6487 192.634 59.6487Z" stroke="black" stroke-width="0.694666" stroke-linecap="round" stroke-linejoin="round"/>
<path d="M322.845 52.526C322.741 52.526 322.658 52.498 322.561 52.498H212.372C211.423 52.498 210.515 52.8747 209.845 53.5453C209.173 54.2157 208.797 55.1251 208.797 56.0734C208.797 57.0216 209.173 57.931 209.845 58.6014C210.515 59.2721 211.423 59.6487 212.372 59.6487H319.372L322.845 52.526Z" stroke="black" stroke-width="0.694666" stroke-linecap="round" stroke-linejoin="round"/>
<path d="M126.809 56.0709C126.808 56.5964 126.652 57.1098 126.359 57.5464C126.066 57.9829 125.651 58.3231 125.165 58.5236C124.68 58.7242 124.145 58.7764 123.63 58.6735C123.115 58.5706 122.641 58.3173 122.27 57.9455C121.899 57.5738 121.646 57.1004 121.543 56.585C121.441 56.0694 121.493 55.5351 121.694 55.0496C121.895 54.5641 122.236 54.149 122.672 53.8568C123.109 53.5648 123.623 53.4086 124.148 53.4082C124.498 53.4076 124.845 53.4761 125.168 53.6096C125.491 53.7434 125.784 53.9395 126.032 54.1868C126.279 54.4342 126.475 54.728 126.608 55.0514C126.741 55.3745 126.81 55.7211 126.809 56.0709Z" stroke="black" stroke-width="0.694666" stroke-linecap="round" stroke-linejoin="round"/>
<path d="M220.427 74.9338H144.977C144.501 74.9456 144.026 74.8616 143.582 74.6872C143.139 74.5129 142.734 74.2515 142.393 73.9185C142.052 73.5854 141.78 73.1875 141.595 72.748C141.41 72.3086 141.314 71.8364 141.314 71.3595C141.314 70.8826 141.41 70.4106 141.595 69.9712C141.78 69.5317 142.052 69.1338 142.393 68.8007C142.734 68.4677 143.139 68.2061 143.582 68.0318C144.026 67.8574 144.501 67.7736 144.977 67.7852H220.427C220.903 67.7736 221.378 67.8574 221.822 68.0318C222.265 68.2061 222.671 68.4677 223.012 68.8007C223.353 69.1338 223.624 69.5317 223.809 69.9712C223.993 70.4106 224.09 70.8826 224.09 71.3595C224.09 71.8364 223.993 72.3086 223.809 72.748C223.624 73.1875 223.353 73.5854 223.012 73.9185C222.671 74.2515 222.265 74.5129 221.822 74.6872C221.378 74.8616 220.903 74.9456 220.427 74.9338Z" stroke="black" stroke-width="0.694666" stroke-linecap="round" stroke-linejoin="round"/>
<path d="M322.563 74.9338H240.166C239.459 74.9353 238.765 74.7263 238.177 74.334C237.589 73.9415 237.131 73.3832 236.859 72.7295C236.588 72.0761 236.519 71.3569 236.657 70.6631C236.796 69.9695 237.138 69.3326 237.638 68.8331C237.969 68.4994 238.362 68.2349 238.796 68.055C239.229 67.875 239.695 67.7833 240.166 67.7852H322.563C323.04 67.7736 323.515 67.8574 323.959 68.0318C324.402 68.2061 324.807 68.4677 325.149 68.8007C325.49 69.1338 325.761 69.5317 325.946 69.9712C326.13 70.4106 326.227 70.8826 326.227 71.3595C326.227 71.8364 326.13 72.3086 325.946 72.748C325.761 73.1875 325.49 73.5854 325.149 73.9185C324.807 74.2515 324.402 74.5129 323.959 74.6872C323.515 74.8616 323.04 74.9456 322.563 74.9338Z" stroke="black" stroke-width="0.694666" stroke-linecap="round" stroke-linejoin="round"/>
<path d="M126.809 71.3549C126.808 71.8804 126.652 72.3942 126.36 72.831C126.068 73.2678 125.653 73.6081 125.167 73.8091C124.681 74.0101 124.147 74.0625 123.631 73.9598C123.116 73.8572 122.642 73.604 122.271 73.2325C121.899 72.8608 121.646 72.3873 121.543 71.8718C121.441 71.3564 121.493 70.8219 121.694 70.3364C121.895 69.8507 122.235 69.4354 122.672 69.1431C123.109 68.8509 123.623 68.6948 124.148 68.6943C124.498 68.6937 124.844 68.7622 125.167 68.8955C125.49 69.0291 125.784 69.2252 126.031 69.4723C126.278 69.7195 126.474 70.013 126.607 70.336C126.741 70.6592 126.81 71.0053 126.809 71.3549Z" stroke="black" stroke-width="0.694666" stroke-linecap="round" stroke-linejoin="round"/>
<path d="M178.738 90.2288H144.978C144.029 90.2275 143.12 89.85 142.449 89.1789C141.778 88.5077 141.401 87.5979 141.4 86.6492C141.403 85.7018 141.781 84.7941 142.452 84.1249C143.122 83.4556 144.03 83.0792 144.978 83.0781H178.738C179.687 83.0781 180.596 83.4548 181.267 84.1252C181.937 84.7958 182.314 85.7052 182.314 86.6535C182.314 87.6017 181.937 88.5111 181.267 89.1815C180.596 89.8519 179.687 90.2288 178.738 90.2288Z" stroke="black" stroke-width="0.694666" stroke-linecap="round" stroke-linejoin="round"/>
<path d="M322.562 90.2288H198.476C197.527 90.2271 196.618 89.8493 195.947 89.1783C195.277 88.5073 194.9 87.5979 194.898 86.6492C194.903 85.7022 195.281 84.7951 195.951 84.126C196.621 83.4571 197.529 83.0803 198.476 83.0781H322.562C323.512 83.0781 324.42 83.4548 325.09 84.1252C325.762 84.7958 326.138 85.7052 326.138 86.6535C326.138 87.6017 325.762 88.5111 325.09 89.1815C324.42 89.8519 323.512 90.2288 322.562 90.2288Z" stroke="black" stroke-width="0.694666" stroke-linecap="round" stroke-linejoin="round"/>
<path d="M125.476 88.4894C125.476 88.6419 125.476 88.7943 125.461 88.9403C125.899 88.6934 126.257 88.3264 126.494 87.8828C126.73 87.4389 126.835 86.9369 126.796 86.4355C126.756 85.9343 126.575 85.4546 126.272 85.053C125.969 84.6515 125.558 84.3448 125.087 84.1689H125.072C125.262 85.2209 125.386 86.2839 125.442 87.3513V87.4372C125.467 87.7808 125.476 88.1351 125.476 88.4894Z" stroke="black" stroke-width="0.694666" stroke-linecap="round" stroke-linejoin="round"/>
<path d="M262.116 105.505H144.978C144.029 105.505 143.12 105.127 142.449 104.457C141.778 103.786 141.401 102.876 141.4 101.927C141.402 100.98 141.78 100.072 142.45 99.402C143.121 98.7324 144.03 98.3564 144.978 98.3564H262.116C263.048 98.3794 263.934 98.7659 264.587 99.4338C265.238 100.102 265.603 100.998 265.603 101.931C265.603 102.864 265.238 103.76 264.587 104.428C263.934 105.095 263.048 105.482 262.116 105.505Z" stroke="black" stroke-width="0.694666" stroke-linecap="round" stroke-linejoin="round"/>
<path d="M322.564 105.505H281.855C280.906 105.504 279.997 105.127 279.325 104.457C278.655 103.786 278.277 102.876 278.277 101.928C278.279 100.98 278.657 100.072 279.327 99.4021C279.997 98.7326 280.908 98.3566 281.855 98.3566H322.564C323.041 98.3448 323.515 98.4287 323.96 98.6031C324.402 98.7774 324.808 99.0388 325.15 99.3718C325.491 99.7049 325.762 100.103 325.946 100.542C326.131 100.982 326.228 101.454 326.228 101.931C326.228 102.408 326.131 102.88 325.946 103.319C325.762 103.759 325.491 104.157 325.15 104.49C324.808 104.823 324.402 105.084 323.96 105.259C323.515 105.433 323.041 105.517 322.564 105.505Z" stroke="black" stroke-width="0.694666" stroke-linecap="round" stroke-linejoin="round"/>
<path d="M123.076 99.4626C123.291 99.2479 123.965 99.2629 124.15 99.2629C124.855 99.2629 125.532 99.5432 126.031 100.042C126.53 100.541 126.81 101.218 126.81 101.923C126.81 102.629 126.53 103.306 126.031 103.805C125.532 104.304 124.855 104.584 124.15 104.584C123.582 104.571 123.034 104.379 122.582 104.036C122.13 103.692 121.798 103.216 121.633 102.673" stroke="black" stroke-width="0.694666" stroke-linecap="round" stroke-linejoin="round"/>
<path d="M171.79 120.792H144.978C144.029 120.79 143.12 120.414 142.449 119.742C141.778 119.072 141.401 118.162 141.4 117.213C141.403 116.266 141.781 115.357 142.452 114.687C143.122 114.02 144.03 113.644 144.978 113.642H171.79C172.738 113.642 173.647 114.017 174.318 114.69C174.988 115.359 175.365 116.268 175.365 117.217C175.365 118.166 174.988 119.074 174.318 119.744C173.647 120.416 172.738 120.792 171.79 120.792Z" stroke="black" stroke-width="0.694666" stroke-linecap="round" stroke-linejoin="round"/>
<path d="M322.562 120.792H191.529C190.58 120.79 189.67 120.414 188.999 119.742C188.328 119.072 187.95 118.162 187.949 117.213C187.953 116.266 188.332 115.357 189.002 114.69C189.673 114.02 190.581 113.644 191.529 113.642H322.562C323.511 113.642 324.419 114.017 325.089 114.69C325.762 115.359 326.137 116.268 326.137 117.217C326.137 118.166 325.762 119.074 325.089 119.744C324.419 120.416 323.511 120.792 322.562 120.792Z" stroke="black" stroke-width="0.694666" stroke-linecap="round" stroke-linejoin="round"/>
<path d="M234.323 136.077H144.978C144.029 136.077 143.12 135.699 142.449 135.029C141.778 134.357 141.401 133.449 141.4 132.5C141.402 131.553 141.78 130.644 142.45 129.974C143.121 129.304 144.03 128.929 144.978 128.929H234.323C235.254 128.952 236.141 129.339 236.794 130.007C237.445 130.675 237.81 131.57 237.81 132.504C237.81 133.436 237.445 134.331 236.794 134.999C236.141 135.667 235.254 136.054 234.323 136.077Z" stroke="black" stroke-width="0.694666" stroke-linecap="round" stroke-linejoin="round"/>
<path d="M322.562 136.077H254.062C253.113 136.077 252.202 135.699 251.532 135.029C250.86 134.357 250.485 133.449 250.482 132.5C250.485 131.553 250.865 130.644 251.535 129.974C252.205 129.304 253.115 128.929 254.062 128.929H322.562C323.494 128.952 324.381 129.339 325.034 130.007C325.685 130.675 326.05 131.57 326.05 132.504C326.05 133.436 325.685 134.331 325.034 134.999C324.381 135.667 323.494 136.054 322.562 136.077Z" stroke="black" stroke-width="0.694666" stroke-linecap="round" stroke-linejoin="round"/>
<path d="M126.809 132.5C126.808 133.026 126.652 133.539 126.359 133.975C126.066 134.411 125.651 134.752 125.165 134.952C124.68 135.154 124.145 135.205 123.63 135.102C123.115 134.999 122.641 134.746 122.27 134.374C121.899 134.003 121.646 133.528 121.543 133.013C121.441 132.497 121.493 131.965 121.694 131.477C121.895 130.992 122.236 130.578 122.672 130.286C123.109 129.994 123.623 129.837 124.148 129.837C124.498 129.837 124.845 129.906 125.168 130.039C125.491 130.172 125.784 130.367 126.032 130.616C126.279 130.863 126.475 131.158 126.608 131.48C126.741 131.804 126.81 132.15 126.809 132.5Z" stroke="black" stroke-width="0.694666" stroke-linecap="round" stroke-linejoin="round"/>
<path d="M282.962 151.361H144.978C144.029 151.361 143.12 150.983 142.449 150.313C141.778 149.641 141.401 148.733 141.4 147.784C141.403 146.837 141.781 145.929 142.452 145.259C143.122 144.591 144.03 144.215 144.978 144.213H282.962C283.894 144.237 284.781 144.623 285.434 145.291C286.084 145.959 286.449 146.854 286.449 147.786C286.449 148.72 286.084 149.616 285.434 150.283C284.781 150.951 283.894 151.338 282.962 151.361Z" stroke="black" stroke-width="0.694666" stroke-linecap="round" stroke-linejoin="round"/>
<path d="M322.564 151.362H302.699C301.749 151.362 300.841 150.984 300.169 150.314C299.499 149.642 299.121 148.734 299.121 147.785C299.123 146.838 299.501 145.93 300.173 145.26C300.843 144.592 301.752 144.216 302.699 144.214H322.564C323.04 144.203 323.515 144.287 323.959 144.461C324.402 144.635 324.808 144.897 325.149 145.23C325.491 145.562 325.761 145.96 325.946 146.4C326.13 146.84 326.227 147.31 326.227 147.789C326.227 148.266 326.13 148.736 325.946 149.176C325.761 149.617 325.491 150.014 325.149 150.347C324.808 150.679 324.402 150.941 323.959 151.115C323.515 151.289 323.04 151.373 322.564 151.362Z" stroke="black" stroke-width="0.694666" stroke-linecap="round" stroke-linejoin="round"/>
<path d="M126.809 147.778C126.808 148.304 126.652 148.817 126.36 149.253C126.068 149.691 125.653 150.03 125.167 150.232C124.681 150.434 124.147 150.486 123.631 150.382C123.116 150.279 122.642 150.026 122.271 149.655C121.899 149.283 121.646 148.811 121.543 148.295C121.441 147.78 121.493 147.245 121.694 146.76C121.895 146.275 122.235 145.858 122.672 145.566C123.109 145.274 123.623 145.117 124.148 145.117C124.498 145.117 124.844 145.186 125.167 145.319C125.49 145.452 125.784 145.648 126.031 145.895C126.278 146.141 126.474 146.436 126.607 146.76C126.741 147.082 126.81 147.428 126.809 147.778Z" stroke="black" stroke-width="0.694666" stroke-linecap="round" stroke-linejoin="round"/>
<path d="M192.634 166.649H144.978C144.029 166.647 143.12 166.271 142.449 165.599C141.778 164.929 141.401 164.018 141.4 163.069C141.403 162.122 141.781 161.214 142.452 160.544C143.122 159.876 144.03 159.5 144.978 159.498H192.634C193.582 159.498 194.492 159.874 195.162 160.546C195.833 161.216 196.209 162.124 196.209 163.073C196.209 164.023 195.833 164.931 195.162 165.601C194.492 166.273 193.582 166.649 192.634 166.649Z" stroke="black" stroke-width="0.694666" stroke-linecap="round" stroke-linejoin="round"/>
<path d="M322.561 166.649H212.373C211.423 166.647 210.513 166.271 209.843 165.599C209.171 164.929 208.795 164.018 208.793 163.069C208.797 162.122 209.175 161.214 209.847 160.546C210.517 159.876 211.426 159.5 212.373 159.498H322.561C323.511 159.498 324.419 159.874 325.089 160.546C325.761 161.216 326.137 162.124 326.137 163.073C326.137 164.023 325.761 164.931 325.089 165.601C324.419 166.273 323.511 166.649 322.561 166.649Z" stroke="black" stroke-width="0.694666" stroke-linecap="round" stroke-linejoin="round"/>
<path d="M126.809 163.07C126.808 163.596 126.652 164.109 126.36 164.545C126.068 164.983 125.653 165.322 125.167 165.524C124.681 165.726 124.147 165.778 123.631 165.674C123.116 165.571 122.642 165.318 122.271 164.947C121.899 164.575 121.646 164.103 121.543 163.587C121.441 163.072 121.493 162.537 121.694 162.052C121.895 161.567 122.235 161.15 122.672 160.858C123.109 160.566 123.623 160.409 124.148 160.409C124.498 160.409 124.844 160.478 125.167 160.611C125.49 160.744 125.783 160.942 126.03 161.189C126.277 161.436 126.473 161.728 126.607 162.052C126.741 162.374 126.809 162.72 126.809 163.07Z" stroke="black" stroke-width="0.694666" stroke-linecap="round" stroke-linejoin="round"/>
<path d="M76.3995 88.3226C76.3157 88.3226 76.2341 88.3226 76.1504 88.3226C76.0666 88.3226 75.9764 88.3226 75.8927 88.3226C73.3131 88.1907 70.887 87.0565 69.1318 85.1615C67.3767 83.2664 66.4313 80.7605 66.4974 78.1783C66.5635 75.5961 67.6359 73.1421 69.4856 71.3392C71.3356 69.5365 73.8164 68.5279 76.3995 68.5283" stroke="black" stroke-width="1.04254" stroke-linecap="round" stroke-linejoin="round"/>
<path d="M62.3379 88.3096H76.4009C76.3171 88.3096 76.2355 88.3096 76.1518 88.3096C73.5548 88.3854 71.0915 89.4786 69.2931 91.3539C67.4947 93.2289 66.5052 95.7355 66.5379 98.3336C66.5705 100.931 67.6227 103.413 69.4677 105.242C71.3127 107.071 73.8028 108.102 76.4009 108.112" stroke="black" stroke-width="1.04254" stroke-linecap="round" stroke-linejoin="round"/>
<path d="M94.1797 88.3226C94.2634 88.3226 94.3536 88.3226 94.4374 88.3226C94.5211 88.3226 94.6049 88.3226 94.6865 88.3226C97.2661 88.1907 99.6924 87.0565 101.447 85.1615C103.203 83.2664 104.148 80.7605 104.082 78.1783C104.016 75.5961 102.943 73.1421 101.093 71.3392C99.2438 69.5365 96.7627 68.5279 94.1797 68.5283" stroke="black" stroke-width="1.04254" stroke-linecap="round" stroke-linejoin="round"/>
<path d="M108.243 88.3096H94.1797C94.2634 88.3096 94.3536 88.3096 94.4374 88.3096C97.035 88.3856 99.4987 89.4797 101.297 91.3556C103.095 93.2317 104.084 95.7394 104.05 98.3377C104.016 100.936 102.963 103.417 101.116 105.246C99.2698 107.074 96.7784 108.104 94.1797 108.112" stroke="black" stroke-width="1.04254" stroke-linecap="round" stroke-linejoin="round"/>
<path d="M368.1 44.029L386.977 33.1355L368.1 22.2334" stroke="black" stroke-width="1.04254" stroke-linecap="round" stroke-linejoin="round"/>
<path d="M348.721 22.2334L329.844 33.1355L348.721 44.029" stroke="black" stroke-width="1.04254" stroke-linecap="round" stroke-linejoin="round"/>
<path d="M363.786 17.3076L352.502 48.8027" stroke="black" stroke-width="0.694666" stroke-linecap="round" stroke-linejoin="round"/>
<path d="M347.074 197.26L350.132 187.977L357.386 165.952L364.646 187.977L367.704 197.26" stroke="black" stroke-width="1.04254" stroke-linecap="round" stroke-linejoin="round"/>
<path d="M350.133 187.979H364.647" stroke="black" stroke-width="1.04254" stroke-linecap="round" stroke-linejoin="round"/>
<path d="M383.412 191.857C381.419 196.13 377.687 198.611 375.089 197.402C372.491 196.193 372.005 191.739 373.998 187.459C375.991 183.18 379.717 180.706 382.321 181.915C383.122 182.407 383.766 183.117 384.177 183.964C384.589 184.807 384.75 185.752 384.643 186.686C384.61 188.479 384.19 190.242 383.412 191.857Z" stroke="black" stroke-width="0.694666" stroke-linecap="round" stroke-linejoin="round"/>
<path d="M384.636 186.622C384.636 186.644 384.636 186.665 384.636 186.684C385.018 190.444 382.718 200.346 388.716 196.315" stroke="black" stroke-width="0.694666" stroke-linecap="round" stroke-linejoin="round"/>
</svg>
