<svg width="500" height="400" viewBox="0 0 500 400" fill="none" xmlns="http://www.w3.org/2000/svg">
<rect width="500" height="400" rx="20" fill="#FAF3E6"/>
<path d="M367.475 128.871H157.99V120.595C157.991 118.172 158.954 115.848 160.667 114.135C162.38 112.421 164.704 111.459 167.127 111.458H364.683C364.346 113.099 364.176 114.771 364.176 116.446C364.176 116.517 364.176 116.579 364.176 116.648H190.748V123.61H365.061L365.228 123.563C365.78 125.409 366.534 127.189 367.475 128.871Z" fill="#2F4E37"/>
<path d="M271.958 264.559C273.295 264.559 274.605 264.954 275.72 265.699C276.832 266.442 277.7 267.498 278.213 268.735C278.726 269.972 278.859 271.333 278.597 272.648C278.337 273.96 277.693 275.166 276.746 276.113C275.799 277.06 274.592 277.705 273.28 277.964C271.966 278.226 270.605 278.093 269.368 277.58C268.131 277.067 267.075 276.199 266.332 275.087C265.587 273.973 265.191 272.663 265.191 271.325C265.191 269.53 265.906 267.81 267.173 266.541C268.442 265.274 270.163 264.559 271.958 264.559Z" fill="#FAF3E6"/>
<path d="M394.049 162.824V240.773C392.443 241.464 390.881 242.252 389.372 243.135L385.844 241.941L385.934 241.668V148.012L394.049 162.824Z" fill="#FAF3E6"/>
<path d="M394.046 146.803V162.825L385.932 148.008V144.336C388.556 145.404 391.272 146.23 394.046 146.803Z" fill="black"/>
<path d="M378.36 283.666H363.561L370.473 258.986H375.019C373.827 261.945 373.213 265.104 373.211 268.295C373.254 273.835 375.055 279.219 378.36 283.666Z" fill="black"/>
<path d="M370.48 258.986L363.568 283.666H162.201C158.932 283.666 155.797 282.366 153.485 280.056C151.174 277.743 149.875 274.608 149.875 271.34V212.475L157.99 202.109V249.849C157.99 252.271 158.953 254.597 160.667 256.308C162.38 258.022 164.704 258.986 167.127 258.986H370.48ZM278.739 271.325C278.739 269.985 278.344 268.677 277.599 267.563C276.856 266.45 275.8 265.581 274.563 265.067C273.326 264.556 271.965 264.421 270.65 264.681C269.338 264.943 268.131 265.587 267.185 266.532C266.235 267.479 265.591 268.686 265.329 269.998C265.067 271.312 265.2 272.673 265.711 273.91C266.225 275.147 267.09 276.206 268.204 276.951C269.317 277.694 270.625 278.093 271.965 278.093C273.76 278.093 275.48 277.38 276.751 276.111C278.02 274.84 278.733 273.12 278.733 271.325H278.739Z" fill="#FAF3E6"/>
<path d="M367.563 151.785C368.04 151.774 368.515 151.857 368.959 152.032C369.402 152.206 369.807 152.468 370.149 152.801C370.49 153.134 370.761 153.532 370.946 153.971C371.13 154.411 371.227 154.883 371.227 155.359C371.227 155.836 371.13 156.309 370.946 156.748C370.761 157.188 370.49 157.585 370.149 157.918C369.807 158.252 369.402 158.513 368.959 158.687C368.515 158.862 368.04 158.946 367.563 158.934H285.166C284.459 158.935 283.765 158.726 283.177 158.334C282.589 157.941 282.131 157.383 281.859 156.729C281.588 156.076 281.519 155.357 281.657 154.663C281.796 153.97 282.138 153.333 282.638 152.833C282.969 152.499 283.362 152.235 283.796 152.055C284.229 151.875 284.695 151.783 285.166 151.785H367.563Z" fill="#2F4E37"/>
<path d="M367.562 167.07C368.512 167.07 369.42 167.447 370.09 168.117C370.762 168.788 371.138 169.697 371.138 170.646C371.138 171.594 370.762 172.503 370.09 173.174C369.42 173.844 368.512 174.221 367.562 174.221H243.476C242.527 174.219 241.618 173.841 240.947 173.17C240.277 172.499 239.9 171.59 239.898 170.641C239.903 169.694 240.281 168.787 240.951 168.118C241.621 167.449 242.529 167.072 243.476 167.07H367.562Z" fill="black"/>
<path d="M367.564 182.357C368.041 182.345 368.515 182.429 368.96 182.603C369.402 182.777 369.808 183.039 370.15 183.372C370.491 183.705 370.762 184.103 370.946 184.542C371.131 184.982 371.228 185.454 371.228 185.931C371.228 186.408 371.131 186.88 370.946 187.319C370.762 187.759 370.491 188.157 370.15 188.49C369.808 188.823 369.402 189.084 368.96 189.259C368.515 189.433 368.041 189.517 367.564 189.505H326.855C325.906 189.504 324.997 189.127 324.325 188.457C323.655 187.786 323.277 186.876 323.277 185.928C323.279 184.98 323.657 184.072 324.327 183.402C324.997 182.733 325.908 182.357 326.855 182.357H367.564Z" fill="#2F4E37"/>
<path d="M367.562 197.635C368.511 197.635 369.419 198.011 370.089 198.683C370.762 199.353 371.137 200.261 371.137 201.21C371.137 202.159 370.762 203.068 370.089 203.738C369.419 204.41 368.511 204.785 367.562 204.785H236.529C235.58 204.783 234.67 204.408 233.999 203.735C233.328 203.065 232.95 202.155 232.949 201.206C232.953 200.259 233.332 199.351 234.002 198.683C234.673 198.013 235.581 197.637 236.529 197.635H367.562Z" fill="black"/>
<path d="M367.562 212.929C368.494 212.952 369.381 213.339 370.034 214.007C370.685 214.675 371.05 215.57 371.05 216.504C371.05 217.436 370.685 218.331 370.034 218.999C369.381 219.667 368.494 220.054 367.562 220.077H299.062C298.113 220.077 297.202 219.699 296.532 219.029C295.86 218.357 295.485 217.449 295.482 216.5C295.485 215.553 295.865 214.644 296.535 213.974C297.205 213.304 298.115 212.929 299.062 212.929H367.562Z" fill="#2F4E37"/>
<path d="M367.564 228.214C368.04 228.203 368.515 228.287 368.959 228.461C369.402 228.635 369.808 228.897 370.149 229.23C370.491 229.562 370.761 229.96 370.946 230.4C371.13 230.84 371.227 231.31 371.227 231.789C371.227 232.266 371.13 232.736 370.946 233.176C370.761 233.617 370.491 234.014 370.149 234.347C369.808 234.679 369.402 234.941 368.959 235.115C368.515 235.289 368.04 235.373 367.564 235.362H347.699C346.749 235.362 345.841 234.984 345.169 234.314C344.499 233.642 344.121 232.734 344.121 231.785C344.123 230.838 344.501 229.93 345.173 229.26C345.843 228.592 346.752 228.216 347.699 228.214H367.564Z" fill="black"/>
<path d="M367.561 243.498C368.511 243.498 369.419 243.874 370.089 244.546C370.761 245.216 371.137 246.124 371.137 247.073C371.137 248.023 370.761 248.931 370.089 249.601C369.419 250.273 368.511 250.649 367.561 250.649H257.373C256.423 250.647 255.513 250.271 254.843 249.599C254.171 248.929 253.795 248.018 253.793 247.069C253.797 246.122 254.175 245.214 254.847 244.546C255.517 243.876 256.426 243.5 257.373 243.498H367.561Z" fill="#2F4E37"/>
<path d="M367.838 136.526L364.372 143.649H257.372C256.423 143.649 255.515 143.272 254.845 142.601C254.173 141.931 253.797 141.022 253.797 140.073C253.797 139.125 254.173 138.216 254.845 137.545C255.515 136.875 256.423 136.498 257.372 136.498H367.561C367.658 136.498 367.741 136.52 367.838 136.526Z" fill="black"/>
<path d="M162.201 105.537H366.675C365.773 107.422 365.106 109.41 364.683 111.457H167.127C164.704 111.458 162.38 112.421 160.667 114.134C158.953 115.848 157.99 118.171 157.99 120.594V149.762C155.472 147.897 152.75 146.325 149.875 145.078V117.863C149.875 116.244 150.194 114.641 150.813 113.146C151.433 111.651 152.341 110.292 153.485 109.147C154.63 108.003 155.988 107.095 157.484 106.476C158.979 105.856 160.582 105.537 162.201 105.537Z" fill="#FAF3E6"/>
<path d="M365.231 123.563L365.063 123.61H190.748V116.648H364.185C364.198 118.992 364.55 121.321 365.231 123.563Z" fill="black"/>
<path d="M327.962 228.213C328.894 228.237 329.781 228.623 330.434 229.291C331.084 229.959 331.449 230.854 331.449 231.786C331.449 232.72 331.084 233.616 330.434 234.283C329.781 234.951 328.894 235.338 327.962 235.361H189.978C189.029 235.361 188.12 234.983 187.449 234.313C186.778 233.641 186.401 232.733 186.4 231.784C186.403 230.837 186.781 229.929 187.452 229.259C188.122 228.591 189.03 228.215 189.978 228.213H327.962Z" fill="#2F4E37"/>
<path d="M307.116 182.356C308.048 182.379 308.934 182.766 309.587 183.434C310.238 184.102 310.603 184.998 310.603 185.931C310.603 186.864 310.238 187.76 309.587 188.428C308.934 189.095 308.048 189.482 307.116 189.505H189.978C189.029 189.505 188.12 189.127 187.449 188.457C186.778 187.786 186.401 186.876 186.4 185.927C186.402 184.98 186.78 184.072 187.45 183.402C188.121 182.732 189.03 182.356 189.978 182.356H307.116Z" fill="black"/>
<path d="M298.574 301.39L301.507 314.319H297.365H248.326H242.412L249.361 283.666L298.574 301.39Z" fill="#FAF3E6"/>
<path d="M294.561 283.666L298.576 301.39L249.363 283.666H294.561Z" fill="black"/>
<path d="M279.323 212.929C280.254 212.952 281.141 213.339 281.794 214.007C282.445 214.675 282.81 215.57 282.81 216.504C282.81 217.436 282.445 218.331 281.794 218.999C281.141 219.667 280.254 220.054 279.323 220.077H189.978C189.029 220.077 188.12 219.699 187.449 219.029C186.778 218.357 186.401 217.449 186.4 216.5C186.402 215.553 186.78 214.644 187.45 213.974C188.121 213.304 189.03 212.929 189.978 212.929H279.323Z" fill="black"/>
<path d="M265.427 151.785C265.903 151.774 266.378 151.857 266.822 152.032C267.265 152.206 267.671 152.468 268.012 152.801C268.353 153.134 268.624 153.532 268.809 153.971C268.993 154.411 269.09 154.883 269.09 155.359C269.09 155.836 268.993 156.309 268.809 156.748C268.624 157.188 268.353 157.585 268.012 157.918C267.671 158.252 267.265 158.513 266.822 158.687C266.378 158.862 265.903 158.946 265.427 158.934H189.977C189.501 158.946 189.026 158.862 188.582 158.687C188.139 158.513 187.734 158.252 187.393 157.918C187.052 157.585 186.78 157.188 186.595 156.748C186.41 156.309 186.314 155.836 186.314 155.359C186.314 154.883 186.41 154.411 186.595 153.971C186.78 153.532 187.052 153.134 187.393 152.801C187.734 152.468 188.139 152.206 188.582 152.032C189.026 151.857 189.501 151.774 189.977 151.785H265.427Z" fill="black"/>
<path d="M237.634 136.498C238.582 136.498 239.492 136.875 240.162 137.545C240.833 138.216 241.209 139.125 241.209 140.073C241.209 141.022 240.833 141.931 240.162 142.601C239.492 143.272 238.582 143.649 237.634 143.649H189.978C189.029 143.648 188.12 143.271 187.449 142.6C186.778 141.93 186.401 141.02 186.4 140.071C186.403 139.124 186.78 138.215 187.451 137.546C188.121 136.876 189.03 136.499 189.978 136.498H237.634Z" fill="#2F4E37"/>
<path d="M237.634 243.498C238.582 243.498 239.492 243.874 240.162 244.546C240.833 245.216 241.209 246.124 241.209 247.073C241.209 248.023 240.833 248.931 240.162 249.601C239.492 250.273 238.582 250.649 237.634 250.649H189.978C189.029 250.647 188.12 250.271 187.449 249.599C186.778 248.929 186.401 248.018 186.4 247.069C186.403 246.122 186.781 245.214 187.452 244.544C188.122 243.876 189.03 243.5 189.978 243.498H237.634Z" fill="black"/>
<path d="M223.738 167.07C224.687 167.07 225.596 167.447 226.267 168.117C226.937 168.788 227.314 169.697 227.314 170.646C227.314 171.594 226.937 172.503 226.267 173.174C225.596 173.844 224.687 174.221 223.738 174.221H189.978C189.029 174.22 188.12 173.842 187.449 173.171C186.778 172.5 186.401 171.59 186.4 170.641C186.403 169.694 186.781 168.786 187.452 168.117C188.122 167.448 189.03 167.071 189.978 167.07H223.738Z" fill="#2F4E37"/>
<path d="M216.79 197.635C217.738 197.635 218.647 198.011 219.318 198.683C219.988 199.353 220.365 200.261 220.365 201.21C220.365 202.159 219.988 203.068 219.318 203.738C218.647 204.41 217.738 204.785 216.79 204.785H189.978C189.029 204.783 188.12 204.408 187.449 203.735C186.778 203.065 186.401 202.155 186.4 201.206C186.403 200.259 186.781 199.351 187.452 198.683C188.122 198.013 189.03 197.637 189.978 197.635H216.79Z" fill="#2F4E37"/>
<path d="M170.094 168.169C170.565 168.345 170.976 168.651 171.279 169.053C171.581 169.455 171.763 169.934 171.802 170.435C171.841 170.937 171.737 171.439 171.5 171.883C171.264 172.326 170.905 172.693 170.467 172.94C170.467 172.794 170.467 172.642 170.467 172.489C170.467 172.135 170.467 171.781 170.439 171.426V171.343C170.394 170.279 170.278 169.218 170.094 168.169Z" fill="black"/>
<path d="M169.148 137.408C169.675 137.406 170.191 137.561 170.63 137.853C171.069 138.144 171.412 138.559 171.614 139.046C171.817 139.532 171.871 140.068 171.77 140.585C171.668 141.102 171.415 141.577 171.043 141.951C170.671 142.324 170.196 142.578 169.68 142.682C169.163 142.785 168.627 142.733 168.14 142.532C167.653 142.33 167.236 141.989 166.944 141.551C166.65 141.113 166.494 140.598 166.494 140.071C166.494 139.366 166.774 138.69 167.271 138.191C167.768 137.692 168.444 137.41 169.148 137.408Z" fill="black"/>
<path d="M169.148 152.694C169.675 152.693 170.19 152.848 170.628 153.139C171.066 153.431 171.409 153.846 171.611 154.332C171.813 154.818 171.867 155.353 171.765 155.87C171.663 156.386 171.41 156.861 171.038 157.234C170.666 157.607 170.192 157.861 169.676 157.964C169.16 158.067 168.625 158.015 168.138 157.813C167.652 157.612 167.236 157.271 166.943 156.834C166.65 156.396 166.494 155.881 166.494 155.355C166.494 154.65 166.774 153.975 167.271 153.476C167.769 152.977 168.444 152.696 169.148 152.694Z" fill="black"/>
<path d="M169.147 183.266C169.853 183.266 170.53 183.546 171.029 184.045C171.527 184.544 171.808 185.221 171.808 185.927C171.808 186.632 171.527 187.309 171.029 187.808C170.53 188.307 169.853 188.587 169.147 188.587C168.58 188.574 168.032 188.382 167.58 188.039C167.128 187.696 166.796 187.219 166.631 186.676L166.266 186.446C166.893 185.472 167.457 184.459 167.953 183.412L168.072 183.466C168.293 183.247 168.965 183.266 169.147 183.266Z" fill="black"/>
<path d="M169.148 213.837C169.675 213.835 170.191 213.989 170.63 214.281C171.069 214.573 171.412 214.988 171.614 215.475C171.817 215.961 171.871 216.497 171.77 217.013C171.668 217.53 171.415 218.007 171.043 218.379C170.671 218.752 170.196 219.008 169.68 219.111C169.163 219.214 168.627 219.162 168.14 218.96C167.653 218.759 167.236 218.417 166.944 217.979C166.65 217.541 166.494 217.026 166.494 216.5C166.494 215.795 166.774 215.119 167.271 214.621C167.768 214.12 168.444 213.839 169.148 213.837Z" fill="black"/>
<path d="M169.148 229.123C169.675 229.121 170.19 229.278 170.628 229.568C171.066 229.86 171.409 230.274 171.611 230.761C171.813 231.247 171.867 231.781 171.765 232.299C171.663 232.814 171.41 233.289 171.038 233.663C170.666 234.036 170.192 234.29 169.676 234.393C169.16 234.496 168.625 234.444 168.138 234.242C167.652 234.04 167.236 233.699 166.943 233.263C166.65 232.825 166.494 232.31 166.494 231.784C166.494 231.079 166.774 230.403 167.271 229.905C167.769 229.407 168.444 229.125 169.148 229.123Z" fill="black"/>
<path d="M169.148 244.408C169.675 244.406 170.191 244.561 170.63 244.853C171.069 245.145 171.412 245.559 171.614 246.047C171.817 246.532 171.871 247.069 171.769 247.586C171.667 248.104 171.414 248.578 171.042 248.952C170.67 249.326 170.195 249.579 169.678 249.682C169.161 249.785 168.625 249.734 168.138 249.532C167.651 249.33 167.235 248.989 166.943 248.55C166.65 248.11 166.494 247.595 166.494 247.069C166.494 246.364 166.774 245.688 167.271 245.19C167.769 244.692 168.444 244.41 169.148 244.408Z" fill="black"/>
<path d="M154.312 197.647L158.177 199.475L157.982 199.891V202.11L149.867 212.475V199.891C151.394 199.234 152.878 198.485 154.312 197.647Z" fill="black"/>
<path d="M141.084 202.747L141.159 203.088C137.568 211.231 132.999 219.312 127.646 223.808C125.907 225.266 124.236 226.744 122.629 228.24C122.024 219.361 121.371 210.377 120.746 203.088C123.825 203.649 126.949 203.93 130.078 203.928C133.779 203.935 137.469 203.537 141.084 202.747Z" fill="black"/>
<path d="M115.911 243.451C117.232 240.356 119.268 237.621 121.853 235.467C122.248 235.162 122.643 234.855 123.047 234.563C129.423 230.079 136.37 226.467 143.704 223.826C143.509 224.243 136.047 240.049 128.887 246.088C127.228 247.483 125.566 248.735 123.996 249.953C122.403 251.164 120.896 252.485 119.486 253.906C117.93 255.437 116.699 257.269 115.867 259.287C115.035 261.306 114.619 263.473 114.644 265.656V266.011H111.582V265.656C111.621 261.911 111.97 258.177 112.626 254.49C113.25 250.687 114.354 246.977 115.911 243.451Z" fill="#2F4E37"/>
<path d="M124.757 265.656V266.01H121.033C120.852 261.939 120.331 257.891 119.477 253.905C120.886 252.484 122.393 251.163 123.986 249.952C124.465 258.013 124.757 264.043 124.757 265.656Z" fill="black"/>
<path d="M123.046 234.556C122.643 234.855 122.247 235.162 121.852 235.467C119.268 237.62 117.232 240.356 115.911 243.45C115.084 242.162 114.062 240.734 112.881 239.143C110.136 235.432 106.58 230.916 102.932 225.898C98.5388 220.014 94.6171 213.793 91.2032 207.291C91.2032 207.291 91.1818 207.257 91.1474 207.195C90.6342 206.173 90.1467 205.159 89.6829 204.13C74.4861 170.612 84.3317 137.193 84.3317 137.193C89.5416 141.945 94.4296 147.039 98.9637 152.44C96.1155 154.959 93.8202 158.042 92.223 161.493C90.6256 164.944 89.7606 168.689 89.6829 172.491C89.6829 187.353 102.932 199.812 120.746 203.091C121.371 210.379 122.024 219.364 122.63 228.243C122.769 230.36 122.915 232.471 123.046 234.556Z" fill="#2F4E37"/>
<path d="M111.131 241.782C111.131 241.782 112.272 248.57 112.635 254.484C111.979 258.171 111.63 261.905 111.591 265.65V266.004H108.54V265.65C109.613 258.465 108.512 250.378 108.54 246.556C109.313 244.917 110.179 243.324 111.131 241.782Z" fill="black"/>
<path d="M112.881 239.143C112.272 240.002 111.688 240.887 111.131 241.783C110.179 243.324 109.313 244.918 108.54 246.556C105.723 252.644 104.243 259.264 104.198 265.97V266.005H102.974C102.9 258.549 102.13 251.117 100.674 243.803C101.376 240.127 101.748 235.959 102.196 231.705C102.398 229.787 102.613 227.851 102.877 225.939L102.933 225.896C106.581 230.919 110.137 235.429 112.881 239.143Z" fill="#2F4E37"/>
<path d="M102.973 266.01H97.562C97.2077 247.597 84.7574 241.782 72.2921 231.277C59.408 220.431 46 191.798 46 191.798C59.4022 196.625 72.0672 203.295 83.63 211.614C83.9904 211.918 84.3659 212.206 84.7553 212.472C93.7741 219.546 98.3673 232.331 100.674 243.802C102.13 251.116 102.9 258.552 102.973 266.01Z" fill="#2F4E37"/>
<path d="M102.931 225.898L102.875 225.941C102.611 227.852 102.396 229.789 102.195 231.706C100.958 223.501 94.3846 219.138 84.7559 212.475C84.3801 212.183 84.0108 211.891 83.6286 211.616C74.8953 204.293 72.166 186.43 72.166 186.43C82.1641 192.307 90.397 205.932 91.1464 207.197C91.1808 207.259 91.2022 207.293 91.2022 207.293C94.6161 213.793 98.5378 220.014 102.931 225.898Z" fill="black"/>
<path d="M149.875 199.891C151.399 199.234 152.882 198.484 154.314 197.647L158.179 199.474L177.075 208.369L164.836 188.519C165.349 187.844 165.836 187.157 166.281 186.446C166.908 185.472 167.472 184.458 167.969 183.41C169.549 180.142 170.402 176.57 170.468 172.94C170.468 172.794 170.468 172.641 170.468 172.489C170.468 172.134 170.468 171.78 170.44 171.426" stroke="black" stroke-width="0.694666" stroke-linecap="round" stroke-linejoin="round"/>
<path d="M170.445 171.343C170.397 170.278 170.278 169.218 170.091 168.169C168.562 160.71 164.23 154.121 157.987 149.762C155.469 147.897 152.746 146.325 149.872 145.079C143.623 142.383 136.883 141.011 130.078 141.05C118.645 140.807 107.539 144.869 98.9625 152.431C96.1142 154.951 93.8189 158.034 92.2215 161.485C90.6243 164.936 89.7594 168.681 89.6816 172.483C89.6816 187.345 102.931 199.804 120.745 203.083C123.824 203.643 126.948 203.924 130.078 203.922C133.778 203.929 137.468 203.532 141.083 202.741C144.098 202.082 147.042 201.129 149.872 199.894" stroke="black" stroke-width="0.694666" stroke-linecap="round" stroke-linejoin="round"/>
<path d="M367.846 136.526L369.819 132.469C368.945 131.329 368.155 130.126 367.457 128.87C366.519 127.188 365.769 125.408 365.222 123.562C364.543 121.32 364.191 118.991 364.178 116.648C364.178 116.579 364.178 116.517 364.178 116.446C364.178 114.77 364.346 113.099 364.681 111.457C365.101 109.411 365.769 107.423 366.669 105.537C372.366 93.5464 387.185 85 404.57 85C426.872 85 444.959 99.0759 444.959 116.446C444.959 133.816 426.872 147.887 404.57 147.887C401.033 147.893 397.507 147.528 394.048 146.796C391.273 146.228 388.557 145.404 385.933 144.335C384.007 143.56 382.141 142.645 380.35 141.598L361.453 149.659L364.386 143.646L367.859 136.523" stroke="black" stroke-width="0.694666" stroke-linecap="round" stroke-linejoin="round"/>
<path d="M385.844 241.943L373.761 237.85L378.854 252.268C377.274 254.32 375.983 256.582 375.019 258.987C373.827 261.946 373.213 265.107 373.211 268.295C373.254 273.836 375.06 279.219 378.365 283.666C385.277 293.254 398.472 299.737 413.611 299.737C435.916 299.737 454.001 285.659 454.001 268.295C454.001 250.932 435.916 236.856 413.611 236.856C406.892 236.822 400.237 238.157 394.053 240.781C392.447 241.473 390.886 242.261 389.376 243.144L385.844 241.943Z" stroke="black" stroke-width="0.694666" stroke-linecap="round" stroke-linejoin="round"/>
<path d="M149.875 145.078V117.863C149.875 114.594 151.174 111.459 153.485 109.147C155.797 106.836 158.932 105.537 162.201 105.537H366.675" stroke="black" stroke-width="0.694666" stroke-linecap="round" stroke-linejoin="round"/>
<path d="M249.37 283.666H162.201C158.932 283.666 155.797 282.367 153.485 280.056C151.174 277.744 149.875 274.609 149.875 271.34V199.892" stroke="black" stroke-width="0.694666" stroke-linecap="round" stroke-linejoin="round"/>
<path d="M378.361 283.666H363.561H294.561" stroke="black" stroke-width="0.694666" stroke-linecap="round" stroke-linejoin="round"/>
<path d="M394.049 146.803V162.824V240.781" stroke="black" stroke-width="0.694666" stroke-linecap="round" stroke-linejoin="round"/>
<path d="M157.99 149.771V120.595C157.991 118.172 158.954 115.848 160.667 114.135C162.38 112.421 164.704 111.459 167.127 111.458H364.683" stroke="black" stroke-width="0.694666" stroke-linecap="round" stroke-linejoin="round"/>
<path d="M375.02 258.987H167.127C164.704 258.987 162.38 258.022 160.667 256.309C158.954 254.597 157.991 252.272 157.99 249.85V199.892" stroke="black" stroke-width="0.694666" stroke-linecap="round" stroke-linejoin="round"/>
<path d="M385.932 144.345V148.012V241.671" stroke="black" stroke-width="0.694666" stroke-linecap="round" stroke-linejoin="round"/>
<path d="M157.99 128.87H367.466" stroke="black" stroke-width="0.694666" stroke-linecap="round" stroke-linejoin="round"/>
<path d="M365.061 123.61H190.748V116.648H364.123" stroke="black" stroke-width="0.694666" stroke-linecap="round" stroke-linejoin="round"/>
<path d="M278.732 271.325C278.732 272.665 278.337 273.973 277.594 275.087C276.851 276.202 275.793 277.069 274.556 277.582C273.319 278.095 271.96 278.231 270.646 277.971C269.331 277.709 268.125 277.067 267.178 276.12C266.231 275.173 265.584 273.968 265.322 272.654C265.06 271.342 265.193 269.978 265.705 268.742C266.216 267.505 267.083 266.446 268.198 265.701C269.31 264.958 270.618 264.559 271.958 264.559C273.753 264.559 275.475 265.269 276.746 266.538C278.015 267.808 278.73 269.53 278.732 271.325Z" stroke="black" stroke-width="0.694666" stroke-linecap="round" stroke-linejoin="round"/>
<path d="M242.412 314.319L249.361 283.666H294.558L298.574 301.39L301.507 314.319" stroke="black" stroke-width="0.694666" stroke-linecap="round" stroke-linejoin="round"/>
<path d="M297.365 314.319H248.326" stroke="black" stroke-width="0.694666" stroke-linecap="round" stroke-linejoin="round"/>
<path d="M249.363 283.666L298.576 301.39" stroke="black" stroke-width="0.694666" stroke-linecap="round" stroke-linejoin="round"/>
<path d="M223.715 314.319H234.43" stroke="black" stroke-width="0.694666" stroke-linecap="round" stroke-linejoin="round"/>
<path d="M237.615 314.319H242.415H248.328" stroke="black" stroke-width="0.694666" stroke-linecap="round" stroke-linejoin="round"/>
<path d="M70.8594 314.319H81.5746" stroke="black" stroke-width="0.694666" stroke-linecap="round" stroke-linejoin="round"/>
<path d="M123.428 314.319H151.053" stroke="black" stroke-width="0.694666" stroke-linecap="round" stroke-linejoin="round"/>
<path d="M84.7578 314.319H99.2503" stroke="black" stroke-width="0.694666" stroke-linecap="round" stroke-linejoin="round"/>
<path d="M297.365 314.319H301.507H308.078" stroke="black" stroke-width="0.694666" stroke-linecap="round" stroke-linejoin="round"/>
<path d="M311.262 314.319H321.977" stroke="black" stroke-width="0.694666" stroke-linecap="round" stroke-linejoin="round"/>
<path d="M177.332 124.417L184.44 120.318L177.332 116.21" stroke="black" stroke-width="0.694666" stroke-linecap="round" stroke-linejoin="round"/>
<path d="M172.739 116.21L165.625 120.318L172.739 124.417" stroke="black" stroke-width="0.694666" stroke-linecap="round" stroke-linejoin="round"/>
<path d="M385.932 148.012L394.046 162.824" stroke="black" stroke-width="0.694666" stroke-linecap="round" stroke-linejoin="round"/>
<path d="M370.473 258.986L363.561 283.666" stroke="black" stroke-width="0.694666" stroke-linecap="round" stroke-linejoin="round"/>
<path d="M157.99 202.109L149.875 212.475" stroke="black" stroke-width="0.694666" stroke-linecap="round" stroke-linejoin="round"/>
<path d="M123.429 314.32H99.2503C95.4067 314.32 91.7204 312.793 89.0027 310.074C86.2848 307.358 84.7578 303.671 84.7578 299.827V266.011H137.922V299.827C137.921 303.671 136.394 307.356 133.677 310.074C130.959 312.793 127.273 314.32 123.429 314.32Z" stroke="black" stroke-width="0.694666" stroke-linecap="round" stroke-linejoin="round"/>
<path d="M102.973 266.01C102.9 258.552 102.13 251.116 100.674 243.802C98.3673 232.331 93.7741 219.537 84.7574 212.472C84.3816 212.18 84.0123 211.888 83.63 211.614C72.0672 203.295 59.4022 196.625 46 191.798C46 191.798 59.4101 220.431 72.2921 231.277C84.7574 241.782 97.2013 247.597 97.562 266.01" stroke="black" stroke-width="0.694666" stroke-linecap="round" stroke-linejoin="round"/>
<path d="M108.539 246.562C105.723 252.65 104.242 259.27 104.197 265.977" stroke="black" stroke-width="0.694666" stroke-linecap="round" stroke-linejoin="round"/>
<path d="M112.881 239.144C112.271 240.002 111.687 240.887 111.131 241.783C110.178 243.324 109.313 244.918 108.539 246.556" stroke="black" stroke-width="0.694666" stroke-linecap="round" stroke-linejoin="round"/>
<path d="M141.158 203.09C137.568 211.233 132.998 219.313 127.645 223.81C125.907 225.268 124.235 226.745 122.629 228.242" stroke="black" stroke-width="0.694666" stroke-linecap="round" stroke-linejoin="round"/>
<path d="M100.674 243.803C101.376 240.127 101.748 235.959 102.196 231.705C102.398 229.788 102.613 227.851 102.877 225.939" stroke="black" stroke-width="0.694666" stroke-linecap="round" stroke-linejoin="round"/>
<path d="M143.719 223.809C143.517 224.238 136.055 240.038 128.903 246.077C127.243 247.472 125.581 248.724 124.011 249.942C122.418 251.153 120.911 252.474 119.502 253.895C117.946 255.426 116.715 257.258 115.883 259.276C115.05 261.295 114.635 263.461 114.659 265.645" stroke="black" stroke-width="0.694666" stroke-linecap="round" stroke-linejoin="round"/>
<path d="M123.047 234.556C129.423 230.072 136.37 226.461 143.704 223.819" stroke="black" stroke-width="0.694666" stroke-linecap="round" stroke-linejoin="round"/>
<path d="M111.582 265.656C111.621 261.911 111.97 258.177 112.626 254.49C113.251 250.689 114.355 246.981 115.911 243.457C117.232 240.363 119.268 237.627 121.853 235.473C122.248 235.168 122.643 234.861 123.047 234.569" stroke="black" stroke-width="0.694666" stroke-linecap="round" stroke-linejoin="round"/>
<path d="M119.477 253.906C120.331 257.892 120.852 261.939 121.033 266.011" stroke="black" stroke-width="0.694666" stroke-linecap="round" stroke-linejoin="round"/>
<path d="M91.2031 207.298C94.617 213.8 98.5387 220.021 102.932 225.905C106.582 230.923 110.136 235.439 112.881 239.149C114.062 240.741 115.084 242.177 115.91 243.457" stroke="black" stroke-width="0.694666" stroke-linecap="round" stroke-linejoin="round"/>
<path d="M98.9637 152.438C94.4296 147.037 89.5416 141.943 84.3317 137.191C84.3317 137.191 74.4861 170.611 89.6829 204.128C90.1467 205.157 90.6342 206.171 91.1474 207.193" stroke="black" stroke-width="0.694666" stroke-linecap="round" stroke-linejoin="round"/>
<path d="M123.046 234.569C122.915 232.478 122.769 230.367 122.629 228.248C122.024 219.368 121.371 210.384 120.746 203.096" stroke="black" stroke-width="0.694666" stroke-linecap="round" stroke-linejoin="round"/>
<path d="M124.757 265.656C124.757 264.043 124.465 258.013 123.992 249.952" stroke="black" stroke-width="0.694666" stroke-linecap="round" stroke-linejoin="round"/>
<path d="M91.2022 207.298C91.2022 207.298 91.1808 207.264 91.1464 207.202C90.397 205.937 82.1641 192.312 72.166 186.435C72.166 186.435 74.8953 204.298 83.6286 211.621C83.9891 211.926 84.3655 212.213 84.7559 212.48C94.3846 219.136 100.958 223.506 102.195 231.711" stroke="black" stroke-width="0.694666" stroke-linecap="round" stroke-linejoin="round"/>
<path d="M108.54 246.557C108.512 250.379 109.613 258.466 108.54 265.651" stroke="black" stroke-width="0.694666" stroke-linecap="round" stroke-linejoin="round"/>
<path d="M111.133 241.782C111.133 241.782 112.273 248.57 112.636 254.484" stroke="black" stroke-width="0.694666" stroke-linecap="round" stroke-linejoin="round"/>
<path d="M180.885 133.837V251.342" stroke="black" stroke-width="0.694666" stroke-linecap="round" stroke-linejoin="round"/>
<path d="M237.634 143.649H189.978C189.029 143.648 188.12 143.271 187.449 142.6C186.778 141.93 186.401 141.02 186.4 140.071C186.403 139.124 186.78 138.215 187.451 137.546C188.121 136.876 189.03 136.499 189.978 136.498H237.634C238.582 136.498 239.492 136.875 240.162 137.545C240.833 138.216 241.209 139.125 241.209 140.073C241.209 141.022 240.833 141.931 240.162 142.601C239.492 143.272 238.582 143.649 237.634 143.649Z" stroke="black" stroke-width="0.694666" stroke-linecap="round" stroke-linejoin="round"/>
<path d="M367.845 136.526C367.741 136.526 367.658 136.498 367.561 136.498H257.372C256.423 136.498 255.515 136.875 254.845 137.545C254.173 138.216 253.797 139.125 253.797 140.073C253.797 141.022 254.173 141.931 254.845 142.601C255.515 143.272 256.423 143.649 257.372 143.649H364.372L367.845 136.526Z" stroke="black" stroke-width="0.694666" stroke-linecap="round" stroke-linejoin="round"/>
<path d="M171.809 140.071C171.808 140.596 171.652 141.11 171.359 141.546C171.066 141.983 170.651 142.323 170.165 142.524C169.68 142.724 169.145 142.776 168.63 142.674C168.115 142.571 167.641 142.317 167.27 141.946C166.899 141.574 166.646 141.1 166.543 140.585C166.441 140.069 166.493 139.535 166.694 139.05C166.895 138.564 167.236 138.149 167.672 137.857C168.109 137.565 168.623 137.409 169.148 137.408C169.498 137.408 169.845 137.476 170.168 137.61C170.491 137.743 170.784 137.939 171.032 138.187C171.279 138.434 171.475 138.728 171.608 139.051C171.741 139.375 171.81 139.721 171.809 140.071Z" stroke="black" stroke-width="0.694666" stroke-linecap="round" stroke-linejoin="round"/>
<path d="M265.427 158.934H189.977C189.501 158.946 189.026 158.862 188.582 158.687C188.139 158.513 187.734 158.252 187.393 157.918C187.052 157.585 186.78 157.188 186.595 156.748C186.41 156.309 186.314 155.836 186.314 155.359C186.314 154.883 186.41 154.411 186.595 153.971C186.78 153.532 187.052 153.134 187.393 152.801C187.734 152.468 188.139 152.206 188.582 152.032C189.026 151.857 189.501 151.774 189.977 151.785H265.427C265.903 151.774 266.378 151.857 266.822 152.032C267.265 152.206 267.671 152.468 268.012 152.801C268.353 153.134 268.624 153.532 268.809 153.971C268.993 154.411 269.09 154.883 269.09 155.359C269.09 155.836 268.993 156.309 268.809 156.748C268.624 157.188 268.353 157.585 268.012 157.918C267.671 158.252 267.265 158.513 266.822 158.687C266.378 158.862 265.903 158.946 265.427 158.934Z" stroke="black" stroke-width="0.694666" stroke-linecap="round" stroke-linejoin="round"/>
<path d="M367.563 158.934H285.166C284.459 158.935 283.765 158.726 283.177 158.334C282.589 157.941 282.131 157.383 281.859 156.729C281.588 156.076 281.519 155.357 281.657 154.663C281.796 153.97 282.138 153.333 282.638 152.833C282.969 152.499 283.362 152.235 283.796 152.055C284.229 151.875 284.695 151.783 285.166 151.785H367.563C368.04 151.774 368.515 151.857 368.959 152.032C369.402 152.206 369.807 152.468 370.149 152.801C370.49 153.134 370.761 153.532 370.946 153.971C371.13 154.411 371.227 154.883 371.227 155.359C371.227 155.836 371.13 156.309 370.946 156.748C370.761 157.188 370.49 157.585 370.149 157.918C369.807 158.252 369.402 158.513 368.959 158.687C368.515 158.862 368.04 158.946 367.563 158.934Z" stroke="black" stroke-width="0.694666" stroke-linecap="round" stroke-linejoin="round"/>
<path d="M171.809 155.355C171.808 155.88 171.652 156.394 171.36 156.831C171.068 157.268 170.653 157.608 170.167 157.809C169.681 158.01 169.147 158.062 168.631 157.96C168.116 157.857 167.642 157.604 167.271 157.233C166.899 156.861 166.646 156.387 166.543 155.872C166.441 155.356 166.493 154.822 166.694 154.336C166.895 153.851 167.235 153.435 167.672 153.143C168.109 152.851 168.623 152.695 169.148 152.694C169.498 152.694 169.844 152.762 170.167 152.896C170.49 153.029 170.784 153.225 171.031 153.472C171.278 153.719 171.474 154.013 171.607 154.336C171.741 154.659 171.81 155.005 171.809 155.355Z" stroke="black" stroke-width="0.694666" stroke-linecap="round" stroke-linejoin="round"/>
<path d="M223.738 174.229H189.978C189.029 174.228 188.12 173.85 187.449 173.179C186.778 172.508 186.401 171.598 186.4 170.649C186.403 169.702 186.781 168.794 187.452 168.125C188.122 167.456 189.03 167.079 189.978 167.078H223.738C224.687 167.078 225.596 167.455 226.267 168.125C226.937 168.796 227.314 169.705 227.314 170.653C227.314 171.602 226.937 172.511 226.267 173.182C225.596 173.852 224.687 174.229 223.738 174.229Z" stroke="black" stroke-width="0.694666" stroke-linecap="round" stroke-linejoin="round"/>
<path d="M367.562 174.229H243.476C242.527 174.227 241.618 173.849 240.947 173.178C240.277 172.507 239.9 171.598 239.898 170.649C239.903 169.702 240.281 168.795 240.951 168.126C241.621 167.457 242.529 167.08 243.476 167.078H367.562C368.512 167.078 369.42 167.455 370.09 168.125C370.762 168.796 371.138 169.705 371.138 170.653C371.138 171.602 370.762 172.511 370.09 173.182C369.42 173.852 368.512 174.229 367.562 174.229Z" stroke="black" stroke-width="0.694666" stroke-linecap="round" stroke-linejoin="round"/>
<path d="M170.476 172.489C170.476 172.642 170.476 172.794 170.461 172.94C170.899 172.693 171.257 172.326 171.494 171.883C171.73 171.439 171.835 170.937 171.796 170.435C171.756 169.934 171.575 169.455 171.272 169.053C170.969 168.651 170.558 168.345 170.087 168.169H170.072C170.262 169.221 170.386 170.284 170.442 171.351V171.437C170.467 171.781 170.476 172.135 170.476 172.489Z" stroke="black" stroke-width="0.694666" stroke-linecap="round" stroke-linejoin="round"/>
<path d="M307.116 189.505H189.978C189.029 189.505 188.12 189.127 187.449 188.457C186.778 187.786 186.401 186.876 186.4 185.927C186.402 184.98 186.78 184.072 187.45 183.402C188.121 182.732 189.03 182.356 189.978 182.356H307.116C308.048 182.379 308.934 182.766 309.587 183.434C310.238 184.102 310.603 184.998 310.603 185.931C310.603 186.864 310.238 187.76 309.587 188.428C308.934 189.095 308.048 189.482 307.116 189.505Z" stroke="black" stroke-width="0.694666" stroke-linecap="round" stroke-linejoin="round"/>
<path d="M367.564 189.505H326.855C325.906 189.504 324.997 189.127 324.325 188.457C323.655 187.786 323.277 186.876 323.277 185.928C323.279 184.98 323.657 184.072 324.327 183.402C324.997 182.733 325.908 182.357 326.855 182.357H367.564C368.041 182.345 368.515 182.429 368.96 182.603C369.402 182.777 369.808 183.039 370.15 183.372C370.491 183.705 370.762 184.103 370.946 184.542C371.131 184.982 371.228 185.454 371.228 185.931C371.228 186.408 371.131 186.88 370.946 187.319C370.762 187.759 370.491 188.157 370.15 188.49C369.808 188.823 369.402 189.084 368.96 189.259C368.515 189.433 368.041 189.517 367.564 189.505Z" stroke="black" stroke-width="0.694666" stroke-linecap="round" stroke-linejoin="round"/>
<path d="M168.076 183.463C168.291 183.248 168.965 183.263 169.15 183.263C169.855 183.263 170.532 183.543 171.031 184.042C171.53 184.541 171.81 185.218 171.81 185.923C171.81 186.629 171.53 187.306 171.031 187.805C170.532 188.304 169.855 188.584 169.15 188.584C168.582 188.571 168.034 188.379 167.582 188.036C167.13 187.692 166.798 187.216 166.633 186.673" stroke="black" stroke-width="0.694666" stroke-linecap="round" stroke-linejoin="round"/>
<path d="M216.79 204.792H189.978C189.029 204.79 188.12 204.414 187.449 203.742C186.778 203.072 186.401 202.162 186.4 201.213C186.403 200.266 186.781 199.357 187.452 198.687C188.122 198.02 189.03 197.644 189.978 197.642H216.79C217.738 197.642 218.647 198.017 219.318 198.69C219.988 199.359 220.365 200.268 220.365 201.217C220.365 202.166 219.988 203.074 219.318 203.744C218.647 204.416 217.738 204.792 216.79 204.792Z" stroke="black" stroke-width="0.694666" stroke-linecap="round" stroke-linejoin="round"/>
<path d="M367.562 204.792H236.529C235.58 204.79 234.67 204.414 233.999 203.742C233.328 203.072 232.95 202.162 232.949 201.213C232.953 200.266 233.332 199.357 234.002 198.69C234.673 198.02 235.581 197.644 236.529 197.642H367.562C368.511 197.642 369.419 198.017 370.089 198.69C370.762 199.359 371.137 200.268 371.137 201.217C371.137 202.166 370.762 203.074 370.089 203.744C369.419 204.416 368.511 204.792 367.562 204.792Z" stroke="black" stroke-width="0.694666" stroke-linecap="round" stroke-linejoin="round"/>
<path d="M279.323 220.077H189.978C189.029 220.077 188.12 219.699 187.449 219.029C186.778 218.357 186.401 217.449 186.4 216.5C186.402 215.553 186.78 214.644 187.45 213.974C188.121 213.304 189.03 212.929 189.978 212.929H279.323C280.254 212.952 281.141 213.339 281.794 214.007C282.445 214.675 282.81 215.57 282.81 216.504C282.81 217.436 282.445 218.331 281.794 218.999C281.141 219.667 280.254 220.054 279.323 220.077Z" stroke="black" stroke-width="0.694666" stroke-linecap="round" stroke-linejoin="round"/>
<path d="M367.562 220.077H299.062C298.113 220.077 297.202 219.699 296.532 219.029C295.86 218.357 295.485 217.449 295.482 216.5C295.485 215.553 295.865 214.644 296.535 213.974C297.205 213.304 298.115 212.929 299.062 212.929H367.562C368.494 212.952 369.381 213.339 370.034 214.007C370.685 214.675 371.05 215.57 371.05 216.504C371.05 217.436 370.685 218.331 370.034 218.999C369.381 219.667 368.494 220.054 367.562 220.077Z" stroke="black" stroke-width="0.694666" stroke-linecap="round" stroke-linejoin="round"/>
<path d="M171.809 216.5C171.808 217.026 171.652 217.539 171.359 217.975C171.066 218.411 170.651 218.752 170.165 218.952C169.68 219.154 169.145 219.205 168.63 219.102C168.115 218.999 167.641 218.746 167.27 218.374C166.899 218.003 166.646 217.528 166.543 217.013C166.441 216.497 166.493 215.965 166.694 215.477C166.895 214.992 167.236 214.578 167.672 214.286C168.109 213.994 168.623 213.837 169.148 213.837C169.498 213.837 169.845 213.906 170.168 214.039C170.491 214.172 170.784 214.367 171.032 214.616C171.279 214.863 171.475 215.158 171.608 215.48C171.741 215.804 171.81 216.15 171.809 216.5Z" stroke="black" stroke-width="0.694666" stroke-linecap="round" stroke-linejoin="round"/>
<path d="M327.962 235.361H189.978C189.029 235.361 188.12 234.983 187.449 234.313C186.778 233.641 186.401 232.733 186.4 231.784C186.403 230.837 186.781 229.929 187.452 229.259C188.122 228.591 189.03 228.215 189.978 228.213H327.962C328.894 228.237 329.781 228.623 330.434 229.291C331.084 229.959 331.449 230.854 331.449 231.786C331.449 232.72 331.084 233.616 330.434 234.283C329.781 234.951 328.894 235.338 327.962 235.361Z" stroke="black" stroke-width="0.694666" stroke-linecap="round" stroke-linejoin="round"/>
<path d="M367.564 235.362H347.699C346.749 235.362 345.841 234.984 345.169 234.314C344.499 233.642 344.121 232.734 344.121 231.785C344.123 230.838 344.501 229.93 345.173 229.26C345.843 228.592 346.752 228.216 347.699 228.214H367.564C368.04 228.203 368.515 228.287 368.959 228.461C369.402 228.635 369.808 228.897 370.149 229.23C370.491 229.562 370.761 229.96 370.946 230.4C371.13 230.84 371.227 231.31 371.227 231.789C371.227 232.266 371.13 232.736 370.946 233.176C370.761 233.617 370.491 234.014 370.149 234.347C369.808 234.679 369.402 234.941 368.959 235.115C368.515 235.289 368.04 235.373 367.564 235.362Z" stroke="black" stroke-width="0.694666" stroke-linecap="round" stroke-linejoin="round"/>
<path d="M171.809 231.778C171.808 232.304 171.652 232.817 171.36 233.253C171.068 233.691 170.653 234.03 170.167 234.232C169.681 234.434 169.147 234.486 168.631 234.382C168.116 234.279 167.642 234.026 167.271 233.655C166.899 233.283 166.646 232.811 166.543 232.295C166.441 231.78 166.493 231.245 166.694 230.76C166.895 230.275 167.235 229.858 167.672 229.566C168.109 229.274 168.623 229.117 169.148 229.117C169.498 229.117 169.844 229.186 170.167 229.319C170.49 229.452 170.784 229.648 171.031 229.895C171.278 230.141 171.474 230.436 171.607 230.76C171.741 231.082 171.81 231.428 171.809 231.778Z" stroke="black" stroke-width="0.694666" stroke-linecap="round" stroke-linejoin="round"/>
<path d="M237.634 250.649H189.978C189.029 250.647 188.12 250.271 187.449 249.599C186.778 248.929 186.401 248.018 186.4 247.069C186.403 246.122 186.781 245.214 187.452 244.544C188.122 243.876 189.03 243.5 189.978 243.498H237.634C238.582 243.498 239.492 243.874 240.162 244.546C240.833 245.216 241.209 246.124 241.209 247.073C241.209 248.023 240.833 248.931 240.162 249.601C239.492 250.273 238.582 250.649 237.634 250.649Z" stroke="black" stroke-width="0.694666" stroke-linecap="round" stroke-linejoin="round"/>
<path d="M367.561 250.649H257.373C256.423 250.647 255.513 250.271 254.843 249.599C254.171 248.929 253.795 248.018 253.793 247.069C253.797 246.122 254.175 245.214 254.847 244.546C255.517 243.876 256.426 243.5 257.373 243.498H367.561C368.511 243.498 369.419 243.874 370.089 244.546C370.761 245.216 371.137 246.124 371.137 247.073C371.137 248.023 370.761 248.931 370.089 249.601C369.419 250.273 368.511 250.649 367.561 250.649Z" stroke="black" stroke-width="0.694666" stroke-linecap="round" stroke-linejoin="round"/>
<path d="M171.809 247.07C171.808 247.596 171.652 248.109 171.36 248.545C171.068 248.983 170.653 249.322 170.167 249.524C169.681 249.726 169.147 249.778 168.631 249.674C168.116 249.571 167.642 249.318 167.271 248.947C166.899 248.575 166.646 248.103 166.543 247.587C166.441 247.072 166.493 246.537 166.694 246.052C166.895 245.567 167.235 245.15 167.672 244.858C168.109 244.566 168.623 244.409 169.148 244.409C169.498 244.409 169.844 244.478 170.167 244.611C170.49 244.744 170.783 244.942 171.03 245.189C171.277 245.436 171.473 245.728 171.607 246.052C171.741 246.374 171.809 246.72 171.809 247.07Z" stroke="black" stroke-width="0.694666" stroke-linecap="round" stroke-linejoin="round"/>
<path d="M121.399 172.323C121.316 172.323 121.234 172.323 121.15 172.323C121.067 172.323 120.976 172.323 120.893 172.323C118.313 172.191 115.887 171.056 114.132 169.161C112.377 167.266 111.431 164.76 111.497 162.178C111.564 159.596 112.636 157.142 114.486 155.339C116.336 153.536 118.816 152.528 121.399 152.528" stroke="black" stroke-width="1.04254" stroke-linecap="round" stroke-linejoin="round"/>
<path d="M107.338 172.31H121.401C121.317 172.31 121.236 172.31 121.152 172.31C118.555 172.385 116.092 173.479 114.293 175.354C112.495 177.229 111.505 179.736 111.538 182.334C111.571 184.931 112.623 187.413 114.468 189.242C116.313 191.071 118.803 192.102 121.401 192.112" stroke="black" stroke-width="1.04254" stroke-linecap="round" stroke-linejoin="round"/>
<path d="M139.18 172.323C139.263 172.323 139.354 172.323 139.437 172.323C139.521 172.323 139.605 172.323 139.686 172.323C142.266 172.191 144.692 171.056 146.447 169.161C148.203 167.266 149.148 164.76 149.082 162.178C149.016 159.596 147.943 157.142 146.093 155.339C144.244 153.536 141.763 152.528 139.18 152.528" stroke="black" stroke-width="1.04254" stroke-linecap="round" stroke-linejoin="round"/>
<path d="M153.243 172.31H139.18C139.263 172.31 139.354 172.31 139.437 172.31C142.035 172.386 144.499 173.48 146.297 175.356C148.095 177.232 149.084 179.739 149.05 182.338C149.016 184.936 147.963 187.417 146.116 189.246C144.27 191.074 141.778 192.104 139.18 192.112" stroke="black" stroke-width="1.04254" stroke-linecap="round" stroke-linejoin="round"/>
<path d="M413.1 128.029L431.977 117.135L413.1 106.233" stroke="black" stroke-width="1.04254" stroke-linecap="round" stroke-linejoin="round"/>
<path d="M393.721 106.233L374.844 117.135L393.721 128.029" stroke="black" stroke-width="1.04254" stroke-linecap="round" stroke-linejoin="round"/>
<path d="M408.786 101.308L397.502 132.803" stroke="black" stroke-width="0.694666" stroke-linecap="round" stroke-linejoin="round"/>
<path d="M392.074 281.26L395.132 271.977L402.386 249.952L409.646 271.977L412.704 281.26" stroke="black" stroke-width="1.04254" stroke-linecap="round" stroke-linejoin="round"/>
<path d="M395.133 271.979H409.647" stroke="black" stroke-width="1.04254" stroke-linecap="round" stroke-linejoin="round"/>
<path d="M428.412 275.857C426.419 280.13 422.687 282.611 420.089 281.402C417.491 280.193 417.005 275.739 418.998 271.459C420.991 267.18 424.717 264.706 427.321 265.915C428.122 266.407 428.766 267.117 429.177 267.964C429.589 268.807 429.75 269.752 429.643 270.686C429.61 272.479 429.19 274.242 428.412 275.857Z" stroke="black" stroke-width="0.694666" stroke-linecap="round" stroke-linejoin="round"/>
<path d="M429.636 270.622C429.636 270.644 429.636 270.665 429.636 270.684C430.018 274.444 427.718 284.346 433.716 280.315" stroke="black" stroke-width="0.694666" stroke-linecap="round" stroke-linejoin="round"/>
</svg>
