<svg width="500" height="400" viewBox="0 0 500 400" fill="none" xmlns="http://www.w3.org/2000/svg">
<rect width="500" height="400" rx="20" fill="#FAF3E6"/>
<path d="M156.634 256.011H123.734V270.867H156.634V256.011Z" fill="black"/>
<path d="M156.634 277.456H123.734V292.313H156.634V277.456Z" fill="black"/>
<path d="M156.634 298.901H123.734V339.938H156.634V298.901Z" fill="black"/>
<path d="M362.873 92.0068C364.772 92.0068 366.627 92.5698 368.207 93.6246C369.785 94.6795 371.015 96.1787 371.743 97.9329C372.469 99.687 372.659 101.617 372.289 103.479C371.918 105.341 371.004 107.052 369.662 108.395C368.319 109.737 366.607 110.651 364.746 111.022C362.884 111.392 360.954 111.202 359.2 110.476C357.445 109.749 355.946 108.519 354.891 106.94C353.836 105.361 353.273 103.505 353.273 101.607C353.273 99.0608 354.286 96.6196 356.087 94.8196C357.886 93.0195 360.328 92.0077 362.873 92.0068Z" fill="black"/>
<path d="M362.873 137.041C364.772 137.04 366.629 137.603 368.209 138.658C369.788 139.712 371.02 141.212 371.748 142.966C372.475 144.72 372.666 146.651 372.296 148.514C371.927 150.377 371.013 152.089 369.67 153.432C368.326 154.776 366.616 155.691 364.753 156.062C362.891 156.434 360.96 156.244 359.205 155.518C357.45 154.792 355.949 153.562 354.894 151.983C353.837 150.404 353.273 148.547 353.273 146.648C353.273 144.101 354.284 141.658 356.085 139.857C357.884 138.055 360.326 137.042 362.873 137.041Z" fill="black"/>
<path d="M112.661 130.661C122.743 130.661 130.917 122.488 130.917 112.406C130.917 102.324 122.743 94.1504 112.661 94.1504C102.579 94.1504 94.4062 102.324 94.4062 112.406C94.4062 122.488 102.579 130.661 112.661 130.661Z" fill="black"/>
<path d="M280.366 78.033C282.181 78.033 283.654 76.5609 283.654 74.745C283.654 72.9289 282.181 71.457 280.366 71.457C278.551 71.457 277.078 72.9289 277.078 74.745C277.078 76.5609 278.551 78.033 280.366 78.033Z" fill="black"/>
<path d="M154.235 95.2957C156.051 95.2957 157.523 93.8236 157.523 92.0077C157.523 90.1916 156.051 88.7197 154.235 88.7197C152.419 88.7197 150.947 90.1916 150.947 92.0077C150.947 93.8236 152.419 95.2957 154.235 95.2957Z" fill="black"/>
<path d="M128.763 218.308C130.052 218.308 131.312 218.691 132.384 219.407C133.455 220.123 134.29 221.142 134.783 222.333C135.276 223.523 135.405 224.834 135.153 226.099C134.901 227.363 134.28 228.523 133.368 229.435C132.456 230.346 131.294 230.967 130.03 231.217C128.765 231.468 127.455 231.338 126.264 230.844C125.074 230.351 124.056 229.514 123.341 228.443C122.625 227.37 122.244 226.11 122.244 224.821C122.244 223.966 122.412 223.118 122.74 222.327C123.068 221.537 123.548 220.817 124.153 220.212C124.759 219.609 125.477 219.129 126.269 218.802C127.06 218.474 127.907 218.306 128.763 218.308Z" fill="#FAF3E6"/>
<path d="M350.373 66.9165C353.974 66.9165 356.892 63.9981 356.892 60.3977C356.892 56.7976 353.974 53.8789 350.373 53.8789C346.773 53.8789 343.854 56.7976 343.854 60.3977C343.854 63.9981 346.773 66.9165 350.373 66.9165Z" fill="#FAF3E6"/>
<path d="M225.978 32.4326C227.268 32.4315 228.528 32.8128 229.601 33.5281C230.673 34.2435 231.51 35.2608 232.004 36.4514C232.499 37.6421 232.629 38.9526 232.378 40.2174C232.128 41.482 231.508 42.6441 230.598 43.5566C229.687 44.4691 228.526 45.0909 227.262 45.3437C225.998 45.5965 224.687 45.4687 223.495 44.9765C222.304 44.4844 221.285 43.6501 220.567 42.5789C219.85 41.5077 219.466 40.2477 219.465 38.9586C219.463 38.1022 219.631 37.2538 219.957 36.4621C220.284 35.6704 220.763 34.9509 221.368 34.3448C221.973 33.7386 222.692 33.2577 223.483 32.9296C224.274 32.6015 225.122 32.4326 225.978 32.4326Z" fill="#FAF3E6"/>
<path d="M100.161 66.9165C103.762 66.9165 106.68 63.9981 106.68 60.3977C106.68 56.7976 103.762 53.8789 100.161 53.8789C96.5612 53.8789 93.6426 56.7976 93.6426 60.3977C93.6426 63.9981 96.5612 66.9165 100.161 66.9165Z" fill="#FAF3E6"/>
<path d="M330.856 232.159L322.773 233.359C320.994 233.362 319.278 232.695 317.968 231.49C316.658 230.287 315.849 228.634 315.703 226.86C315.703 226.833 315.703 226.799 315.703 226.778C315.398 225.053 315.726 223.275 316.626 221.774C317.525 220.271 318.937 219.143 320.603 218.599L328.635 217.406C328.146 217.558 323.805 219.013 324.853 225.974C324.987 227.54 325.656 229.011 326.75 230.139C327.845 231.265 329.296 231.979 330.856 232.159Z" fill="#2F4E37"/>
<path d="M386.904 85.0403V183.572C386.904 184.179 386.661 184.76 386.233 185.189C385.804 185.618 385.222 185.86 384.615 185.861H341.138C340.531 185.86 339.951 185.618 339.523 185.189C339.093 184.76 338.852 184.179 338.852 183.572V85.0403C338.853 84.434 339.094 83.8528 339.523 83.4238C339.951 82.9949 340.531 82.7534 341.138 82.752H384.615C385.222 82.7532 385.802 82.9949 386.233 83.4237C386.661 83.8526 386.902 84.4338 386.904 85.0403ZM372.479 101.612C372.479 99.7127 371.917 97.8557 370.862 96.276C369.809 94.6965 368.309 93.465 366.555 92.7376C364.8 92.01 362.869 91.8192 361.005 92.1892C359.142 92.5593 357.432 93.4734 356.088 94.8162C354.743 96.1589 353.829 97.8698 353.458 99.7327C353.087 101.595 353.276 103.527 354.003 105.282C354.729 107.037 355.961 108.537 357.539 109.592C359.118 110.648 360.975 111.212 362.874 111.212C365.421 111.212 367.863 110.201 369.664 108.401C371.465 106.601 372.479 104.159 372.479 101.612ZM372.479 146.653C372.479 144.754 371.917 142.897 370.862 141.317C369.809 139.737 368.309 138.506 366.555 137.779C364.8 137.051 362.869 136.86 361.005 137.23C359.142 137.6 357.432 138.514 356.088 139.857C354.743 141.2 353.829 142.911 353.458 144.774C353.087 146.636 353.276 148.567 354.003 150.322C354.729 152.077 355.961 153.578 357.539 154.633C359.118 155.689 360.975 156.253 362.874 156.253C365.421 156.253 367.865 155.241 369.666 153.44C371.467 151.638 372.479 149.195 372.479 146.648V146.653Z" fill="#2F4E37"/>
<path d="M165.281 249.471V347.994C165.28 348.601 165.039 349.183 164.611 349.611C164.182 350.04 163.6 350.281 162.994 350.282H119.517C118.91 350.281 118.329 350.04 117.9 349.611C117.471 349.183 117.229 348.601 117.229 347.994V249.471C117.229 248.864 117.47 248.282 117.899 247.852C118.328 247.424 118.91 247.183 119.517 247.183H162.994C163.295 247.183 163.592 247.242 163.869 247.358C164.147 247.472 164.399 247.64 164.612 247.854C164.824 248.066 164.992 248.318 165.107 248.595C165.222 248.873 165.281 249.171 165.281 249.471ZM156.632 339.938V298.901H123.735V339.938H156.632ZM156.632 292.315V277.456H123.735V292.315H156.632ZM156.632 270.868V256.015H123.735V270.871L156.632 270.868Z" fill="#2F4E37"/>
<path d="M262.509 63.5911V162.123C262.509 162.731 262.27 163.314 261.84 163.744C261.411 164.175 260.829 164.417 260.221 164.419H216.744C216.136 164.417 215.554 164.174 215.126 163.744C214.697 163.313 214.456 162.731 214.457 162.123V63.5911C214.458 62.9847 214.699 62.4032 215.127 61.9743C215.556 61.5451 216.137 61.3038 216.744 61.3027H260.221C260.828 61.3033 261.409 61.5446 261.838 61.9735C262.268 62.4026 262.509 62.9844 262.509 63.5911Z" fill="#2F4E37"/>
<path d="M136.691 85.0403V183.572C136.691 183.873 136.631 184.172 136.516 184.45C136.4 184.728 136.231 184.981 136.018 185.194C135.805 185.407 135.552 185.576 135.273 185.691C134.995 185.806 134.696 185.865 134.395 185.864H90.9214C90.6209 185.864 90.3234 185.805 90.0458 185.69C89.7684 185.575 89.5162 185.406 89.3039 185.194C89.0915 184.981 88.9231 184.729 88.8083 184.451C88.6935 184.174 88.6345 183.876 88.6348 183.576V85.0439C88.6341 84.7431 88.6927 84.4452 88.8073 84.1671C88.9219 83.8892 89.0902 83.6364 89.3026 83.4235C89.515 83.2105 89.7673 83.0417 90.0451 82.9265C90.3228 82.8112 90.6206 82.752 90.9214 82.752H134.395C135.003 82.7514 135.586 82.992 136.016 83.4212C136.447 83.8503 136.689 84.4325 136.691 85.0403ZM130.916 112.406C130.916 108.795 129.846 105.266 127.84 102.264C125.835 99.2612 122.984 96.9211 119.648 95.5392C116.312 94.1572 112.642 93.7954 109.101 94.4996C105.559 95.2038 102.306 96.9423 99.7532 99.4953C97.1999 102.048 95.4611 105.301 94.7566 108.842C94.0521 112.383 94.4135 116.054 95.7951 119.39C97.1767 122.726 99.5165 125.577 102.519 127.583C105.521 129.589 109.05 130.66 112.661 130.66C117.502 130.66 122.145 128.736 125.569 125.313C128.992 121.89 130.916 117.247 130.916 112.406Z" fill="#2F4E37"/>
<path d="M323.256 87.1836C323.907 87.1825 324.545 87.3748 325.087 87.7361C325.628 88.0973 326.051 88.6112 326.301 89.213C326.551 89.8147 326.617 90.4769 326.49 91.116C326.364 91.755 326.049 92.3419 325.589 92.8026C325.128 93.2631 324.541 93.5768 323.902 93.7037C323.263 93.8304 322.601 93.7649 321.999 93.515C321.398 93.2653 320.884 92.8426 320.521 92.3005C320.161 91.7584 319.968 91.1211 319.97 90.4698C319.97 89.5984 320.316 88.7628 320.932 88.1466C321.549 87.5304 322.385 87.184 323.256 87.1836Z" fill="black"/>
<path d="M323.256 122.357C325.071 122.357 326.544 120.885 326.544 119.069C326.544 117.253 325.071 115.781 323.256 115.781C321.44 115.781 319.968 117.253 319.968 119.069C319.968 120.885 321.44 122.357 323.256 122.357Z" fill="black"/>
<path d="M323.256 136.657C325.071 136.657 326.544 135.185 326.544 133.369C326.544 131.553 325.071 130.081 323.256 130.081C321.44 130.081 319.968 131.553 319.968 133.369C319.968 135.185 321.44 136.657 323.256 136.657Z" fill="black"/>
<path d="M323.256 144.374C323.907 144.373 324.545 144.565 325.086 144.926C325.628 145.287 326.051 145.801 326.301 146.402C326.551 147.003 326.617 147.665 326.49 148.304C326.364 148.943 326.051 149.53 325.591 149.991C325.132 150.451 324.545 150.766 323.906 150.893C323.268 151.021 322.606 150.956 322.005 150.708C321.403 150.459 320.887 150.037 320.525 149.496C320.164 148.955 319.97 148.319 319.97 147.667C319.97 147.235 320.054 146.807 320.218 146.408C320.384 146.009 320.625 145.645 320.93 145.34C321.235 145.034 321.598 144.791 321.997 144.625C322.396 144.46 322.824 144.374 323.256 144.374Z" fill="black"/>
<path d="M182.829 283.286C183.48 283.286 184.117 283.477 184.658 283.839C185.2 284.2 185.622 284.714 185.872 285.314C186.122 285.915 186.188 286.578 186.062 287.217C185.935 287.856 185.622 288.441 185.163 288.902C184.703 289.364 184.117 289.678 183.478 289.805C182.84 289.933 182.178 289.869 181.576 289.619C180.975 289.371 180.46 288.95 180.098 288.409C179.735 287.868 179.542 287.233 179.541 286.581C179.54 285.708 179.887 284.871 180.503 284.254C181.12 283.636 181.956 283.288 182.829 283.286Z" fill="black"/>
<path d="M182.829 311.885C183.479 311.885 184.115 312.078 184.656 312.44C185.197 312.8 185.618 313.315 185.867 313.914C186.116 314.516 186.181 315.176 186.054 315.815C185.927 316.453 185.613 317.038 185.153 317.499C184.693 317.957 184.107 318.271 183.469 318.398C182.831 318.525 182.17 318.459 181.569 318.211C180.969 317.961 180.455 317.54 180.094 316.999C179.733 316.458 179.541 315.821 179.541 315.171C179.542 314.3 179.889 313.465 180.506 312.849C181.122 312.233 181.958 311.887 182.829 311.885Z" fill="black"/>
<path d="M257.169 224.738C259.791 225.011 262.44 224.824 264.996 224.181C270.681 222.671 273.9 216.607 273.9 216.607C275.892 219.388 278.221 221.911 280.833 224.119L255.459 227.633C256.093 226.746 256.662 225.816 257.162 224.849L257.169 224.738Z" fill="black"/>
<path d="M246.716 204.76C253.208 195.686 269.808 181.615 280.911 180.485C283.908 180.176 298.225 186.447 309.405 191.45C309.405 191.45 335.466 190.518 339.052 194.565C353.923 211.302 366.953 257.088 369.497 262.173C372.04 267.259 408.694 287.725 420.842 294.01V368.063L349.242 324.745C344.7 325.301 340.107 325.301 335.564 324.745C297.104 317.276 245.566 278.354 235.586 273.729C228.255 270.338 226.511 263.242 225.59 258.48C225.392 257.134 225.088 255.808 224.68 254.51C224.051 253.236 223.215 252.074 222.206 251.072C220.999 249.748 219.553 248.377 218.264 247.102C217.247 246.133 216.304 245.087 215.446 243.973C214.436 242.567 213.864 240.896 213.801 239.166C213.737 237.437 214.185 235.727 215.089 234.25C215.769 233.019 216.623 231.891 217.625 230.902C221.174 227.346 229.692 230.384 230.037 230.502C230.369 227.908 231.352 225.441 232.893 223.328C238.289 214.955 239.508 210.394 241.369 207.925C241.972 207.093 242.792 206.445 243.74 206.051C244.433 205.753 245.468 205.305 246.716 204.76ZM257.17 224.738V224.856C256.67 225.823 256.101 226.753 255.467 227.641C253.018 231.303 249.518 234.138 245.427 235.771C244.911 235.95 244.366 236.109 243.82 236.248C246.011 238.515 247.899 241.055 249.436 243.807C249.836 244.527 250.186 245.273 250.484 246.04C250.484 246.04 270.249 258.257 273.432 260.022C273.432 260.022 293.732 249.252 299.921 246.246C299.921 246.246 293.292 239.452 291.858 237.653L322.787 233.36L330.869 232.16L334.48 231.625C336.431 231.33 338.186 230.273 339.361 228.688C340.535 227.101 341.033 225.117 340.746 223.164C340.458 221.211 339.409 219.453 337.829 218.273C336.248 217.091 334.263 216.586 332.31 216.865L328.692 217.4C328.677 217.398 328.665 217.398 328.651 217.4L320.618 218.592L280.855 224.112C278.244 221.904 275.915 219.381 273.923 216.6C273.923 216.6 270.71 222.669 265.019 224.174C262.456 224.822 259.8 225.011 257.17 224.738Z" fill="#FAF3E6"/>
<path d="M420.842 294.015C408.693 287.73 372.038 267.256 369.496 262.177C366.955 257.099 353.922 211.305 339.052 194.569C335.467 190.522 309.406 191.454 309.406 191.454" stroke="black" stroke-width="0.68901" stroke-linecap="round" stroke-linejoin="round"/>
<path d="M230.031 230.513C229.686 230.396 221.168 227.357 217.62 230.913C216.617 231.902 215.763 233.028 215.083 234.262C214.179 235.738 213.731 237.448 213.795 239.178C213.859 240.907 214.431 242.578 215.44 243.985C216.298 245.099 217.241 246.145 218.259 247.114C219.547 248.388 220.993 249.759 222.2 251.084C223.209 252.085 224.045 253.247 224.674 254.522C225.082 255.819 225.387 257.146 225.584 258.491C226.507 263.252 228.251 270.344 235.58 273.741C245.56 278.366 297.098 317.295 335.558 324.756C340.101 325.313 344.694 325.313 349.237 324.756L420.836 368.074" stroke="black" stroke-width="0.68901" stroke-linecap="round" stroke-linejoin="round"/>
<path d="M243.791 236.24H243.805C245.997 238.507 247.884 241.047 249.421 243.8C249.821 244.519 250.171 245.265 250.469 246.033C250.469 246.033 270.234 258.249 273.417 260.015C273.417 260.015 293.718 249.244 299.906 246.238C299.906 246.238 293.277 239.444 291.843 237.645L291.824 237.631" stroke="black" stroke-width="0.68901" stroke-linecap="round" stroke-linejoin="round"/>
<path d="M222.204 251.078C222.204 251.078 224.299 243.524 226.041 241.546C227.784 239.568 223.319 234.986 220.467 232.94" stroke="black" stroke-width="0.68901" stroke-linecap="round" stroke-linejoin="round"/>
<path d="M228.928 252.444C227.857 254.092 225.18 256.566 225.587 258.481" stroke="black" stroke-width="0.68901" stroke-linecap="round" stroke-linejoin="round"/>
<path d="M280.91 224.181C280.91 224.181 280.881 224.16 280.833 224.119C278.222 221.911 275.892 219.388 273.9 216.607C273.9 216.607 270.687 222.676 264.997 224.181C262.441 224.824 259.792 225.011 257.169 224.738C256.043 224.64 254.924 224.454 253.826 224.181" stroke="black" stroke-width="0.68901" stroke-linecap="round" stroke-linejoin="round"/>
<path d="M257.165 224.856C256.663 225.824 256.095 226.753 255.462 227.641C253.013 231.302 249.512 234.136 245.421 235.771C244.905 235.95 244.361 236.109 243.815 236.248C243.511 236.316 243.208 236.378 242.892 236.426C235.848 237.646 229.715 236.048 230.04 230.5C230.372 227.907 231.355 225.44 232.896 223.326C238.292 214.953 239.511 210.39 241.373 207.924C241.975 207.092 242.795 206.444 243.743 206.049C244.457 205.746 245.485 205.298 246.733 204.753C252.225 202.315 262.025 197.815 268.551 194.4C276.551 190.216 279.095 191.127 283.829 193.126C288.563 195.125 312.746 208.768 312.746 208.768" stroke="black" stroke-width="0.68901" stroke-linecap="round" stroke-linejoin="round"/>
<path d="M321.885 196.974C319.604 196.051 314.882 193.9 309.404 191.455C298.227 186.457 283.907 180.181 280.91 180.489C269.808 181.614 253.207 195.685 246.715 204.765" stroke="black" stroke-width="0.68901" stroke-linecap="round" stroke-linejoin="round"/>
<path d="M255.459 227.64L280.833 224.118L320.595 218.599" stroke="black" stroke-width="0.68901" stroke-linecap="round" stroke-linejoin="round"/>
<path d="M322.773 233.359L291.845 237.652L250.07 243.455" stroke="black" stroke-width="0.68901" stroke-linecap="round" stroke-linejoin="round"/>
<path d="M208.827 238.045L200.791 242.918L207.201 244.571L208.64 244.944L218.006 247.363" stroke="black" stroke-width="0.68901" stroke-linecap="round" stroke-linejoin="round"/>
<path d="M215.07 234.255L208.828 238.044" stroke="black" stroke-width="0.68901" stroke-linecap="round" stroke-linejoin="round"/>
<path d="M330.856 232.159L322.773 233.359C320.994 233.362 319.278 232.695 317.968 231.49C316.658 230.287 315.849 228.634 315.703 226.86C315.703 226.833 315.703 226.799 315.703 226.778C315.398 225.053 315.726 223.275 316.626 221.774C317.525 220.271 318.937 219.143 320.603 218.599L328.635 217.406" stroke="black" stroke-width="0.68901" stroke-linecap="round" stroke-linejoin="round"/>
<path d="M330.856 232.16L334.467 231.624C336.418 231.33 338.173 230.273 339.347 228.688C340.522 227.101 341.02 225.116 340.733 223.163C340.445 221.21 339.396 219.452 337.816 218.272C336.234 217.091 334.249 216.585 332.297 216.864L328.678 217.399C328.664 217.398 328.652 217.398 328.637 217.399C328.148 217.551 323.807 219.006 324.855 225.967C324.987 227.535 325.656 229.005 326.751 230.135C327.843 231.263 329.294 231.979 330.856 232.16Z" stroke="black" stroke-width="0.68901" stroke-linecap="round" stroke-linejoin="round"/>
<path d="M200.792 242.918L196.721 243.311" stroke="black" stroke-width="0.68901" stroke-linecap="round" stroke-linejoin="round"/>
<path d="M134.429 191.22H90.8914C88.4515 191.219 86.1117 190.25 84.3865 188.524C82.6613 186.799 81.6919 184.459 81.6914 182.02V85.0817C81.6924 82.642 82.6619 80.3026 84.387 78.5774C86.1121 76.8523 88.4516 75.8827 90.8914 75.8818H134.429C136.869 75.8822 139.209 76.8516 140.934 78.5768C142.659 80.302 143.629 82.6418 143.629 85.0817V182.02C143.629 184.459 142.659 186.799 140.934 188.524C139.209 190.25 136.869 191.219 134.429 191.22Z" stroke="black" stroke-width="0.68901" stroke-linecap="round" stroke-linejoin="round"/>
<path d="M134.395 185.864H90.9214C90.6209 185.864 90.3234 185.805 90.0458 185.69C89.7684 185.575 89.5162 185.406 89.3039 185.194C89.0915 184.981 88.9231 184.729 88.8083 184.451C88.6935 184.174 88.6345 183.876 88.6348 183.576V85.0439C88.6341 84.7431 88.6927 84.4452 88.8073 84.1671C88.9219 83.8892 89.0902 83.6364 89.3026 83.4235C89.515 83.2105 89.7673 83.0417 90.0451 82.9265C90.3228 82.8112 90.6206 82.752 90.9214 82.752H134.395C135.003 82.7514 135.586 82.992 136.016 83.4212C136.447 83.8503 136.689 84.4325 136.691 85.0403V183.572C136.691 183.873 136.631 184.172 136.516 184.45C136.4 184.728 136.231 184.981 136.018 185.194C135.805 185.407 135.552 185.576 135.273 185.691C134.995 185.806 134.696 185.865 134.395 185.864Z" stroke="black" stroke-width="0.68901" stroke-linecap="round" stroke-linejoin="round"/>
<path d="M100.113 79.252H123.067" stroke="black" stroke-width="0.68901" stroke-linecap="round" stroke-linejoin="round"/>
<path d="M127.124 61.0996H111.586" stroke="black" stroke-width="0.68901" stroke-linecap="round" stroke-linejoin="round"/>
<path d="M100.161 66.9165C103.762 66.9165 106.68 63.9981 106.68 60.3977C106.68 56.7976 103.762 53.8789 100.161 53.8789C96.5612 53.8789 93.6426 56.7976 93.6426 60.3977C93.6426 63.9981 96.5612 66.9165 100.161 66.9165Z" stroke="black" stroke-width="0.68901" stroke-linecap="round" stroke-linejoin="round"/>
<path d="M163.034 355.644H119.489C118.281 355.644 117.084 355.407 115.968 354.945C114.852 354.482 113.837 353.804 112.983 352.951C112.129 352.096 111.451 351.082 110.989 349.965C110.527 348.849 110.289 347.653 110.289 346.445V249.505C110.289 248.296 110.527 247.1 110.989 245.985C111.451 244.867 112.129 243.853 112.983 243C113.838 242.145 114.852 241.469 115.968 241.006C117.085 240.544 118.281 240.307 119.489 240.307H163.034C165.474 240.307 167.813 241.276 169.538 243C171.263 244.726 172.233 247.065 172.234 249.505V346.445C172.233 348.885 171.263 351.223 169.538 352.949C167.813 354.673 165.474 355.643 163.034 355.644Z" stroke="black" stroke-width="0.68901" stroke-linecap="round" stroke-linejoin="round"/>
<path d="M162.994 350.282H119.517C118.91 350.281 118.329 350.04 117.9 349.611C117.471 349.183 117.229 348.601 117.229 347.994V249.471C117.229 248.864 117.47 248.282 117.899 247.852C118.328 247.424 118.91 247.183 119.517 247.183H162.994C163.295 247.183 163.592 247.242 163.869 247.358C164.147 247.472 164.399 247.64 164.612 247.854C164.824 248.066 164.992 248.318 165.107 248.595C165.222 248.873 165.281 249.171 165.281 249.471V347.994C165.28 348.601 165.039 349.183 164.611 349.611C164.182 350.04 163.6 350.281 162.994 350.282Z" stroke="black" stroke-width="0.68901" stroke-linecap="round" stroke-linejoin="round"/>
<path d="M128.703 243.674H151.658" stroke="black" stroke-width="0.68901" stroke-linecap="round" stroke-linejoin="round"/>
<path d="M155.724 225.53H140.184" stroke="black" stroke-width="0.68901" stroke-linecap="round" stroke-linejoin="round"/>
<path d="M135.271 224.821C135.271 226.11 134.889 227.37 134.173 228.441C133.457 229.514 132.44 230.349 131.249 230.842C130.058 231.335 128.748 231.465 127.484 231.213C126.22 230.961 125.059 230.34 124.148 229.43C123.237 228.518 122.616 227.356 122.365 226.092C122.114 224.828 122.243 223.518 122.737 222.327C123.231 221.137 124.066 220.119 125.138 219.404C126.21 218.688 127.47 218.308 128.759 218.308C130.486 218.308 132.142 218.995 133.364 220.216C134.585 221.437 135.271 223.093 135.271 224.821Z" stroke="black" stroke-width="0.68901" stroke-linecap="round" stroke-linejoin="round"/>
<path d="M260.25 169.767H216.712C215.504 169.767 214.308 169.529 213.192 169.067C212.077 168.604 211.063 167.927 210.209 167.072C209.355 166.218 208.678 165.203 208.217 164.087C207.755 162.971 207.518 161.775 207.52 160.567V63.6413C207.519 62.4334 207.756 61.2373 208.217 60.1211C208.679 59.0049 209.356 57.9907 210.21 57.1364C211.063 56.2819 212.077 55.6042 213.193 55.1418C214.309 54.6794 215.505 54.4414 216.712 54.4414H260.25C261.459 54.4403 262.655 54.6777 263.772 55.1397C264.888 55.6017 265.904 56.2794 266.759 57.1337C267.612 57.9882 268.29 59.0028 268.752 60.1195C269.215 61.236 269.45 62.4329 269.45 63.6413V160.567C269.452 161.775 269.215 162.972 268.752 164.089C268.29 165.205 267.614 166.22 266.759 167.075C265.904 167.929 264.89 168.607 263.772 169.069C262.655 169.531 261.459 169.768 260.25 169.767Z" stroke="black" stroke-width="0.68901" stroke-linecap="round" stroke-linejoin="round"/>
<path d="M260.221 164.413H216.744C216.137 164.411 215.556 164.169 215.128 163.74C214.699 163.311 214.458 162.73 214.457 162.123V63.5911C214.458 62.9847 214.699 62.4032 215.127 61.9743C215.556 61.5451 216.137 61.3038 216.744 61.3027H260.221C260.828 61.3033 261.409 61.5446 261.838 61.9735C262.268 62.4026 262.509 62.9844 262.509 63.5911V162.123C262.509 162.73 262.266 163.312 261.838 163.741C261.409 164.17 260.828 164.412 260.221 164.413Z" stroke="black" stroke-width="0.68901" stroke-linecap="round" stroke-linejoin="round"/>
<path d="M225.934 57.8066H248.887" stroke="black" stroke-width="0.68901" stroke-linecap="round" stroke-linejoin="round"/>
<path d="M252.952 39.6543H237.412" stroke="black" stroke-width="0.68901" stroke-linecap="round" stroke-linejoin="round"/>
<path d="M232.499 38.9583C232.499 40.247 232.116 41.5069 231.4 42.5782C230.684 43.6498 229.666 44.4848 228.475 44.9778C227.284 45.4708 225.974 45.5997 224.71 45.3482C223.446 45.0967 222.285 44.476 221.374 43.5648C220.462 42.6534 219.842 41.4924 219.59 40.2283C219.339 38.9643 219.468 37.6541 219.961 36.4634C220.454 35.2726 221.289 34.2548 222.36 33.5385C223.432 32.8223 224.691 32.4398 225.98 32.4395C226.836 32.4392 227.684 32.6077 228.475 32.9352C229.266 33.2627 229.985 33.7429 230.59 34.3483C231.196 34.9536 231.676 35.6724 232.003 36.4634C232.331 37.2544 232.499 38.1022 232.499 38.9583Z" stroke="black" stroke-width="0.68901" stroke-linecap="round" stroke-linejoin="round"/>
<path d="M384.641 191.22H341.103C338.663 191.219 336.323 190.25 334.599 188.524C332.873 186.799 331.903 184.459 331.903 182.02V85.0817C331.905 82.642 332.874 80.3026 334.599 78.5774C336.325 76.8523 338.663 75.8827 341.103 75.8818H384.641C385.85 75.8815 387.046 76.1192 388.163 76.5816C389.279 77.0439 390.292 77.7215 391.147 78.5758C392.001 79.4302 392.679 80.4445 393.141 81.5608C393.604 82.677 393.841 83.8735 393.841 85.0817V182.02C393.841 183.228 393.604 184.424 393.141 185.541C392.679 186.657 392.002 187.672 391.147 188.526C390.292 189.38 389.279 190.058 388.163 190.52C387.046 190.982 385.85 191.22 384.641 191.22Z" stroke="black" stroke-width="0.68901" stroke-linecap="round" stroke-linejoin="round"/>
<path d="M384.615 185.864H341.138C340.531 185.863 339.951 185.621 339.523 185.192C339.093 184.763 338.852 184.182 338.852 183.575V85.0433C338.853 84.4369 339.094 83.8557 339.523 83.4268C339.951 82.998 340.531 82.7563 341.138 82.7549H384.615C385.222 82.7563 385.802 82.9978 386.233 83.4268C386.661 83.8555 386.902 84.4367 386.904 85.0433V183.575C386.904 184.182 386.661 184.763 386.233 185.192C385.804 185.621 385.222 185.863 384.615 185.864Z" stroke="black" stroke-width="0.68901" stroke-linecap="round" stroke-linejoin="round"/>
<path d="M350.325 79.252H373.279" stroke="black" stroke-width="0.68901" stroke-linecap="round" stroke-linejoin="round"/>
<path d="M377.337 61.0996H361.797" stroke="black" stroke-width="0.68901" stroke-linecap="round" stroke-linejoin="round"/>
<path d="M350.373 66.9165C353.974 66.9165 356.892 63.9981 356.892 60.3977C356.892 56.7976 353.974 53.8789 350.373 53.8789C346.773 53.8789 343.854 56.7976 343.854 60.3977C343.854 63.9981 346.773 66.9165 350.373 66.9165Z" stroke="black" stroke-width="0.68901" stroke-linecap="round" stroke-linejoin="round"/>
<path d="M186.122 286.581C186.121 287.233 185.928 287.868 185.566 288.409C185.204 288.95 184.69 289.371 184.088 289.619C183.487 289.867 182.825 289.933 182.187 289.805C181.549 289.678 180.963 289.364 180.503 288.905C180.042 288.445 179.729 287.858 179.602 287.22C179.475 286.581 179.54 285.919 179.79 285.319C180.039 284.718 180.46 284.204 181.001 283.841C181.542 283.479 182.178 283.286 182.829 283.286C183.262 283.286 183.69 283.372 184.09 283.536C184.49 283.702 184.853 283.945 185.159 284.25C185.465 284.557 185.707 284.919 185.872 285.319C186.038 285.719 186.123 286.149 186.122 286.581Z" stroke="black" stroke-width="0.68901" stroke-linecap="round" stroke-linejoin="round"/>
<path d="M186.122 315.171C186.123 315.822 185.931 316.46 185.57 317.001C185.209 317.543 184.696 317.966 184.094 318.216C183.493 318.466 182.831 318.532 182.192 318.405C181.554 318.279 180.967 317.966 180.506 317.506C180.045 317.047 179.731 316.46 179.603 315.822C179.475 315.183 179.54 314.521 179.789 313.92C180.037 313.318 180.459 312.802 181 312.442C181.541 312.079 182.178 311.885 182.829 311.885C183.261 311.885 183.689 311.969 184.088 312.133C184.488 312.299 184.851 312.54 185.157 312.845C185.462 313.15 185.705 313.513 185.871 313.913C186.036 314.311 186.122 314.739 186.122 315.171Z" stroke="black" stroke-width="0.68901" stroke-linecap="round" stroke-linejoin="round"/>
<path d="M186.467 315.171H274.681V298.729" stroke="black" stroke-width="0.68901" stroke-linecap="round" stroke-linejoin="round"/>
<path d="M154.235 95.2957C156.051 95.2957 157.523 93.8236 157.523 92.0077C157.523 90.1916 156.051 88.7197 154.235 88.7197C152.419 88.7197 150.947 90.1916 150.947 92.0077C150.947 93.8236 152.419 95.2957 154.235 95.2957Z" stroke="black" stroke-width="0.68901" stroke-linecap="round" stroke-linejoin="round"/>
<path d="M157.523 92.0068H182.829V196.752H253.546" stroke="black" stroke-width="0.68901" stroke-linecap="round" stroke-linejoin="round"/>
<path d="M191.585 243.31H186.121V207.93H241.354H241.361" stroke="black" stroke-width="0.68901" stroke-linecap="round" stroke-linejoin="round"/>
<path d="M326.541 90.4698C326.541 91.1201 326.348 91.7561 325.988 92.2969C325.627 92.8379 325.113 93.2596 324.513 93.5087C323.912 93.7578 323.251 93.8233 322.612 93.6965C321.975 93.5698 321.39 93.2569 320.929 92.7971C320.469 92.3372 320.156 91.7514 320.028 91.1136C319.901 90.4759 319.967 89.8145 320.215 89.2137C320.465 88.6128 320.886 88.0991 321.427 87.7378C321.966 87.3764 322.603 87.1836 323.253 87.1836C324.124 87.184 324.961 87.5304 325.577 88.1464C326.193 88.7626 326.539 89.5982 326.541 90.4698Z" stroke="black" stroke-width="0.68901" stroke-linecap="round" stroke-linejoin="round"/>
<path d="M280.366 78.033C282.181 78.033 283.654 76.5609 283.654 74.745C283.654 72.9289 282.181 71.457 280.366 71.457C278.551 71.457 277.078 72.9289 277.078 74.745C277.078 76.5609 278.551 78.033 280.366 78.033Z" stroke="black" stroke-width="0.68901" stroke-linecap="round" stroke-linejoin="round"/>
<path d="M323.256 122.357C325.071 122.357 326.544 120.885 326.544 119.069C326.544 117.253 325.071 115.781 323.256 115.781C321.44 115.781 319.968 117.253 319.968 119.069C319.968 120.885 321.44 122.357 323.256 122.357Z" stroke="black" stroke-width="0.68901" stroke-linecap="round" stroke-linejoin="round"/>
<path d="M323.256 136.657C325.071 136.657 326.544 135.185 326.544 133.369C326.544 131.553 325.071 130.081 323.256 130.081C321.44 130.081 319.968 131.553 319.968 133.369C319.968 135.185 321.44 136.657 323.256 136.657Z" stroke="black" stroke-width="0.68901" stroke-linecap="round" stroke-linejoin="round"/>
<path d="M326.541 147.664C326.539 148.314 326.347 148.95 325.984 149.49C325.622 150.03 325.108 150.45 324.508 150.698C323.906 150.946 323.246 151.011 322.609 150.883C321.972 150.756 321.386 150.442 320.925 149.982C320.467 149.522 320.154 148.936 320.028 148.298C319.901 147.661 319.967 147 320.217 146.4C320.465 145.799 320.886 145.286 321.427 144.925C321.968 144.564 322.603 144.371 323.253 144.371C323.685 144.371 324.114 144.456 324.513 144.622C324.911 144.787 325.274 145.03 325.581 145.336C325.886 145.642 326.127 146.005 326.293 146.404C326.457 146.804 326.541 147.232 326.541 147.664Z" stroke="black" stroke-width="0.68901" stroke-linecap="round" stroke-linejoin="round"/>
<path d="M280.365 78.0322V119.069H295.87H319.969" stroke="black" stroke-width="0.68901" stroke-linecap="round" stroke-linejoin="round"/>
<path d="M319.969 133.369H308.984V190.737" stroke="black" stroke-width="0.68901" stroke-linecap="round" stroke-linejoin="round"/>
<path d="M319.971 147.667H315.656V190.737" stroke="black" stroke-width="0.68901" stroke-linecap="round" stroke-linejoin="round"/>
<path d="M319.968 90.4707H295.869V119.07V185.142" stroke="black" stroke-width="0.68901" stroke-linecap="round" stroke-linejoin="round"/>
<path d="M112.661 130.661C122.743 130.661 130.917 122.488 130.917 112.406C130.917 102.324 122.743 94.1504 112.661 94.1504C102.579 94.1504 94.4062 102.324 94.4062 112.406C94.4062 122.488 102.579 130.661 112.661 130.661Z" stroke="black" stroke-width="0.68901" stroke-linecap="round" stroke-linejoin="round"/>
<path d="M94.8867 141.382H128.289" stroke="black" stroke-width="0.68901" stroke-linecap="round" stroke-linejoin="round"/>
<path d="M94.8867 152.106H128.289" stroke="black" stroke-width="0.68901" stroke-linecap="round" stroke-linejoin="round"/>
<path d="M94.8867 162.828H128.289" stroke="black" stroke-width="0.68901" stroke-linecap="round" stroke-linejoin="round"/>
<path d="M156.634 256.011H123.734V270.867H156.634V256.011Z" stroke="black" stroke-width="0.68901" stroke-linecap="round" stroke-linejoin="round"/>
<path d="M156.634 277.456H123.734V292.313H156.634V277.456Z" stroke="black" stroke-width="0.68901" stroke-linecap="round" stroke-linejoin="round"/>
<path d="M156.634 298.901H123.734V339.938H156.634V298.901Z" stroke="black" stroke-width="0.68901" stroke-linecap="round" stroke-linejoin="round"/>
<path d="M372.478 101.612C372.478 103.512 371.915 105.369 370.861 106.949C369.806 108.528 368.306 109.76 366.552 110.487C364.797 111.215 362.867 111.405 361.004 111.035C359.14 110.665 357.428 109.751 356.086 108.408C354.742 107.066 353.826 105.355 353.457 103.492C353.086 101.629 353.275 99.6982 354.001 97.9432C354.728 96.1882 355.958 94.6879 357.537 93.6324C359.117 92.5768 360.973 92.0131 362.873 92.0127C365.42 92.0123 367.862 93.0234 369.663 94.8235C371.464 96.6239 372.476 99.0659 372.478 101.612Z" stroke="black" stroke-width="0.68901" stroke-linecap="round" stroke-linejoin="round"/>
<path d="M349.346 120.929H376.408" stroke="black" stroke-width="0.68901" stroke-linecap="round" stroke-linejoin="round"/>
<path d="M349.346 128.076H376.408" stroke="black" stroke-width="0.68901" stroke-linecap="round" stroke-linejoin="round"/>
<path d="M372.478 146.648C372.478 148.547 371.914 150.403 370.858 151.982C369.803 153.561 368.303 154.791 366.549 155.518C364.794 156.244 362.862 156.434 361.001 156.063C359.137 155.692 357.427 154.777 356.083 153.434C354.741 152.091 353.827 150.38 353.456 148.518C353.086 146.655 353.275 144.724 354.002 142.97C354.728 141.215 355.96 139.715 357.538 138.66C359.118 137.605 360.974 137.041 362.873 137.041C364.135 137.041 365.385 137.289 366.55 137.772C367.716 138.255 368.774 138.962 369.667 139.854C370.558 140.747 371.266 141.806 371.748 142.971C372.23 144.137 372.478 145.386 372.478 146.648Z" stroke="black" stroke-width="0.68901" stroke-linecap="round" stroke-linejoin="round"/>
<path d="M349.346 165.963H376.408" stroke="black" stroke-width="0.68901" stroke-linecap="round" stroke-linejoin="round"/>
<path d="M349.346 173.117H376.408" stroke="black" stroke-width="0.68901" stroke-linecap="round" stroke-linejoin="round"/>
<path d="M186.121 286.581H255.459" stroke="black" stroke-width="0.68901" stroke-linecap="round" stroke-linejoin="round"/>
</svg>
