<svg width="357" height="357" viewBox="0 0 357 357" fill="none" xmlns="http://www.w3.org/2000/svg">
<path d="M84.6337 234.011H51.7344V248.867H84.6337V234.011Z" fill="black"/>
<path d="M84.6337 255.456H51.7344V270.313H84.6337V255.456Z" fill="black"/>
<path d="M84.6337 276.901H51.7344V317.938H84.6337V276.901Z" fill="black"/>
<path d="M290.873 70.0068C292.772 70.0068 294.627 70.5698 296.207 71.6246C297.785 72.6795 299.015 74.1787 299.743 75.9329C300.469 77.687 300.659 79.6173 300.289 81.4794C299.918 83.3415 299.004 85.0521 297.662 86.3946C296.319 87.7371 294.607 88.6513 292.746 89.0219C290.884 89.3923 288.954 89.2022 287.2 88.4755C285.445 87.749 283.946 86.5186 282.891 84.94C281.836 83.3611 281.273 81.5053 281.273 79.6066C281.273 77.0608 282.286 74.6196 284.087 72.8196C285.886 71.0195 288.328 70.0077 290.873 70.0068Z" fill="black"/>
<path d="M290.873 115.041C292.772 115.04 294.629 115.603 296.209 116.658C297.788 117.712 299.02 119.212 299.748 120.966C300.475 122.72 300.666 124.651 300.296 126.514C299.927 128.377 299.013 130.089 297.67 131.432C296.326 132.776 294.616 133.691 292.753 134.062C290.891 134.434 288.96 134.244 287.205 133.518C285.45 132.792 283.949 131.562 282.894 129.983C281.837 128.404 281.273 126.547 281.273 124.648C281.273 122.101 282.284 119.658 284.085 117.857C285.884 116.055 288.326 115.042 290.873 115.041Z" fill="black"/>
<path d="M40.6614 108.661C50.7435 108.661 58.9166 100.488 58.9166 90.4056C58.9166 80.3236 50.7435 72.1504 40.6614 72.1504C30.5794 72.1504 22.4062 80.3236 22.4062 90.4056C22.4062 100.488 30.5794 108.661 40.6614 108.661Z" fill="black"/>
<path d="M208.366 56.033C210.181 56.033 211.654 54.5609 211.654 52.745C211.654 50.9289 210.181 49.457 208.366 49.457C206.551 49.457 205.078 50.9289 205.078 52.745C205.078 54.5609 206.551 56.033 208.366 56.033Z" fill="black"/>
<path d="M82.2352 73.2957C84.0511 73.2957 85.5232 71.8236 85.5232 70.0077C85.5232 68.1916 84.0511 66.7197 82.2352 66.7197C80.4194 66.7197 78.9473 68.1916 78.9473 70.0077C78.9473 71.8236 80.4194 73.2957 82.2352 73.2957Z" fill="black"/>
<path d="M56.763 196.308C58.0521 196.308 59.3121 196.691 60.3837 197.407C61.4552 198.123 62.2902 199.142 62.7831 200.333C63.2759 201.523 63.4046 202.834 63.1526 204.099C62.9007 205.363 62.2795 206.523 61.3676 207.435C60.4558 208.346 59.2943 208.967 58.0298 209.217C56.7655 209.468 55.4551 209.338 54.2645 208.844C53.0737 208.351 52.0563 207.514 51.3407 206.443C50.6251 205.37 50.2436 204.11 50.2441 202.821C50.244 201.966 50.4125 201.118 50.74 200.327C51.0677 199.537 51.5479 198.817 52.1534 198.212C52.7589 197.609 53.4775 197.129 54.2686 196.802C55.0595 196.474 55.9072 196.306 56.763 196.308Z" fill="#FFE8BB"/>
<path d="M278.374 44.9165C281.975 44.9165 284.893 41.9981 284.893 38.3977C284.893 34.7976 281.975 31.8789 278.374 31.8789C274.774 31.8789 271.855 34.7976 271.855 38.3977C271.855 41.9981 274.774 44.9165 278.374 44.9165Z" fill="#FFE8BB"/>
<path d="M153.978 10.4326C155.268 10.4315 156.528 10.8128 157.601 11.5281C158.673 12.2435 159.51 13.2608 160.004 14.4514C160.499 15.6421 160.629 16.9526 160.378 18.2174C160.128 19.482 159.508 20.6441 158.598 21.5566C157.687 22.4691 156.526 23.0909 155.262 23.3437C153.998 23.5965 152.687 23.4687 151.495 22.9765C150.304 22.4844 149.285 21.6501 148.567 20.5789C147.85 19.5077 147.466 18.2477 147.465 16.9586C147.463 16.1022 147.631 15.2538 147.957 14.4621C148.284 13.6704 148.763 12.9509 149.368 12.3448C149.973 11.7386 150.692 11.2577 151.483 10.9296C152.274 10.6015 153.122 10.4326 153.978 10.4326Z" fill="#FFE8BB"/>
<path d="M28.1614 44.9165C31.7617 44.9165 34.6802 41.9981 34.6802 38.3977C34.6802 34.7976 31.7617 31.8789 28.1614 31.8789C24.5612 31.8789 21.6426 34.7976 21.6426 38.3977C21.6426 41.9981 24.5612 44.9165 28.1614 44.9165Z" fill="#FFE8BB"/>
<path d="M258.856 210.159L250.773 211.359C248.994 211.362 247.278 210.695 245.968 209.49C244.658 208.287 243.849 206.634 243.703 204.86C243.703 204.833 243.703 204.799 243.703 204.778C243.398 203.053 243.726 201.275 244.626 199.774C245.525 198.271 246.937 197.143 248.603 196.599L256.635 195.406C256.146 195.558 251.805 197.013 252.853 203.974C252.987 205.54 253.656 207.011 254.75 208.139C255.845 209.265 257.296 209.979 258.856 210.159Z" fill="#2F4E37"/>
<path d="M314.904 63.0403V161.572C314.904 162.179 314.661 162.76 314.233 163.189C313.804 163.618 313.222 163.86 312.615 163.861H269.138C268.531 163.86 267.951 163.618 267.523 163.189C267.093 162.76 266.852 162.179 266.852 161.572V63.0403C266.853 62.434 267.094 61.8528 267.523 61.4238C267.951 60.9949 268.531 60.7534 269.138 60.752H312.615C313.222 60.7532 313.802 60.9949 314.233 61.4237C314.661 61.8526 314.902 62.4338 314.904 63.0403ZM300.479 79.6123C300.479 77.7127 299.917 75.8557 298.862 74.276C297.809 72.6965 296.309 71.465 294.555 70.7376C292.8 70.01 290.869 69.8192 289.005 70.1892C287.142 70.5593 285.432 71.4734 284.088 72.8162C282.743 74.1589 281.829 75.8698 281.458 77.7327C281.087 79.5955 281.276 81.5265 282.003 83.2815C282.729 85.0365 283.961 86.5368 285.539 87.5923C287.118 88.6479 288.975 89.2116 290.874 89.212C293.421 89.2124 295.863 88.2013 297.664 86.4012C299.465 84.6008 300.479 82.1587 300.479 79.6123ZM300.479 124.653C300.479 122.754 299.917 120.897 298.862 119.317C297.809 117.737 296.309 116.506 294.555 115.779C292.8 115.051 290.869 114.86 289.005 115.23C287.142 115.6 285.432 116.514 284.088 117.857C282.743 119.2 281.829 120.911 281.458 122.774C281.087 124.636 281.276 126.567 282.003 128.322C282.729 130.077 283.961 131.578 285.539 132.633C287.118 133.689 288.975 134.253 290.874 134.253C293.421 134.253 295.865 133.241 297.666 131.44C299.467 129.638 300.479 127.195 300.479 124.648V124.653Z" fill="#2F4E37"/>
<path d="M93.2807 227.471V325.994C93.2802 326.601 93.0392 327.183 92.6106 327.611C92.1819 328.04 91.6005 328.281 90.9941 328.282H47.5169C46.9102 328.281 46.3288 328.04 45.8999 327.611C45.4709 327.183 45.2294 326.601 45.2285 325.994V227.471C45.2285 226.864 45.4697 226.282 45.8988 225.852C46.3279 225.424 46.91 225.183 47.5169 225.183H90.9941C91.2945 225.183 91.5921 225.242 91.8695 225.358C92.1471 225.472 92.3993 225.64 92.6115 225.854C92.8239 226.066 92.9924 226.318 93.1072 226.595C93.222 226.873 93.2809 227.171 93.2807 227.471ZM84.6324 317.938V276.901H51.7348V317.938H84.6324ZM84.6324 270.315V255.456H51.7348V270.315H84.6324ZM84.6324 248.868V234.015H51.7348V248.871L84.6324 248.868Z" fill="#2F4E37"/>
<path d="M190.509 41.5911V140.123C190.509 140.731 190.27 141.314 189.84 141.744C189.411 142.175 188.829 142.417 188.221 142.419H144.744C144.136 142.417 143.554 142.174 143.126 141.744C142.697 141.313 142.456 140.731 142.457 140.123V41.5911C142.458 40.9847 142.699 40.4032 143.127 39.9743C143.556 39.5451 144.137 39.3038 144.744 39.3027H188.221C188.828 39.3033 189.409 39.5446 189.838 39.9735C190.268 40.4026 190.509 40.9844 190.509 41.5911Z" fill="#2F4E37"/>
<path d="M64.6905 63.0403V161.572C64.6905 161.873 64.6311 162.172 64.5158 162.45C64.4003 162.728 64.2313 162.981 64.018 163.194C63.8048 163.407 63.5517 163.576 63.2733 163.691C62.9948 163.806 62.6963 163.865 62.395 163.864H18.9214C18.6209 163.864 18.3234 163.805 18.0458 163.69C17.7684 163.575 17.5162 163.406 17.3039 163.194C17.0915 162.981 16.9231 162.729 16.8083 162.451C16.6935 162.174 16.6345 161.876 16.6348 161.576V63.0439C16.6341 62.7431 16.6927 62.4452 16.8073 62.1671C16.9219 61.8892 17.0902 61.6364 17.3026 61.4235C17.515 61.2105 17.7673 61.0417 18.0451 60.9265C18.3228 60.8112 18.6206 60.752 18.9214 60.752H62.395C63.0028 60.7514 63.5858 60.992 64.0162 61.4212C64.4465 61.8503 64.6891 62.4325 64.6905 63.0403ZM58.9161 90.4062C58.9164 86.7955 57.8461 83.2658 55.8403 80.2636C53.8347 77.2612 50.9837 74.9211 47.6481 73.5392C44.3124 72.1572 40.6418 71.7954 37.1005 72.4996C33.5592 73.2038 30.3063 74.9423 27.7532 77.4953C25.1999 80.0483 23.4611 83.301 22.7566 86.8422C22.0521 90.3835 22.4135 94.054 23.7951 97.3898C25.1767 100.726 27.5165 103.577 30.5187 105.583C33.5207 107.589 37.0502 108.66 40.6609 108.66C45.5022 108.66 50.1451 106.736 53.5686 103.313C56.992 99.8902 58.9155 95.2474 58.9161 90.4062Z" fill="#2F4E37"/>
<path d="M251.255 65.1836C251.906 65.1825 252.544 65.3748 253.086 65.7361C253.627 66.0973 254.05 66.6112 254.3 67.213C254.55 67.8147 254.616 68.4769 254.489 69.116C254.363 69.755 254.048 70.3419 253.588 70.8026C253.127 71.2631 252.54 71.5768 251.901 71.7037C251.262 71.8304 250.6 71.7649 249.998 71.515C249.397 71.2653 248.883 70.8426 248.52 70.3005C248.16 69.7584 247.967 69.1211 247.969 68.4698C247.969 67.5984 248.315 66.7628 248.931 66.1466C249.548 65.5304 250.384 65.184 251.255 65.1836Z" fill="black"/>
<path d="M251.257 100.357C253.072 100.357 254.545 98.8851 254.545 97.0692C254.545 95.2533 253.072 93.7812 251.257 93.7812C249.441 93.7812 247.969 95.2533 247.969 97.0692C247.969 98.8851 249.441 100.357 251.257 100.357Z" fill="black"/>
<path d="M251.257 114.657C253.072 114.657 254.545 113.185 254.545 111.369C254.545 109.553 253.072 108.081 251.257 108.081C249.441 108.081 247.969 109.553 247.969 111.369C247.969 113.185 249.441 114.657 251.257 114.657Z" fill="black"/>
<path d="M251.255 122.374C251.906 122.373 252.544 122.565 253.085 122.926C253.627 123.287 254.05 123.801 254.3 124.402C254.55 125.003 254.616 125.665 254.489 126.304C254.363 126.943 254.05 127.53 253.59 127.991C253.131 128.451 252.544 128.766 251.905 128.893C251.267 129.021 250.605 128.956 250.004 128.708C249.402 128.459 248.886 128.037 248.524 127.496C248.163 126.955 247.969 126.319 247.969 125.667C247.969 125.235 248.053 124.807 248.217 124.408C248.383 124.009 248.624 123.645 248.929 123.34C249.234 123.034 249.597 122.791 249.997 122.625C250.395 122.46 250.823 122.374 251.255 122.374Z" fill="black"/>
<path d="M110.829 261.286C111.48 261.286 112.117 261.477 112.658 261.839C113.2 262.2 113.622 262.714 113.872 263.314C114.122 263.915 114.188 264.578 114.062 265.217C113.935 265.856 113.622 266.441 113.163 266.902C112.703 267.364 112.117 267.678 111.478 267.805C110.84 267.933 110.178 267.869 109.576 267.619C108.975 267.371 108.46 266.95 108.098 266.409C107.735 265.868 107.542 265.233 107.541 264.581C107.54 263.708 107.887 262.871 108.503 262.254C109.12 261.636 109.956 261.288 110.829 261.286Z" fill="black"/>
<path d="M110.829 289.885C111.479 289.885 112.115 290.078 112.656 290.44C113.197 290.8 113.618 291.315 113.867 291.914C114.116 292.516 114.181 293.176 114.054 293.815C113.927 294.453 113.613 295.038 113.153 295.499C112.693 295.957 112.107 296.271 111.469 296.398C110.831 296.525 110.17 296.459 109.569 296.211C108.969 295.961 108.455 295.54 108.094 294.999C107.733 294.458 107.541 293.821 107.541 293.171C107.542 292.3 107.889 291.465 108.506 290.849C109.122 290.233 109.958 289.887 110.829 289.885Z" fill="black"/>
<path d="M185.169 202.738C187.791 203.011 190.44 202.824 192.996 202.181C198.681 200.671 201.9 194.607 201.9 194.607C203.892 197.388 206.221 199.911 208.833 202.119L183.459 205.633C184.093 204.746 184.662 203.816 185.162 202.849L185.169 202.738Z" fill="black"/>
<path d="M174.716 182.76C181.208 173.686 197.808 159.615 208.911 158.485C211.908 158.176 226.225 164.447 237.405 169.45C237.405 169.45 263.466 168.518 267.052 172.565C281.923 189.302 294.953 235.088 297.497 240.173C300.04 245.259 336.694 265.725 348.842 272.01V346.063L277.242 302.745C272.7 303.301 268.107 303.301 263.564 302.745C225.104 295.276 173.566 256.354 163.586 251.729C156.255 248.338 154.511 241.242 153.59 236.48C153.392 235.134 153.088 233.808 152.68 232.51C152.051 231.236 151.215 230.074 150.206 229.072C148.999 227.748 147.553 226.377 146.264 225.102C145.247 224.133 144.304 223.087 143.446 221.973C142.436 220.567 141.864 218.896 141.801 217.166C141.737 215.437 142.185 213.727 143.089 212.25C143.769 211.019 144.623 209.891 145.625 208.902C149.174 205.346 157.692 208.384 158.037 208.502C158.369 205.908 159.352 203.441 160.893 201.328C166.289 192.955 167.508 188.394 169.369 185.925C169.972 185.093 170.792 184.445 171.74 184.051C172.433 183.753 173.468 183.305 174.716 182.76ZM185.17 202.738V202.856C184.67 203.823 184.101 204.753 183.467 205.641C181.018 209.303 177.518 212.138 173.427 213.771C172.911 213.95 172.366 214.109 171.82 214.248C174.011 216.515 175.899 219.055 177.436 221.807C177.836 222.527 178.186 223.273 178.484 224.04C178.484 224.04 198.249 236.257 201.432 238.022C201.432 238.022 221.732 227.252 227.921 224.246C227.921 224.246 221.292 217.452 219.858 215.653L250.787 211.36L258.869 210.16L262.48 209.625C264.431 209.33 266.186 208.273 267.361 206.688C268.535 205.101 269.033 203.117 268.746 201.164C268.458 199.211 267.409 197.453 265.829 196.273C264.248 195.091 262.263 194.586 260.31 194.865L256.692 195.4C256.677 195.398 256.665 195.398 256.651 195.4L248.618 196.592L208.855 202.112C206.244 199.904 203.915 197.381 201.923 194.6C201.923 194.6 198.71 200.669 193.019 202.174C190.456 202.822 187.8 203.011 185.17 202.738Z" fill="#FFE8BB"/>
<path d="M348.842 272.015C336.693 265.73 300.038 245.256 297.496 240.177C294.955 235.099 281.922 189.305 267.052 172.569C263.467 168.522 237.406 169.454 237.406 169.454" stroke="black" stroke-width="0.68901" stroke-linecap="round" stroke-linejoin="round"/>
<path d="M158.031 208.513C157.686 208.396 149.168 205.357 145.62 208.913C144.617 209.902 143.763 211.028 143.083 212.262C142.179 213.738 141.731 215.448 141.795 217.178C141.859 218.907 142.431 220.578 143.44 221.985C144.298 223.099 145.241 224.145 146.259 225.114C147.547 226.388 148.993 227.759 150.2 229.084C151.209 230.085 152.045 231.247 152.674 232.522C153.082 233.819 153.387 235.146 153.584 236.491C154.507 241.252 156.251 248.344 163.58 251.741C173.56 256.366 225.098 295.295 263.558 302.756C268.101 303.313 272.694 303.313 277.237 302.756L348.836 346.074" stroke="black" stroke-width="0.68901" stroke-linecap="round" stroke-linejoin="round"/>
<path d="M171.791 214.24H171.805C173.997 216.507 175.884 219.047 177.421 221.8C177.821 222.519 178.171 223.265 178.469 224.033C178.469 224.033 198.234 236.249 201.417 238.015C201.417 238.015 221.718 227.244 227.906 224.238C227.906 224.238 221.277 217.444 219.843 215.645L219.824 215.631" stroke="black" stroke-width="0.68901" stroke-linecap="round" stroke-linejoin="round"/>
<path d="M150.204 229.078C150.204 229.078 152.299 221.524 154.041 219.546C155.784 217.568 151.319 212.986 148.467 210.94" stroke="black" stroke-width="0.68901" stroke-linecap="round" stroke-linejoin="round"/>
<path d="M156.928 230.444C155.857 232.092 153.18 234.566 153.587 236.481" stroke="black" stroke-width="0.68901" stroke-linecap="round" stroke-linejoin="round"/>
<path d="M208.91 202.181C208.91 202.181 208.881 202.16 208.833 202.119C206.222 199.911 203.892 197.388 201.9 194.607C201.9 194.607 198.687 200.676 192.997 202.181C190.441 202.824 187.792 203.011 185.169 202.738C184.043 202.64 182.924 202.454 181.826 202.181" stroke="black" stroke-width="0.68901" stroke-linecap="round" stroke-linejoin="round"/>
<path d="M185.165 202.856C184.663 203.824 184.095 204.753 183.462 205.641C181.013 209.302 177.512 212.136 173.421 213.771C172.905 213.95 172.361 214.109 171.815 214.248C171.511 214.316 171.208 214.378 170.892 214.426C163.848 215.646 157.715 214.048 158.04 208.5C158.372 205.907 159.355 203.44 160.896 201.326C166.292 192.953 167.511 188.39 169.373 185.924C169.975 185.092 170.795 184.444 171.743 184.049C172.457 183.746 173.485 183.298 174.733 182.753C180.225 180.315 190.025 175.815 196.551 172.4C204.551 168.216 207.095 169.127 211.829 171.126C216.563 173.125 240.746 186.768 240.746 186.768" stroke="black" stroke-width="0.68901" stroke-linecap="round" stroke-linejoin="round"/>
<path d="M249.885 174.974C247.604 174.051 242.882 171.9 237.404 169.455C226.227 164.457 211.907 158.181 208.91 158.489C197.808 159.614 181.207 173.685 174.715 182.765" stroke="black" stroke-width="0.68901" stroke-linecap="round" stroke-linejoin="round"/>
<path d="M183.459 205.64L208.833 202.118L248.595 196.599" stroke="black" stroke-width="0.68901" stroke-linecap="round" stroke-linejoin="round"/>
<path d="M250.773 211.359L219.845 215.652L178.07 221.455" stroke="black" stroke-width="0.68901" stroke-linecap="round" stroke-linejoin="round"/>
<path d="M136.827 216.045L128.791 220.918L135.201 222.571L136.64 222.944L146.006 225.363" stroke="black" stroke-width="0.68901" stroke-linecap="round" stroke-linejoin="round"/>
<path d="M143.07 212.255L136.828 216.044" stroke="black" stroke-width="0.68901" stroke-linecap="round" stroke-linejoin="round"/>
<path d="M258.856 210.159L250.773 211.359C248.994 211.362 247.278 210.695 245.968 209.49C244.658 208.287 243.849 206.634 243.703 204.86C243.703 204.833 243.703 204.799 243.703 204.778C243.398 203.053 243.726 201.275 244.626 199.774C245.525 198.271 246.937 197.143 248.603 196.599L256.635 195.406" stroke="black" stroke-width="0.68901" stroke-linecap="round" stroke-linejoin="round"/>
<path d="M258.855 210.16L262.466 209.624C264.417 209.33 266.172 208.273 267.346 206.688C268.521 205.101 269.019 203.116 268.732 201.163C268.444 199.21 267.395 197.452 265.815 196.272C264.233 195.091 262.248 194.585 260.296 194.864L256.677 195.399C256.663 195.398 256.651 195.398 256.636 195.399C256.147 195.551 251.806 197.006 252.854 203.967C252.986 205.535 253.655 207.005 254.75 208.135C255.842 209.263 257.293 209.979 258.855 210.16Z" stroke="black" stroke-width="0.68901" stroke-linecap="round" stroke-linejoin="round"/>
<path d="M128.792 220.918L124.721 221.311" stroke="black" stroke-width="0.68901" stroke-linecap="round" stroke-linejoin="round"/>
<path d="M62.4293 169.22H18.8914C16.4515 169.219 14.1117 168.25 12.3865 166.524C10.6613 164.799 9.69187 162.459 9.69141 160.02V63.0817C9.69235 60.642 10.6619 58.3026 12.387 56.5774C14.1121 54.8523 16.4516 53.8827 18.8914 53.8818H62.4293C64.869 53.8822 67.2088 54.8516 68.934 56.5768C70.6592 58.302 71.6287 60.6418 71.6292 63.0817V160.02C71.6287 162.459 70.6592 164.799 68.934 166.524C67.2088 168.25 64.869 169.219 62.4293 169.22Z" stroke="black" stroke-width="0.68901" stroke-linecap="round" stroke-linejoin="round"/>
<path d="M62.395 163.864H18.9214C18.6209 163.864 18.3234 163.805 18.0458 163.69C17.7684 163.575 17.5162 163.406 17.3039 163.194C17.0915 162.981 16.9231 162.729 16.8083 162.451C16.6935 162.174 16.6345 161.876 16.6348 161.576V63.0439C16.6341 62.7431 16.6927 62.4452 16.8073 62.1671C16.9219 61.8892 17.0902 61.6364 17.3026 61.4235C17.515 61.2105 17.7673 61.0417 18.0451 60.9265C18.3228 60.8112 18.6206 60.752 18.9214 60.752H62.395C63.0028 60.7514 63.5858 60.992 64.0162 61.4212C64.4465 61.8503 64.6891 62.4325 64.6905 63.0403V161.572C64.6905 161.873 64.6311 162.172 64.5158 162.45C64.4003 162.728 64.2313 162.981 64.018 163.194C63.8048 163.407 63.5517 163.576 63.2733 163.691C62.9948 163.806 62.6963 163.865 62.395 163.864Z" stroke="black" stroke-width="0.68901" stroke-linecap="round" stroke-linejoin="round"/>
<path d="M28.1133 57.252H51.0666" stroke="black" stroke-width="0.68901" stroke-linecap="round" stroke-linejoin="round"/>
<path d="M55.1244 39.0996H39.5859" stroke="black" stroke-width="0.68901" stroke-linecap="round" stroke-linejoin="round"/>
<path d="M28.1614 44.9165C31.7617 44.9165 34.6802 41.9981 34.6802 38.3977C34.6802 34.7976 31.7617 31.8789 28.1614 31.8789C24.5612 31.8789 21.6426 34.7976 21.6426 38.3977C21.6426 41.9981 24.5612 44.9165 28.1614 44.9165Z" stroke="black" stroke-width="0.68901" stroke-linecap="round" stroke-linejoin="round"/>
<path d="M91.034 333.644H47.489C46.2809 333.644 45.0844 333.407 43.968 332.945C42.8519 332.482 41.8375 331.804 40.9832 330.951C40.1289 330.096 39.4513 329.082 38.989 327.965C38.5266 326.849 38.2889 325.653 38.2891 324.445V227.505C38.2889 226.296 38.5266 225.1 38.989 223.985C39.4513 222.867 40.1289 221.853 40.9833 221C41.8376 220.145 42.8519 219.469 43.9682 219.006C45.0846 218.544 46.2809 218.307 47.489 218.307H91.034C93.4736 218.307 95.813 219.276 97.5382 221C99.2634 222.726 100.233 225.065 100.234 227.505V324.445C100.233 326.885 99.2634 329.223 97.5384 330.949C95.8132 332.673 93.4738 333.643 91.034 333.644Z" stroke="black" stroke-width="0.68901" stroke-linecap="round" stroke-linejoin="round"/>
<path d="M90.9941 328.282H47.5169C46.9102 328.281 46.3288 328.04 45.8999 327.611C45.4709 327.183 45.2294 326.601 45.2285 325.994V227.471C45.2285 226.864 45.4697 226.282 45.8988 225.852C46.3279 225.424 46.91 225.183 47.5169 225.183H90.9941C91.2945 225.183 91.5921 225.242 91.8695 225.358C92.1471 225.472 92.3993 225.64 92.6115 225.854C92.8239 226.066 92.9924 226.318 93.1072 226.595C93.222 226.873 93.2809 227.171 93.2807 227.471V325.994C93.2802 326.601 93.0392 327.183 92.6106 327.611C92.1819 328.04 91.6005 328.281 90.9941 328.282Z" stroke="black" stroke-width="0.68901" stroke-linecap="round" stroke-linejoin="round"/>
<path d="M56.7031 221.674H79.6582" stroke="black" stroke-width="0.68901" stroke-linecap="round" stroke-linejoin="round"/>
<path d="M83.7238 203.53H68.1836" stroke="black" stroke-width="0.68901" stroke-linecap="round" stroke-linejoin="round"/>
<path d="M63.2707 202.821C63.271 204.11 62.8892 205.37 62.1733 206.441C61.4575 207.514 60.4399 208.349 59.2491 208.842C58.0585 209.335 56.7483 209.465 55.4842 209.213C54.2202 208.961 53.0591 208.34 52.1478 207.43C51.2366 206.518 50.6163 205.356 50.3651 204.092C50.114 202.828 50.2434 201.518 50.737 200.327C51.2307 199.137 52.0662 198.119 53.1381 197.404C54.2102 196.688 55.4702 196.308 56.759 196.308C58.4862 196.308 60.1425 196.995 61.3636 198.216C62.5847 199.437 63.2707 201.093 63.2707 202.821Z" stroke="black" stroke-width="0.68901" stroke-linecap="round" stroke-linejoin="round"/>
<path d="M188.25 147.767H144.712C143.504 147.767 142.308 147.529 141.192 147.067C140.077 146.604 139.063 145.927 138.209 145.072C137.355 144.218 136.678 143.203 136.217 142.087C135.755 140.971 135.518 139.775 135.52 138.567V41.6413C135.519 40.4334 135.756 39.2373 136.217 38.1211C136.679 37.0049 137.356 35.9907 138.21 35.1364C139.063 34.2819 140.077 33.6042 141.193 33.1418C142.309 32.6794 143.505 32.4414 144.712 32.4414H188.25C189.459 32.4403 190.655 32.6777 191.772 33.1397C192.888 33.6017 193.904 34.2794 194.759 35.1337C195.612 35.9882 196.29 37.0028 196.752 38.1195C197.215 39.236 197.45 40.4329 197.45 41.6413V138.567C197.452 139.775 197.215 140.972 196.752 142.089C196.29 143.205 195.614 144.22 194.759 145.075C193.904 145.929 192.89 146.607 191.772 147.069C190.655 147.531 189.459 147.768 188.25 147.767Z" stroke="black" stroke-width="0.68901" stroke-linecap="round" stroke-linejoin="round"/>
<path d="M188.221 142.413H144.744C144.137 142.411 143.556 142.169 143.128 141.74C142.699 141.311 142.458 140.73 142.457 140.123V41.5911C142.458 40.9847 142.699 40.4032 143.127 39.9743C143.556 39.5451 144.137 39.3038 144.744 39.3027H188.221C188.828 39.3033 189.409 39.5446 189.838 39.9735C190.268 40.4026 190.509 40.9844 190.509 41.5911V140.123C190.509 140.73 190.266 141.312 189.838 141.741C189.409 142.17 188.828 142.412 188.221 142.413Z" stroke="black" stroke-width="0.68901" stroke-linecap="round" stroke-linejoin="round"/>
<path d="M153.934 35.8066H176.887" stroke="black" stroke-width="0.68901" stroke-linecap="round" stroke-linejoin="round"/>
<path d="M180.952 17.6543H165.412" stroke="black" stroke-width="0.68901" stroke-linecap="round" stroke-linejoin="round"/>
<path d="M160.499 16.9583C160.499 18.247 160.116 19.5069 159.4 20.5782C158.684 21.6498 157.666 22.4848 156.475 22.9778C155.284 23.4708 153.974 23.5997 152.71 23.3482C151.446 23.0967 150.285 22.476 149.374 21.5648C148.462 20.6534 147.842 19.4924 147.59 18.2283C147.339 16.9643 147.468 15.6541 147.961 14.4634C148.454 13.2726 149.289 12.2548 150.36 11.5385C151.432 10.8223 152.691 10.4398 153.98 10.4395C154.836 10.4392 155.684 10.6077 156.475 10.9352C157.266 11.2627 157.985 11.7429 158.59 12.3483C159.196 12.9536 159.676 13.6724 160.003 14.4634C160.331 15.2544 160.499 16.1022 160.499 16.9583Z" stroke="black" stroke-width="0.68901" stroke-linecap="round" stroke-linejoin="round"/>
<path d="M312.64 169.22H269.102C266.662 169.219 264.322 168.25 262.598 166.524C260.872 164.799 259.902 162.459 259.902 160.02V63.0817C259.904 60.642 260.873 58.3026 262.598 56.5774C264.324 54.8523 266.662 53.8827 269.102 53.8818H312.64C313.849 53.8815 315.045 54.1192 316.162 54.5816C317.278 55.0439 318.291 55.7215 319.147 56.5758C320 57.4302 320.678 58.4445 321.14 59.5608C321.603 60.677 321.84 61.8735 321.84 63.0817V160.02C321.84 161.228 321.603 162.424 321.14 163.541C320.678 164.657 320.002 165.672 319.147 166.526C318.291 167.38 317.278 168.058 316.162 168.52C315.045 168.982 313.849 169.22 312.64 169.22Z" stroke="black" stroke-width="0.68901" stroke-linecap="round" stroke-linejoin="round"/>
<path d="M312.615 163.864H269.138C268.531 163.863 267.951 163.621 267.523 163.192C267.093 162.763 266.852 162.182 266.852 161.575V63.0433C266.853 62.4369 267.094 61.8557 267.523 61.4268C267.951 60.998 268.531 60.7563 269.138 60.7549H312.615C313.222 60.7563 313.802 60.9978 314.233 61.4268C314.661 61.8555 314.902 62.4367 314.904 63.0433V161.575C314.904 162.182 314.661 162.763 314.233 163.192C313.804 163.621 313.222 163.863 312.615 163.864Z" stroke="black" stroke-width="0.68901" stroke-linecap="round" stroke-linejoin="round"/>
<path d="M278.326 57.252H301.28" stroke="black" stroke-width="0.68901" stroke-linecap="round" stroke-linejoin="round"/>
<path d="M305.337 39.0996H289.797" stroke="black" stroke-width="0.68901" stroke-linecap="round" stroke-linejoin="round"/>
<path d="M278.374 44.9165C281.975 44.9165 284.893 41.9981 284.893 38.3977C284.893 34.7976 281.975 31.8789 278.374 31.8789C274.774 31.8789 271.855 34.7976 271.855 38.3977C271.855 41.9981 274.774 44.9165 278.374 44.9165Z" stroke="black" stroke-width="0.68901" stroke-linecap="round" stroke-linejoin="round"/>
<path d="M114.122 264.581C114.121 265.233 113.928 265.868 113.566 266.409C113.204 266.95 112.69 267.371 112.088 267.619C111.487 267.867 110.825 267.933 110.187 267.805C109.549 267.678 108.963 267.364 108.503 266.905C108.042 266.445 107.729 265.858 107.602 265.22C107.475 264.581 107.54 263.919 107.79 263.319C108.039 262.718 108.46 262.204 109.001 261.841C109.542 261.479 110.178 261.286 110.829 261.286C111.262 261.286 111.69 261.372 112.09 261.536C112.49 261.702 112.853 261.945 113.159 262.25C113.465 262.557 113.707 262.919 113.872 263.319C114.038 263.719 114.123 264.149 114.122 264.581Z" stroke="black" stroke-width="0.68901" stroke-linecap="round" stroke-linejoin="round"/>
<path d="M114.122 293.171C114.123 293.822 113.931 294.46 113.57 295.001C113.209 295.543 112.696 295.966 112.094 296.216C111.493 296.466 110.831 296.532 110.192 296.405C109.554 296.279 108.967 295.966 108.506 295.506C108.045 295.047 107.731 294.46 107.603 293.822C107.475 293.183 107.54 292.521 107.789 291.92C108.037 291.318 108.459 290.802 109 290.442C109.541 290.079 110.178 289.885 110.829 289.885C111.261 289.885 111.689 289.969 112.088 290.133C112.488 290.299 112.851 290.54 113.157 290.845C113.462 291.15 113.705 291.513 113.871 291.913C114.036 292.311 114.122 292.739 114.122 293.171Z" stroke="black" stroke-width="0.68901" stroke-linecap="round" stroke-linejoin="round"/>
<path d="M114.467 293.171H202.681V276.729" stroke="black" stroke-width="0.68901" stroke-linecap="round" stroke-linejoin="round"/>
<path d="M82.2352 73.2957C84.0511 73.2957 85.5232 71.8236 85.5232 70.0077C85.5232 68.1916 84.0511 66.7197 82.2352 66.7197C80.4194 66.7197 78.9473 68.1916 78.9473 70.0077C78.9473 71.8236 80.4194 73.2957 82.2352 73.2957Z" stroke="black" stroke-width="0.68901" stroke-linecap="round" stroke-linejoin="round"/>
<path d="M85.5234 70.0068H110.829V174.752H181.546" stroke="black" stroke-width="0.68901" stroke-linecap="round" stroke-linejoin="round"/>
<path d="M119.585 221.31H114.121V185.93H169.354H169.361" stroke="black" stroke-width="0.68901" stroke-linecap="round" stroke-linejoin="round"/>
<path d="M254.541 68.4698C254.541 69.1201 254.348 69.7561 253.988 70.2969C253.627 70.8379 253.113 71.2596 252.513 71.5087C251.912 71.7578 251.251 71.8233 250.612 71.6965C249.975 71.5698 249.39 71.2569 248.929 70.7971C248.469 70.3372 248.156 69.7514 248.028 69.1136C247.901 68.4759 247.967 67.8145 248.215 67.2137C248.465 66.6128 248.886 66.0991 249.427 65.7378C249.966 65.3764 250.603 65.1836 251.253 65.1836C252.124 65.184 252.961 65.5304 253.577 66.1464C254.193 66.7626 254.539 67.5982 254.541 68.4698Z" stroke="black" stroke-width="0.68901" stroke-linecap="round" stroke-linejoin="round"/>
<path d="M208.366 56.033C210.181 56.033 211.654 54.5609 211.654 52.745C211.654 50.9289 210.181 49.457 208.366 49.457C206.551 49.457 205.078 50.9289 205.078 52.745C205.078 54.5609 206.551 56.033 208.366 56.033Z" stroke="black" stroke-width="0.68901" stroke-linecap="round" stroke-linejoin="round"/>
<path d="M251.257 100.357C253.072 100.357 254.545 98.8851 254.545 97.0692C254.545 95.2533 253.072 93.7812 251.257 93.7812C249.441 93.7812 247.969 95.2533 247.969 97.0692C247.969 98.8851 249.441 100.357 251.257 100.357Z" stroke="black" stroke-width="0.68901" stroke-linecap="round" stroke-linejoin="round"/>
<path d="M251.257 114.657C253.072 114.657 254.545 113.185 254.545 111.369C254.545 109.553 253.072 108.081 251.257 108.081C249.441 108.081 247.969 109.553 247.969 111.369C247.969 113.185 249.441 114.657 251.257 114.657Z" stroke="black" stroke-width="0.68901" stroke-linecap="round" stroke-linejoin="round"/>
<path d="M254.541 125.664C254.539 126.314 254.347 126.95 253.984 127.49C253.622 128.03 253.108 128.45 252.508 128.698C251.906 128.946 251.246 129.011 250.609 128.883C249.972 128.756 249.386 128.442 248.925 127.982C248.467 127.522 248.154 126.936 248.028 126.298C247.901 125.661 247.967 125 248.217 124.4C248.465 123.799 248.886 123.286 249.427 122.925C249.968 122.564 250.603 122.371 251.253 122.371C251.685 122.371 252.114 122.456 252.513 122.622C252.911 122.787 253.274 123.03 253.581 123.336C253.886 123.642 254.127 124.005 254.293 124.404C254.457 124.804 254.541 125.232 254.541 125.664Z" stroke="black" stroke-width="0.68901" stroke-linecap="round" stroke-linejoin="round"/>
<path d="M208.365 56.0322V97.0694H223.87H247.969" stroke="black" stroke-width="0.68901" stroke-linecap="round" stroke-linejoin="round"/>
<path d="M247.969 111.369H236.984V168.737" stroke="black" stroke-width="0.68901" stroke-linecap="round" stroke-linejoin="round"/>
<path d="M247.971 125.667H243.656V168.737" stroke="black" stroke-width="0.68901" stroke-linecap="round" stroke-linejoin="round"/>
<path d="M247.968 68.4707H223.869V97.07V163.142" stroke="black" stroke-width="0.68901" stroke-linecap="round" stroke-linejoin="round"/>
<path d="M40.6614 108.661C50.7435 108.661 58.9166 100.488 58.9166 90.4056C58.9166 80.3236 50.7435 72.1504 40.6614 72.1504C30.5794 72.1504 22.4062 80.3236 22.4062 90.4056C22.4062 100.488 30.5794 108.661 40.6614 108.661Z" stroke="black" stroke-width="0.68901" stroke-linecap="round" stroke-linejoin="round"/>
<path d="M22.8867 119.382H56.2894" stroke="black" stroke-width="0.68901" stroke-linecap="round" stroke-linejoin="round"/>
<path d="M22.8867 130.106H56.2894" stroke="black" stroke-width="0.68901" stroke-linecap="round" stroke-linejoin="round"/>
<path d="M22.8867 140.828H56.2894" stroke="black" stroke-width="0.68901" stroke-linecap="round" stroke-linejoin="round"/>
<path d="M84.6337 234.011H51.7344V248.867H84.6337V234.011Z" stroke="black" stroke-width="0.68901" stroke-linecap="round" stroke-linejoin="round"/>
<path d="M84.6337 255.456H51.7344V270.313H84.6337V255.456Z" stroke="black" stroke-width="0.68901" stroke-linecap="round" stroke-linejoin="round"/>
<path d="M84.6337 276.901H51.7344V317.938H84.6337V276.901Z" stroke="black" stroke-width="0.68901" stroke-linecap="round" stroke-linejoin="round"/>
<path d="M300.478 79.6124C300.478 81.512 299.915 83.369 298.861 84.9487C297.806 86.5282 296.306 87.7597 294.552 88.4871C292.797 89.2147 290.867 89.4055 289.004 89.0354C287.14 88.6654 285.428 87.7513 284.086 86.4085C282.742 85.0658 281.826 83.3549 281.457 81.492C281.086 79.6292 281.275 77.6982 282.001 75.9432C282.728 74.1882 283.958 72.6879 285.537 71.6324C287.117 70.5768 288.973 70.0131 290.873 70.0127C293.42 70.0123 295.862 71.0234 297.663 72.8235C299.464 74.6239 300.476 77.0659 300.478 79.6124Z" stroke="black" stroke-width="0.68901" stroke-linecap="round" stroke-linejoin="round"/>
<path d="M277.346 98.9287H304.408" stroke="black" stroke-width="0.68901" stroke-linecap="round" stroke-linejoin="round"/>
<path d="M277.346 106.076H304.408" stroke="black" stroke-width="0.68901" stroke-linecap="round" stroke-linejoin="round"/>
<path d="M300.478 124.648C300.478 126.547 299.914 128.403 298.858 129.982C297.803 131.561 296.303 132.791 294.549 133.518C292.794 134.244 290.862 134.434 289.001 134.063C287.137 133.692 285.427 132.777 284.083 131.434C282.741 130.091 281.827 128.38 281.456 126.518C281.086 124.655 281.275 122.724 282.002 120.97C282.728 119.215 283.96 117.715 285.538 116.66C287.118 115.605 288.974 115.041 290.873 115.041C292.135 115.041 293.385 115.289 294.55 115.772C295.716 116.255 296.774 116.962 297.667 117.854C298.558 118.747 299.266 119.806 299.748 120.971C300.23 122.137 300.478 123.386 300.478 124.648Z" stroke="black" stroke-width="0.68901" stroke-linecap="round" stroke-linejoin="round"/>
<path d="M277.346 143.963H304.408" stroke="black" stroke-width="0.68901" stroke-linecap="round" stroke-linejoin="round"/>
<path d="M277.346 151.117H304.408" stroke="black" stroke-width="0.68901" stroke-linecap="round" stroke-linejoin="round"/>
<path d="M114.121 264.581H183.459" stroke="black" stroke-width="0.68901" stroke-linecap="round" stroke-linejoin="round"/>
</svg>
