<svg width="22" height="23" viewBox="0 0 22 23" fill="none" xmlns="http://www.w3.org/2000/svg">
<g clip-path="url(#clip0_904_512)">
<path d="M20.7293 6.54417L21.5928 5.24881L20.1756 5.89303C20.009 5.96874 19.8389 6.0379 19.6657 6.10048C19.9211 5.74138 20.1234 5.34042 20.2603 4.90833L20.616 3.78574L19.6073 4.39339C18.9716 4.7763 18.271 5.05682 17.5295 5.23328C16.7476 4.48015 15.7009 4.05018 14.5358 4.05018C12.1704 4.05018 10.2419 5.98141 10.2419 8.36208C10.2419 8.49652 10.2481 8.62927 10.2599 8.75974C7.40443 8.46661 4.87737 7.03321 3.16077 4.9261L2.75683 4.43028L2.43296 4.98174C2.05974 5.61723 1.84888 6.36193 1.84888 7.14505C1.84888 8.04361 2.12108 8.88283 2.59291 9.57393C2.54866 9.55303 2.50484 9.53133 2.46145 9.50889L1.81282 9.17339V9.90366V9.9307C1.81282 11.2911 2.44275 12.507 3.42642 13.2983L2.96682 13.2077L3.19506 13.9241C3.46812 14.7811 4.0029 15.531 4.72421 16.0684C5.12591 16.3677 5.57421 16.5926 6.04796 16.7361C4.94949 17.3639 3.69956 17.6961 2.42168 17.6899H2.41953C2.1305 17.6899 1.84132 17.6729 1.55193 17.6389L1.25986 18.4543C3.04185 19.5985 5.16217 20.2646 7.4319 20.2646C14.832 20.2646 18.8837 14.1158 18.8837 8.81283V8.80803C18.8837 8.71587 18.8837 8.62249 18.8821 8.52677C19.6031 7.97689 20.2233 7.3031 20.7293 6.54417Z" stroke="white" stroke-width="0.888889"/>
</g>
<defs>
<clipPath id="clip0_904_512">
<rect width="21.6361" height="21.6361" fill="white" transform="translate(0.111328 0.888672)"/>
</clipPath>
</defs>
</svg>
