<svg width="53" height="53" viewBox="0 0 53 53" fill="none" xmlns="http://www.w3.org/2000/svg">
<path d="M30.7934 41.9184C30.7937 44.351 28.8225 46.3231 26.3905 46.3231C23.9585 46.3231 21.9867 44.351 21.9863 41.9184C21.9859 39.4858 23.9571 37.5137 26.3892 37.5137C28.8212 37.5137 30.793 39.4858 30.7934 41.9184Z" fill="#2F4E37"/>
<path d="M4.62604 18.9033C3.85478 17.5535 4.11862 15.8351 5.34872 14.8846C10.663 10.7783 17.6899 7.78125 26.4293 7.78125C35.1686 7.78125 42.1954 10.7783 47.5097 14.8846C48.7397 15.8351 49.0036 17.5536 48.2323 18.9033L47.1508 20.796C46.1157 22.6074 43.6848 23.0071 41.9707 21.8179C37.7887 18.9168 32.4782 16.5906 26.4293 16.5906C20.3803 16.5906 15.0698 18.9168 10.8877 21.8179C9.17358 23.0071 6.74265 22.6074 5.70758 20.796L4.62604 18.9033Z" fill="#2F4E37"/>
<path d="M13.6686 31.0375C12.7711 29.6912 12.9619 27.8653 14.2661 26.9078C17.3626 24.635 21.1117 23.1973 26.4276 23.1973C31.7435 23.1973 35.4927 24.635 38.5891 26.9078C39.8934 27.8653 40.0842 29.6912 39.1867 31.0375L38.1363 32.613C37.1942 34.0262 35.1979 34.2526 33.7338 33.3918C31.8 32.2549 29.2641 31.297 26.4276 31.297C23.5912 31.297 21.0553 32.2549 19.1214 33.3918C17.6574 34.2526 15.6611 34.0262 14.7189 32.613L13.6686 31.0375Z" fill="#2F4E37"/>
</svg>
