<svg width="22" height="22" viewBox="0 0 22 22" fill="none" xmlns="http://www.w3.org/2000/svg">
<g clip-path="url(#clip0_904_515)">
<path d="M10.9983 3.03613H11.1187C12.2303 3.04019 17.8624 3.08076 19.381 3.48914C19.8401 3.61377 20.2584 3.85671 20.5942 4.19368C20.9299 4.53064 21.1714 4.94982 21.2944 5.40934C21.431 5.9232 21.527 6.60339 21.5919 7.30521L21.6054 7.44584L21.6352 7.79743L21.646 7.93806C21.7339 9.17402 21.7447 10.3316 21.7461 10.5844V10.6858C21.7447 10.9482 21.7326 12.1841 21.6352 13.4715L21.6244 13.6135L21.6122 13.7541C21.5446 14.5276 21.4445 15.2957 21.2944 15.8609C21.1718 16.3206 20.9304 16.74 20.5946 17.077C20.2588 17.4141 19.8402 17.6569 19.381 17.7811C17.8124 18.203 11.8503 18.2328 11.024 18.2341H10.832C10.4142 18.2341 8.68599 18.226 6.87396 18.1638L6.64408 18.1557L6.52643 18.1503L6.2952 18.1408L6.06396 18.1314C4.56296 18.0651 3.13362 17.9583 2.47507 17.7798C2.01597 17.6556 1.59755 17.413 1.26173 17.0763C0.925905 16.7395 0.684478 16.3204 0.56163 15.8609C0.411529 15.297 0.311462 14.5276 0.243849 13.7541L0.233031 13.6121L0.222213 13.4715C0.155476 12.5552 0.118495 11.637 0.111328 10.7183L0.111328 10.552C0.114033 10.2612 0.124851 9.25651 0.197873 8.14766L0.207338 8.00838L0.211395 7.93806L0.222213 7.79743L0.251963 7.44584L0.265485 7.30521C0.330394 6.60339 0.426404 5.92185 0.562982 5.40934C0.685623 4.94964 0.926958 4.53026 1.26279 4.19323C1.59863 3.85621 2.01716 3.6134 2.47642 3.48914C3.13497 3.31335 4.56431 3.20516 6.06531 3.13755L6.2952 3.12809L6.52778 3.11997L6.64408 3.11592L6.87531 3.10645C8.16227 3.06504 9.44975 3.04205 10.7374 3.03749H10.9983V3.03613ZM8.76577 7.37688V13.892L14.3871 10.6358L8.76577 7.37688Z" stroke="white" stroke-width="0.888889"/>
</g>
<defs>
<clipPath id="clip0_904_515">
<rect width="21.6361" height="21.6361" fill="white" transform="translate(0.111328 0.333008)"/>
</clipPath>
</defs>
</svg>
